<?xml version="1.0" encoding="UTF-8" standalone="no"?>
<svg
   xmlns:dc="http://purl.org/dc/elements/1.1/"
   xmlns:cc="http://creativecommons.org/ns#"
   xmlns:rdf="http://www.w3.org/1999/02/22-rdf-syntax-ns#"
   xmlns:svg="http://www.w3.org/2000/svg"
   xmlns="http://www.w3.org/2000/svg"
   xmlns:sodipodi="http://sodipodi.sourceforge.net/DTD/sodipodi-0.dtd"
   xmlns:inkscape="http://www.inkscape.org/namespaces/inkscape"
   width="48"
   height="48"
   viewBox="0 0 12.7 12.7"
   version="1.1"
   id="svg8"
   inkscape:version="1.0.2 (e86c870879, 2021-01-15)"
   sodipodi:docname="nwg-panel.svg">
  <defs
     id="defs2" />
  <sodipodi:namedview
     id="base"
     pagecolor="#ffffff"
     bordercolor="#666666"
     borderopacity="1.0"
     inkscape:pageopacity="0.0"
     inkscape:pageshadow="2"
     inkscape:zoom="11.610947"
     inkscape:cx="22.217459"
     inkscape:cy="25.056234"
     inkscape:document-units="mm"
     inkscape:current-layer="layer1"
     inkscape:document-rotation="0"
     showgrid="false"
     units="px"
     inkscape:window-width="1908"
     inkscape:window-height="1008"
     inkscape:window-x="0"
     inkscape:window-y="0"
     inkscape:window-maximized="1"
     showguides="true"
     inkscape:guide-bbox="true"
     inkscape:snap-global="false">
    <sodipodi:guide
       position="0.26458333,3.3528398"
       orientation="-1,0"
       id="guide839"
       inkscape:label=""
       inkscape:locked="false"
       inkscape:color="rgb(0,0,255)" />
    <sodipodi:guide
       position="3.96875,2.1136265"
       orientation="-1,0"
       id="guide841"
       inkscape:label=""
       inkscape:locked="false"
       inkscape:color="rgb(0,0,255)" />
    <sodipodi:guide
       position="-0.51355625,0.26458333"
       orientation="0,1"
       id="guide843"
       inkscape:label=""
       inkscape:locked="false"
       inkscape:color="rgb(0,0,255)" />
    <sodipodi:guide
       position="-0.57070625,3.96875"
       orientation="0,1"
       id="guide845"
       inkscape:label=""
       inkscape:locked="false"
       inkscape:color="rgb(0,0,255)" />
  </sodipodi:namedview>
  <metadata
     id="metadata5">
    <rdf:RDF>
      <cc:Work
         rdf:about="">
        <dc:format>image/svg+xml</dc:format>
        <dc:type
           rdf:resource="http://purl.org/dc/dcmitype/StillImage" />
        <dc:title />
      </cc:Work>
    </rdf:RDF>
  </metadata>
  <g
     inkscape:label="Warstwa 1"
     inkscape:groupmode="layer"
     id="layer1">
    <path
       id="rect1314-3-3"
       style="fill:#ffffff;fill-opacity:0.6958831;stroke:none;stroke-width:0.665238;stroke-miterlimit:4;stroke-dasharray:none"
       d="m 6.1320381,0.413835 c -3.224744,0 -5.820835,2.5960889 -5.820835,5.82083 0,1.7888659 0.801518,3.3819389 2.063441,4.448046 V 4.4653935 h 2.422978 v 1.1098798 c 0.365519,-0.4422328 0.753236,-0.7672962 1.163882,-0.9748741 0.410647,-0.2120809 0.865033,-0.316907 1.361415,-0.316907 0.875444,0 1.538285,0.2673551 1.989543,0.8043439 0.455771,0.5369977 0.6835512,1.3176178 0.6835512,2.3419728 V 10.586076 C 11.194923,9.5213519 11.95287,7.9715969 11.95287,6.234665 c 0,-3.2247411 -2.5960919,-5.82083 -5.8208319,-5.82083 z m 0.289905,5.6971928 c -0.505412,0 -0.902081,0.1957453 -1.190885,0.5883371 -0.288805,0.38808 -0.433436,0.926785 -0.433436,1.617211 v 3.5797561 c 0.428772,0.09996 0.874338,0.159171 1.334416,0.159171 0.493322,0 0.96993,-0.06743 1.426785,-0.181912 V 11.295205 8.5126889 c 0,-0.654326 -0.0154,-1.104696 -0.04689,-1.352889 -0.02695,-0.248187 -0.07702,-0.431216 -0.149213,-0.548545 C 7.2679601,6.4533229 7.1400531,6.331773 6.9775991,6.2460334 6.8151571,6.1557784 6.6295291,6.1110361 6.4219511,6.1110361 Z" />
    <path
       id="rect1314-3"
       style="fill:#000000;fill-opacity:0.30149812;stroke:none;stroke-width:0.665238;stroke-miterlimit:4;stroke-dasharray:none"
       d="m 6.6536007,0.77511372 c -3.2247443,0 -5.82083524,2.59608888 -5.82083524,5.82082998 0,1.7888655 0.80151784,3.3819393 2.06344074,4.4480463 V 4.8266722 H 5.3191847 V 5.936552 c 0.3655189,-0.4422328 0.753236,-0.7672962 1.163882,-0.9748741 0.410647,-0.2120809 0.865033,-0.316907 1.361415,-0.316907 0.875444,0 1.538285,0.2673551 1.9895424,0.8043439 0.4557719,0.5369977 0.6835519,1.3176177 0.6835519,2.3419725 v 3.1562677 c 1.19891,-1.064724 1.956857,-2.6144795 1.956857,-4.3514113 0,-3.2247411 -2.5960929,-5.82082998 -5.8208323,-5.82082998 z m 0.289905,5.69719278 c -0.505412,0 -0.902081,0.1957453 -1.1908852,0.5883374 -0.2888051,0.3880799 -0.4334358,0.926785 -0.4334358,1.6172105 v 3.5797566 c 0.4287718,0.09996 0.874338,0.159171 1.334416,0.159171 0.493322,0 0.96993,-0.06743 1.426785,-0.181912 V 11.656484 8.8739678 c 0,-0.6543262 -0.0154,-1.104696 -0.04689,-1.352889 C 8.0065477,7.2728914 7.9564707,7.0898627 7.8842827,6.972534 7.7895187,6.8146016 7.6616157,6.6930517 7.4991617,6.6073121 7.3367197,6.5170571 7.1510917,6.4723148 6.9435137,6.4723148 Z" />
    <path
       id="rect1314"
       style="fill:#ff8000;fill-opacity:1;stroke:none;stroke-width:0.665238;stroke-miterlimit:4;stroke-dasharray:none"
       d="m 6.3500015,0.52916667 c -3.2247439,0 -5.82083483,2.59608883 -5.82083483,5.82082993 0,1.7888655 0.80151783,3.3819394 2.06344073,4.4480454 V 4.5807251 H 5.0155859 V 5.6906049 C 5.3811048,5.2483721 5.7688218,4.9233087 6.1794683,4.7157308 6.590115,4.5036499 7.0445004,4.3988238 7.5408833,4.3988238 c 0.8754434,0 1.5382843,0.2673551 1.989543,0.8043439 0.4557713,0.5369977 0.6835507,1.3176177 0.6835507,2.3419725 v 3.1562668 c 1.19891,-1.0647229 1.956857,-2.6144786 1.956857,-4.3514104 0,-3.2247411 -2.5960916,-5.82082993 -5.8208325,-5.82082993 z M 6.6399066,6.2263594 c -0.5054118,0 -0.9020802,0.1957453 -1.1908849,0.5883374 -0.2888051,0.3880799 -0.4334358,0.926785 -0.4334358,1.6172105 v 3.5797557 c 0.4287718,0.09996 0.8743378,0.159171 1.3344156,0.159171 0.4933227,0 0.9699305,-0.06743 1.4267854,-0.181912 V 11.410536 8.6280207 c 0,-0.6543262 -0.015396,-1.104696 -0.046887,-1.352889 C 7.7029492,7.0269443 7.6528718,6.8439156 7.5806842,6.7265869 7.4859194,6.5686545 7.3580167,6.4471046 7.1955633,6.361365 7.0331209,6.27111 6.8474931,6.2263677 6.6399147,6.2263677 Z" />
  </g>
</svg>
