<?xml version="1.0" encoding="UTF-8" standalone="no"?>
<svg
   xmlns:dc="http://purl.org/dc/elements/1.1/"
   xmlns:cc="http://creativecommons.org/ns#"
   xmlns:rdf="http://www.w3.org/1999/02/22-rdf-syntax-ns#"
   xmlns:svg="http://www.w3.org/2000/svg"
   xmlns="http://www.w3.org/2000/svg"
   xmlns:sodipodi="http://sodipodi.sourceforge.net/DTD/sodipodi-0.dtd"
   xmlns:inkscape="http://www.inkscape.org/namespaces/inkscape"
   width="48"
   height="48"
   viewBox="0 0 12.7 12.7"
   version="1.1"
   id="svg8"
   inkscape:version="1.0.2 (e86c870879, 2021-01-15)"
   sodipodi:docname="nwg-panel.svg">
  <defs
     id="defs2" />
  <sodipodi:namedview
     id="base"
     pagecolor="#ffffff"
     bordercolor="#666666"
     borderopacity="1.0"
     inkscape:pageopacity="0.0"
     inkscape:pageshadow="2"
     inkscape:zoom="11.610947"
     inkscape:cx="22.217459"
     inkscape:cy="25.056234"
     inkscape:document-units="mm"
     inkscape:current-layer="layer1"
     inkscape:document-rotation="0"
     showgrid="false"
     units="px"
     inkscape:window-width="1908"
     inkscape:window-height="1008"
     inkscape:window-x="0"
     inkscape:window-y="0"
     inkscape:window-maximized="1"
     showguides="true"
     inkscape:guide-bbox="true">
    <sodipodi:guide
       position="0.26458333,3.3528398"
       orientation="-1,0"
       id="guide839"
       inkscape:label=""
       inkscape:locked="false"
       inkscape:color="rgb(0,0,255)" />
    <sodipodi:guide
       position="3.96875,2.1136265"
       orientation="-1,0"
       id="guide841"
       inkscape:label=""
       inkscape:locked="false"
       inkscape:color="rgb(0,0,255)" />
    <sodipodi:guide
       position="-0.51355625,0.26458333"
       orientation="0,1"
       id="guide843"
       inkscape:label=""
       inkscape:locked="false"
       inkscape:color="rgb(0,0,255)" />
    <sodipodi:guide
       position="-0.57070625,3.96875"
       orientation="0,1"
       id="guide845"
       inkscape:label=""
       inkscape:locked="false"
       inkscape:color="rgb(0,0,255)" />
  </sodipodi:namedview>
  <metadata
     id="metadata5">
    <rdf:RDF>
      <cc:Work
         rdf:about="">
        <dc:format>image/svg+xml</dc:format>
        <dc:type
           rdf:resource="http://purl.org/dc/dcmitype/StillImage" />
        <dc:title></dc:title>
      </cc:Work>
    </rdf:RDF>
  </metadata>
  <g
     inkscape:label="Warstwa 1"
     inkscape:groupmode="layer"
     id="layer1">
    <path
       id="rect1314"
       style="fill:#ff8000;fill-opacity:1;stroke:none;stroke-width:0.725714;stroke-miterlimit:4;stroke-dasharray:none"
       d="M 6.3500016,0 C 2.8320992,0 0,2.832097 0,6.3499965 0,8.3014861 0.87438307,10.039385 2.2510262,11.202409 V 4.419882 H 4.8942755 V 5.63066 C 5.2930234,5.1482242 5.7159874,4.7936096 6.1639654,4.5671609 6.6119436,4.3358 7.1076368,4.2214442 7.6491454,4.2214442 c 0.9550292,0 1.6781283,0.2916601 2.1704105,0.8774661 0.4972051,0.5858157 0.7456921,1.4374012 0.7456921,2.5548792 V 11.096989 C 11.873149,9.9354739 12.7,8.2448312 12.7,6.3499965 12.7,2.832097 9.8679008,0 6.3500016,0 Z m 0.3162601,6.2151195 c -0.5513583,0 -0.9840875,0.2135404 -1.2991472,0.6418226 C 5.0520544,7.280302 4.8942755,7.8679803 4.8942755,8.6211718 V 12.526359 C 5.3620265,12.63541 5.8480986,12.7 6.3500016,12.7 c 0.5381702,0 1.058106,-0.07356 1.5564932,-0.198449 V 11.870584 8.8351137 c 0,-0.7138104 -0.016796,-1.2051229 -0.051149,-1.4758789 C 7.8259445,7.0884849 7.7713147,6.8888172 7.6925646,6.7608223 7.5891848,6.5885324 7.4496546,6.4559325 7.2724327,6.3623984 7.0952228,6.2639384 6.8927197,6.2151286 6.6662705,6.2151286 Z" />
  </g>
</svg>
