<?xml version="1.0" encoding="UTF-8" standalone="no"?>
<svg
   width="16"
   height="16"
   version="1.1"
   id="svg1"
   sodipodi:docname="airplane-mode-symbolic.svg"
   inkscape:version="1.3.2 (091e20ef0f, 2023-11-25, custom)"
   xmlns:inkscape="http://www.inkscape.org/namespaces/inkscape"
   xmlns:sodipodi="http://sodipodi.sourceforge.net/DTD/sodipodi-0.dtd"
   xmlns="http://www.w3.org/2000/svg"
   xmlns:svg="http://www.w3.org/2000/svg">
  <defs
     id="defs1" />
  <sodipodi:namedview
     id="namedview1"
     pagecolor="#ffffff"
     bordercolor="#666666"
     borderopacity="1.0"
     inkscape:showpageshadow="2"
     inkscape:pageopacity="0.0"
     inkscape:pagecheckerboard="0"
     inkscape:deskcolor="#d1d1d1"
     inkscape:zoom="14.75"
     inkscape:cx="8"
     inkscape:cy="7.9661017"
     inkscape:window-width="2552"
     inkscape:window-height="1372"
     inkscape:window-x="0"
     inkscape:window-y="0"
     inkscape:window-maximized="1"
     inkscape:current-layer="svg1" />
  <path
     style="fill:#eeeeee;fill-opacity:1"
     d="M 6.5,1 C 5.7,1 5.72,1.03 5.97,2.03 L 7.59,7 H 3.09 L 1.87,5.22 C 1.73,5.01 1.75,5 1.53,5 H 1.31 C 0.88003,5 1.03,5.43 1.03,5.43 L 1.31,8 1.03,10.56 C 1.03,10.56 0.89003,11 1.28,11 H 1.53 C 1.74,11 1.73,10.99 1.87,10.78 L 3.09,9 H 7.59 L 5.97,13.93 C 5.7,14.98 5.7,15 6.5,15 6.93,15 6.93,14.98 7.22,14.5 L 10.9,9 H 14 C 14.55,9 15,8.55 15,8 15,7.44 14.55,7 14,7 H 10.9 L 7.22,1.5 C 6.95,1.04 6.93,1 6.56,1 Z"
     id="path1" />
</svg>
