<?xml version="1.0" encoding="UTF-8" standalone="no"?>
<!-- Created with Inkscape (http://www.inkscape.org/) -->

<svg
   width="16"
   height="16"
   viewBox="0 0 4.2333332 4.2333333"
   version="1.1"
   id="svg5"
   xml:space="preserve"
   sodipodi:docname="cloud.svg"
   inkscape:version="1.2 (dc2aedaf03, 2022-05-15)"
   xmlns:inkscape="http://www.inkscape.org/namespaces/inkscape"
   xmlns:sodipodi="http://sodipodi.sourceforge.net/DTD/sodipodi-0.dtd"
   xmlns="http://www.w3.org/2000/svg"
   xmlns:svg="http://www.w3.org/2000/svg"><sodipodi:namedview
     id="namedview7"
     pagecolor="#ffffff"
     bordercolor="#666666"
     borderopacity="1.0"
     inkscape:showpageshadow="2"
     inkscape:pageopacity="0.0"
     inkscape:pagecheckerboard="0"
     inkscape:deskcolor="#d1d1d1"
     inkscape:document-units="px"
     showgrid="false"
     inkscape:zoom="16.174267"
     inkscape:cx="15.889437"
     inkscape:cy="17.620582"
     inkscape:window-width="1918"
     inkscape:window-height="1060"
     inkscape:window-x="0"
     inkscape:window-y="0"
     inkscape:window-maximized="1"
     inkscape:current-layer="layer1" /><defs
     id="defs2" /><g
     inkscape:label="Warstwa 1"
     inkscape:groupmode="layer"
     id="layer1"><path
       d="M 2.652994,1.8615764 C 2.636844,1.8695364 2.62048,1.8783704 2.60433,1.8876284 2.555887,1.9160514 2.508085,1.9507184 2.4592089,1.9905518 L 2.3549973,1.8712641 c 0.035957,-0.033373 0.074928,-0.06374 0.1162692,-0.09065 0.032943,-0.02153 0.067393,-0.040696 0.1029191,-0.057061 0.014214,-0.00707 0.028421,-0.013779 0.043064,-0.020022 C 2.5485642,1.5818741 2.4497364,1.4946692 2.337773,1.4408391 2.2258105,1.3872212 2.1004985,1.3665543 1.9784159,1.3783921 1.8571945,1.3900214 1.7394184,1.4341601 1.6420965,1.5097379 1.529488,1.5969423 1.4440083,1.7274266 1.4110655,1.9003289 l -0.010336,0.054047 -0.053829,0.00947 c -0.05275,0.00926 -0.099906,0.021966 -0.1412452,0.03811 -0.04005,0.015501 -0.075791,0.034666 -0.1070111,0.057275 -0.024979,0.018087 -0.046507,0.038331 -0.064807,0.06029 -0.0566285,0.067826 -0.0828956,0.1528774 -0.0822492,0.2390055 6.4284e-4,0.08742 0.0290642,0.1757013 0.0816034,0.2482642 0.019593,0.026916 0.0422,0.051677 0.068043,0.073209 0.026264,0.021747 0.055764,0.039834 0.088924,0.0534 0.032943,0.013565 0.069328,0.023255 0.109594,0.028853 h 1.562098 c 0.076005,-0.018301 0.1431833,-0.043063 0.200241,-0.07493 C 3.1187197,2.6556699 3.165011,2.6171273 3.1996766,2.5708338 3.2535051,2.4991319 3.2799879,2.3977162 3.2810651,2.2937163 3.2823509,2.1845487 3.255658,2.0749506 3.2037674,1.9952824 3.1889103,1.9722452 3.172546,1.9515723 3.1553246,1.9330497 3.0775968,1.8492898 2.9789835,1.8126852 2.8764943,1.8120395 2.8026416,1.8113937 2.7257746,1.8292691 2.652999,1.8615642 Z M 2.774431,1.6617593 c 0.03445,-0.00536 0.0689,-0.00819 0.1031347,-0.00775 0.1446905,0.00107 0.2842131,0.052754 0.394023,0.1711793 0.023036,0.024766 0.044786,0.052754 0.065243,0.083975 0.0689,0.1059378 0.104212,0.247403 0.1027048,0.3858543 -0.0015,0.135867 -0.038107,0.2710883 -0.1130398,0.3705664 -0.048879,0.064811 -0.1115319,0.1177803 -0.1866761,0.1597677 -0.072346,0.04048 -0.1567483,0.071271 -0.251486,0.093233 l -0.017657,0.00215 H 1.2971687 l -0.00991,-8.639e-4 C 1.2297761,2.9125499 1.1776676,2.8989848 1.1302985,2.8793913 1.08142,2.8591514 1.0381445,2.8330975 1.0000339,2.80123 0.9638625,2.7710851 0.93221255,2.7368492 0.90529616,2.6995987 0.83338201,2.6005513 0.79462563,2.4795413 0.7937642,2.3589619 0.79290706,2.2370908 0.83079986,2.1158648 0.91261687,2.017679 0.93910257,1.985813 0.97032387,1.956525 1.0060632,1.93069 1.0476202,1.900545 1.0952022,1.875136 1.1490306,1.854252 1.1860666,1.839822 1.2256816,1.827764 1.2674531,1.818079 1.3148241,1.6298885 1.4158034,1.4849777 1.5456373,1.3844231 1.6670736,1.2903284 1.813271,1.235422 1.9637751,1.2209953 c 0.1498584,-0.014429 0.3040224,0.010979 0.4424685,0.077515 0.1509349,0.072563 0.282706,0.1933577 0.368186,0.3632452 z"
       id="path1975"
       style="fill:#eeeeee;fill-opacity:1;stroke-width:0.0215318" /></g></svg>
