<?xml version="1.0" encoding="UTF-8" standalone="no"?>
<!-- Created with Inkscape (http://www.inkscape.org/) -->

<svg
   width="16"
   height="16"
   viewBox="0 0 4.2333332 4.2333333"
   version="1.1"
   id="svg5"
   xml:space="preserve"
   sodipodi:docname="cloud.svg"
   inkscape:version="1.2 (dc2aedaf03, 2022-05-15)"
   xmlns:inkscape="http://www.inkscape.org/namespaces/inkscape"
   xmlns:sodipodi="http://sodipodi.sourceforge.net/DTD/sodipodi-0.dtd"
   xmlns="http://www.w3.org/2000/svg"
   xmlns:svg="http://www.w3.org/2000/svg"><sodipodi:namedview
     id="namedview7"
     pagecolor="#ffffff"
     bordercolor="#666666"
     borderopacity="1.0"
     inkscape:showpageshadow="2"
     inkscape:pageopacity="0.0"
     inkscape:pagecheckerboard="0"
     inkscape:deskcolor="#d1d1d1"
     inkscape:document-units="px"
     showgrid="false"
     inkscape:zoom="16.174267"
     inkscape:cx="11.437922"
     inkscape:cy="17.620582"
     inkscape:window-width="1918"
     inkscape:window-height="1060"
     inkscape:window-x="0"
     inkscape:window-y="0"
     inkscape:window-maximized="1"
     inkscape:current-layer="layer1" /><defs
     id="defs2" /><g
     inkscape:label="Warstwa 1"
     inkscape:groupmode="layer"
     id="layer1"><path
       d="m 2.8675302,1.7224406 c -0.02261,0.01115 -0.04552,0.02351 -0.06813,0.03647 -0.06782,0.03979 -0.134743,0.08832 -0.20317,0.144083 l -0.145896,-0.166991 c 0.05034,-0.04672 0.1049,-0.08923 0.162777,-0.126902 0.04612,-0.03014 0.09435,-0.05697 0.144087,-0.07988 0.0199,-0.0099 0.03979,-0.01929 0.06029,-0.02803 -0.09616,-0.170307 -0.234519,-0.2923858 -0.391268,-0.3677428 -0.156748,-0.07506 -0.332185,-0.1039918 -0.503101,-0.08742 -0.16971,0.01628 -0.334597,0.07807 -0.470848,0.1838719 -0.157652,0.1220779 -0.277324,0.3047439 -0.323444,0.5467909 l -0.01447,0.07566 -0.07536,0.01326 c -0.07385,0.01296 -0.13986797,0.03075 -0.19774397,0.05335 -0.05607,0.0217 -0.106107,0.04853 -0.149816,0.08018 -0.03497,0.02532 -0.06511,0.05366 -0.09073,0.0844 -0.07928,0.09495 -0.116054,0.2140139 -0.115149,0.3345852 9e-4,0.12238 0.04069,0.2459656 0.114245,0.3475469 0.02743,0.037679 0.05908,0.072342 0.09526,0.1024856 0.03677,0.030444 0.07807,0.055764 0.124494,0.074754 0.04612,0.01899 0.09706,0.032554 0.153432,0.040392 H 3.1599292 c 0.106408,-0.025621 0.200457,-0.060286 0.280338,-0.1048971 0.07928,-0.04431 0.144088,-0.098266 0.19262,-0.1630727 0.07536,-0.1003758 0.112436,-0.2423485 0.113944,-0.3879384 0.0018,-0.1528245 -0.03557,-0.3062515 -0.108217,-0.4177795 -0.0208,-0.03225 -0.04371,-0.06119 -0.06782,-0.08712 -0.108819,-0.117256 -0.246878,-0.168499 -0.390363,-0.169403 -0.103394,-9.04e-4 -0.211008,0.02412 -0.312894,0.06933 z m 0.170012,-0.279725 c 0.04823,-0.0075 0.09646,-0.01146 0.144389,-0.01085 0.202567,0.0015 0.397899,0.07385 0.551633,0.239635 0.03225,0.03467 0.0627,0.07385 0.09134,0.117557 0.09646,0.148303 0.145897,0.346341 0.143787,0.5401598 -0.0021,0.1902013 -0.05335,0.3794984 -0.158256,0.5187583 -0.06843,0.09073 -0.156145,0.1648813 -0.261347,0.2236599 -0.101284,0.056668 -0.219448,0.099773 -0.352081,0.1305186 l -0.02472,0.00301 H 0.96937123 l -0.01387,-0.00121 c -0.08048,-0.010249 -0.153432,-0.029239 -0.219749,-0.056668 -0.06843,-0.028334 -0.129016,-0.064807 -0.182371,-0.1094186 -0.05064,-0.0422 -0.09495,-0.090127 -0.132633,-0.1422742 -0.10068,-0.1386571 -0.154939,-0.3080597 -0.156145,-0.4768597 -0.0012,-0.1706081 0.05185,-0.3403131 0.166394,-0.4777641 0.03708,-0.04461 0.08079,-0.08561 0.130825,-0.121777 0.05818,-0.0422 0.124795,-0.07777 0.200155,-0.107007 0.05185,-0.0202 0.107312,-0.03708 0.165792,-0.05064 0.06632,-0.263448 0.20769097,-0.4663098 0.38945897,-0.6070767 0.170011,-0.13172389 0.374688,-0.20858789 0.585394,-0.22878389 0.209802,-0.0202 0.425632,0.01537 0.619457,0.108514 0.211309,0.10158099 0.395789,0.27068279 0.515461,0.50850959 z"
       id="path1975"
       style="stroke-width:0.0301434;fill:#eeeeee;fill-opacity:1" /></g></svg>
