<?xml version="1.0" encoding="UTF-8" standalone="no"?>
<!-- Created with Inkscape (http://www.inkscape.org/) -->

<svg
   width="16"
   height="16"
   viewBox="0 0 4.2333332 4.2333333"
   version="1.1"
   id="svg5"
   xml:space="preserve"
   sodipodi:docname="cloud.svg"
   inkscape:version="1.2 (dc2aedaf03, 2022-05-15)"
   xmlns:inkscape="http://www.inkscape.org/namespaces/inkscape"
   xmlns:sodipodi="http://sodipodi.sourceforge.net/DTD/sodipodi-0.dtd"
   xmlns="http://www.w3.org/2000/svg"
   xmlns:svg="http://www.w3.org/2000/svg"><sodipodi:namedview
     id="namedview7"
     pagecolor="#ffffff"
     bordercolor="#666666"
     borderopacity="1.0"
     inkscape:showpageshadow="2"
     inkscape:pageopacity="0.0"
     inkscape:pagecheckerboard="0"
     inkscape:deskcolor="#d1d1d1"
     inkscape:document-units="px"
     showgrid="false"
     inkscape:zoom="16.174267"
     inkscape:cx="20.340953"
     inkscape:cy="17.620582"
     inkscape:window-width="1918"
     inkscape:window-height="1060"
     inkscape:window-x="0"
     inkscape:window-y="0"
     inkscape:window-maximized="1"
     inkscape:current-layer="layer1"
     showguides="true"><sodipodi:guide
       position="3.7041666,0.078327936"
       orientation="-1,0"
       id="guide5356"
       inkscape:locked="false"
       inkscape:label=""
       inkscape:color="rgb(0,134,229)" /></sodipodi:namedview><defs
     id="defs2" /><g
     inkscape:label="Warstwa 1"
     inkscape:groupmode="layer"
     id="layer1"><path
       d="m 2.917577,1.8615764 c -0.01615,0.00796 -0.032514,0.016794 -0.048664,0.026052 -0.048443,0.028423 -0.096245,0.06309 -0.1451211,0.1029234 L 2.6195803,1.8712641 c 0.035957,-0.033373 0.074928,-0.06374 0.1162692,-0.09065 0.032943,-0.02153 0.067393,-0.040696 0.1029191,-0.057061 0.014214,-0.00707 0.028421,-0.013779 0.043064,-0.020022 C 2.8131472,1.5818741 2.7143194,1.4946692 2.602356,1.4408391 2.4903935,1.3872212 2.3650815,1.3665543 2.2429989,1.3783921 2.1217775,1.3900214 2.0040014,1.4341601 1.9066795,1.5097379 1.794071,1.5969423 1.7085913,1.7274266 1.6756485,1.9003289 l -0.010336,0.054047 -0.053829,0.00947 c -0.05275,0.00926 -0.099906,0.021966 -0.1412452,0.03811 -0.04005,0.015501 -0.075791,0.034666 -0.1070111,0.057275 -0.024979,0.018087 -0.046507,0.038331 -0.064807,0.06029 -0.056628,0.067826 -0.082896,0.1528774 -0.082249,0.2390055 6.429e-4,0.08742 0.029064,0.1757013 0.081603,0.2482642 0.019593,0.026916 0.0422,0.051677 0.068043,0.073209 0.026264,0.021747 0.055764,0.039834 0.088924,0.0534 0.032943,0.013565 0.069328,0.023255 0.109594,0.028853 h 1.5620982 c 0.076005,-0.018301 0.1431833,-0.043063 0.200241,-0.07493 C 3.3833024,2.6556696 3.429594,2.6171276 3.4642596,2.5708338 3.5180886,2.4991318 3.5445706,2.3977162 3.5456486,2.2937163 3.5469386,2.1845487 3.5202416,2.0749506 3.4683506,1.9952824 3.4534936,1.9722454 3.4371296,1.9515724 3.4199076,1.9330494 3.3421796,1.8492894 3.2435665,1.8126849 3.1410773,1.8120392 3.0672243,1.8113934 2.9903576,1.8292692 2.917582,1.8615642 Z M 3.039014,1.6617593 c 0.03445,-0.00536 0.0689,-0.00819 0.1031347,-0.00775 0.1446905,0.00107 0.2842131,0.052754 0.394023,0.1711793 0.023036,0.024766 0.044786,0.052754 0.065243,0.083975 0.0689,0.1059378 0.104212,0.247403 0.1027048,0.3858543 -0.0015,0.135867 -0.038107,0.2710883 -0.1130398,0.3705664 -0.048879,0.064811 -0.1115319,0.1177803 -0.1866761,0.1597677 -0.072346,0.04048 -0.1567483,0.071271 -0.251486,0.093233 l -0.017657,0.00215 H 1.5617517 l -0.00991,-8.639e-4 C 1.4943591,2.9125499 1.4422506,2.8989848 1.3948815,2.8793913 1.346003,2.8591514 1.3027275,2.8330975 1.2646169,2.80123 1.2284456,2.7710851 1.1967956,2.7368492 1.1698793,2.6995987 1.0979652,2.6005513 1.0592089,2.4795413 1.0583475,2.3589619 1.0574903,2.2370908 1.0953831,2.1158648 1.1772,2.017679 1.2036857,1.985813 1.2349069,1.956525 1.2706462,1.93069 1.3122032,1.900545 1.3597852,1.875136 1.4136136,1.854252 1.4506496,1.839822 1.4902646,1.827764 1.5320361,1.818079 1.5794071,1.6298885 1.6803864,1.4849777 1.8102203,1.3844231 1.9316566,1.2903284 2.077854,1.235422 2.2283581,1.2209953 c 0.1498584,-0.014429 0.3040224,0.010979 0.4424685,0.077515 0.1509349,0.072563 0.282706,0.1933577 0.368186,0.3632452 z"
       id="path1975"
       style="fill:#eeeeee;fill-opacity:1;stroke-width:0.0215318" /></g></svg>
