<?xml version="1.0" encoding="UTF-8" standalone="no"?>
<!-- Created with Inkscape (http://www.inkscape.org/) -->

<svg
   width="16"
   height="16"
   viewBox="0 0 4.2333332 4.2333333"
   version="1.1"
   id="svg1"
   xml:space="preserve"
   inkscape:version="1.3.2 (091e20ef0f, 2023-11-25, custom)"
   sodipodi:docname="idle-inhibitor-active.svg"
   xmlns:inkscape="http://www.inkscape.org/namespaces/inkscape"
   xmlns:sodipodi="http://sodipodi.sourceforge.net/DTD/sodipodi-0.dtd"
   xmlns="http://www.w3.org/2000/svg"
   xmlns:svg="http://www.w3.org/2000/svg"><sodipodi:namedview
     id="namedview1"
     pagecolor="#ffffff"
     bordercolor="#666666"
     borderopacity="1.0"
     inkscape:showpageshadow="2"
     inkscape:pageopacity="0.0"
     inkscape:pagecheckerboard="0"
     inkscape:deskcolor="#d1d1d1"
     inkscape:document-units="mm"
     showguides="true"
     inkscape:zoom="30.76563"
     inkscape:cx="14.090399"
     inkscape:cy="5.281868"
     inkscape:window-width="2552"
     inkscape:window-height="1372"
     inkscape:window-x="0"
     inkscape:window-y="0"
     inkscape:window-maximized="1"
     inkscape:current-layer="layer1"><sodipodi:guide
       position="2.1166666,5.04849"
       orientation="-1,0"
       id="guide1"
       inkscape:locked="false"
       inkscape:label=""
       inkscape:color="rgb(0,134,229)" /><sodipodi:guide
       position="-0.022031262,2.1166666"
       orientation="0,1"
       id="guide2"
       inkscape:locked="false"
       inkscape:label=""
       inkscape:color="rgb(0,134,229)" /></sodipodi:namedview><defs
     id="defs1" /><g
     inkscape:label="Warstwa 1"
     inkscape:groupmode="layer"
     id="layer1"><path
       id="path2-0"
       style="fill:#eeeeee;fill-opacity:1;stroke-width:0.350843;stroke-linecap:round;stroke-linejoin:round;stroke-miterlimit:2"
       d="M 2.4040434,2.7773506 A 0.28737655,0.28737655 0 0 1 2.1166667,3.064727 0.28737655,0.28737655 0 0 1 1.8292903,2.7773506 0.28737655,0.28737655 0 0 1 2.1166667,2.4899739 0.28737655,0.28737655 0 0 1 2.4040434,2.7773506 Z M 1.8917709,1.1691231 H 2.3415626 V 2.3176177 H 1.8917709 Z M 2.1166667,0.26458333 A 1.8520833,1.8522273 0 0 0 0.26458337,2.1166666 1.8520833,1.8522273 0 0 0 2.1166667,3.9692668 1.8520833,1.8522273 0 0 0 3.96875,2.1166666 1.8520833,1.8522273 0 0 0 2.1166667,0.26458333 Z m 0,0.4630209 A 1.3890625,1.3890625 0 0 1 3.5057292,2.1166666 1.3890625,1.3890625 0 0 1 2.1166667,3.5057292 1.3890625,1.3890625 0 0 1 0.72760417,2.1166666 1.3890625,1.3890625 0 0 1 2.1166667,0.72760423 Z" /></g></svg>
