<?xml version="1.0" encoding="UTF-8" standalone="no"?>
<svg
   xmlns:dc="http://purl.org/dc/elements/1.1/"
   xmlns:cc="http://creativecommons.org/ns#"
   xmlns:rdf="http://www.w3.org/1999/02/22-rdf-syntax-ns#"
   xmlns:svg="http://www.w3.org/2000/svg"
   xmlns="http://www.w3.org/2000/svg"
   xmlns:sodipodi="http://sodipodi.sourceforge.net/DTD/sodipodi-0.dtd"
   xmlns:inkscape="http://www.inkscape.org/namespaces/inkscape"
   width="16"
   height="16"
   viewBox="0 0 4.2333333 4.2333335"
   version="1.1"
   id="svg8"
   inkscape:version="1.0.1 (3bc2e813f5, 2020-09-07, custom)"
   sodipodi:docname="network-wired-symbolic.svg">
  <defs
     id="defs2" />
  <sodipodi:namedview
     id="base"
     pagecolor="#ffffff"
     bordercolor="#666666"
     borderopacity="1.0"
     inkscape:pageopacity="0.0"
     inkscape:pageshadow="2"
     inkscape:zoom="27.645215"
     inkscape:cx="9.7044538"
     inkscape:cy="11.140158"
     inkscape:document-units="mm"
     inkscape:current-layer="layer1"
     showgrid="false"
     units="px"
     inkscape:window-width="1920"
     inkscape:window-height="1030"
     inkscape:window-x="0"
     inkscape:window-y="0"
     inkscape:window-maximized="1"
     inkscape:document-rotation="0"
     inkscape:snap-global="false" />
  <metadata
     id="metadata5">
    <rdf:RDF>
      <cc:Work
         rdf:about="">
        <dc:format>image/svg+xml</dc:format>
        <dc:type
           rdf:resource="http://purl.org/dc/dcmitype/StillImage" />
        <dc:title></dc:title>
      </cc:Work>
    </rdf:RDF>
  </metadata>
  <g
     inkscape:label="Layer 1"
     inkscape:groupmode="layer"
     id="layer1"
     transform="translate(0,-280.06665)">
    <path
       style="opacity:1;fill:#dfdfdf;fill-opacity:1;stroke:none;stroke-width:0.328;stroke-linecap:square;stroke-linejoin:miter;stroke-miterlimit:4;stroke-dasharray:none;paint-order:markers stroke fill"
       d="m 2.1163135,280.33111 c -0.1084576,0 -0.2355829,0.11841 -0.337631,0.36544 -0.023848,0.0577 -0.045807,0.12161 -0.065446,0.19034 h 0.8062679 c -0.019639,-0.0687 -0.041597,-0.13261 -0.065446,-0.19034 -0.1020471,-0.24703 -0.2292864,-0.36544 -0.3377449,-0.36544 z m -0.20459,0.002 a 1.3740643,1.3740643 0 0 0 -0.9087899,0.55409 h 0.5196155 c 0.019929,-0.0581 0.041957,-0.1133 0.066125,-0.16492 0.081165,-0.17333 0.1897871,-0.3157 0.3230494,-0.38917 z m 0.4105369,6.6e-4 c 0.1327049,0.0737 0.2409085,0.21561 0.321807,0.38838 0.024168,0.0516 0.046197,0.10681 0.066125,0.16491 H 3.228112 a 1.3740643,1.3740643 0 0 0 -0.9058516,-0.55329 z m -1.44942795,0.77564 a 1.3740643,1.3740643 0 0 0 -0.12490246,0.47925 H 1.4014893 c 0.0058,-0.16977 0.026148,-0.33118 0.059006,-0.47925 z m 0.78863415,0 c -0.027438,0.14709 -0.045087,0.30884 -0.050297,0.47925 h 1.0105189 c -0.0052,-0.17041 -0.022968,-0.33216 -0.050417,-0.47925 z m 1.11078,0 c 0.032858,0.14807 0.053166,0.30948 0.059006,0.47925 H 3.4851508 A 1.3740643,1.3740643 0 0 0 3.3588925,281.10941 Z M 0.74849496,281.811 a 1.3740643,1.3740643 0 0 0 0.13428381,0.47915 H 1.464563 C 1.430495,282.14239 1.409077,281.98109 1.402167,281.811 Z m 0.86301104,0 c 0.0058,0.17065 0.024148,0.33232 0.052216,0.47915 h 0.9052851 c 0.028078,-0.14683 0.046397,-0.3085 0.052216,-0.47915 z m 1.2190666,0 c -0.0069,0.17009 -0.028318,0.33139 -0.062396,0.47915 H 3.350525 A 1.3740643,1.3740643 0 0 0 3.483566,281.811 Z m -1.8119271,0.70149 a 1.3740643,1.3740643 0 0 0 0.891721,0.53487 c -0.1326439,-0.0737 -0.2408035,-0.21552 -0.321693,-0.38827 -0.021618,-0.0462 -0.041557,-0.0952 -0.059796,-0.1466 z m 0.6982083,0 c 0.018729,0.0641 0.039387,0.12392 0.061826,0.17825 0.067006,0.1622 0.1447342,0.26786 0.2209809,0.32204 v 0.44094 A 0.30267197,0.30267197 0 0 0 1.8374565,283.6157 H 0.26459906 v 0.23386 H 1.8376865 a 0.30267197,0.30267197 0 0 0 0.2788529,0.18572 0.30267197,0.30267197 0 0 0 0.27908,-0.18572 H 3.9684808 V 283.6157 H 2.3953934 a 0.30267197,0.30267197 0 0 0 -0.161977,-0.16221 v -0.44105 c 0.076145,-0.0543 0.1537765,-0.15984 0.220641,-0.3217 0.022438,-0.0543 0.043097,-0.11414 0.061826,-0.17825 z m 0.9870075,0 c -0.018249,0.0514 -0.038167,0.10042 -0.059796,0.1466 -0.081174,0.17335 -0.1898481,0.31559 -0.3231629,0.38906 a 1.3740643,1.3740643 0 0 0 0.8942078,-0.53566 z"
       id="path4550" />
  </g>
</svg>
