<?xml version="1.0" encoding="UTF-8" standalone="no"?>
<svg
   width="16"
   height="16"
   version="1.1"
   id="svg1"
   sodipodi:docname="nwg-clipman.svg"
   inkscape:version="1.3.2 (091e20ef0f, 2023-11-25, custom)"
   xmlns:inkscape="http://www.inkscape.org/namespaces/inkscape"
   xmlns:sodipodi="http://sodipodi.sourceforge.net/DTD/sodipodi-0.dtd"
   xmlns="http://www.w3.org/2000/svg"
   xmlns:svg="http://www.w3.org/2000/svg">
  <sodipodi:namedview
     id="namedview1"
     pagecolor="#ffffff"
     bordercolor="#666666"
     borderopacity="1.0"
     inkscape:showpageshadow="2"
     inkscape:pageopacity="0.0"
     inkscape:pagecheckerboard="0"
     inkscape:deskcolor="#d1d1d1"
     inkscape:zoom="37.532762"
     inkscape:cx="8.9521789"
     inkscape:cy="7.5267575"
     inkscape:window-width="2552"
     inkscape:window-height="1372"
     inkscape:window-x="0"
     inkscape:window-y="0"
     inkscape:window-maximized="1"
     inkscape:current-layer="svg1"
     showgrid="false"
     showguides="true" />
  <defs
     id="defs1">
    <style
       id="current-color-scheme"
       type="text/css">
   .ColorScheme-Text { color:#dfdfdf; } .ColorScheme-Highlight { color:#4285f4; } .ColorScheme-NeutralText { color:#ff9800; } .ColorScheme-PositiveText { color:#4caf50; } .ColorScheme-NegativeText { color:#f44336; }
  </style>
  </defs>
  <g
     id="g2"
     transform="matrix(0.89246694,0,0,0.89246694,-2.678132,-2.7044781)"
     style="fill:#eeeeee;fill-opacity:1">
    <path
       style="color:#dfdfdf;fill:#eeeeee;fill-opacity:1"
       class="ColorScheme-Text"
       d="M 17.687,5.1689 17.265,4.8148 C 16.6378,4.2891 15.8478,3.9996 15.0405,3.9996 c -1.0767,0 -2.0813,0.4954 -2.7561,1.3591 L 5.7893,13.6716 C 5.19424,14.433 4.92181,15.389 5.021,16.3633 c 0.09919,0.9742 0.55813,1.8502 1.29351,2.4666 l 0.42245,0.3541 c 0.6271,0.527 1.417,0.816 2.2242,0.816 0.12463,0 0.2507,-0.01 0.37471,-0.02 0.93498,-0.1021 1.7769,-0.5726 2.3681,-1.322 0.002,0 0.0031,0 4.3821,-5.6076 0.77987,-0.9983 0.63022,-2.4677 -0.33351,-3.2755 l -0.221,-0.185 c -0.399,-0.3338 -0.9,-0.5176 -1.413,-0.5176 -0.68362,0 -1.3214,0.3146 -1.75,0.863 l -4.3736,5.5976 c -0.28578,0.3659 -0.23097,0.9044 0.12227,1.2004 0.14618,0.1225 0.33012,0.19 0.51791,0.19 0.25017,0 0.48383,-0.1153 0.64114,-0.3166 l 4.3733,-5.598 c 0.11441,-0.1464 0.28483,-0.2303 0.46749,-0.2303 0.13882,0 0.26915,0.048 0.37695,0.1381 l 0.22146,0.1857 c 0.12442,0.1042 0.20218,0.2527 0.21902,0.4182 0.01679,0.1654 -0.02933,0.3275 -0.13005,0.4562 l -4.3687,5.5915 c -0.36073,0.4614 -0.89771,0.726 -1.4733,0.726 -0.4315,0 -0.85374,-0.1547 -1.189,-0.4357 L 7.351,17.5044 c -0.3918,-0.328 -0.6376,-0.796 -0.6905,-1.317 -0.0531,-0.521 0.0929,-1.032 0.411,-1.439 l 6.4959,-8.3131 c 0.36073,-0.4617 0.89788,-0.7265 1.4737,-0.7265 0.43155,0 0.85383,0.1547 1.189,0.4357 l 0.4224,0.354 c 0.81151,0.6802 0.93746,1.9173 0.28082,2.7577 -0.13848,0.1773 -0.20202,0.3997 -0.17894,0.6264 0.02312,0.2267 0.13009,0.4306 0.30113,0.574 0.14622,0.1225 0.33016,0.19 0.51796,0.19 0.25017,0 0.48379,-0.1154 0.64105,-0.3166 C 18.80871,9.5696 19.08125,8.6136 18.981125,7.6369 18.881,6.6602 18.422,5.7841 17.687,5.1689 Z"
       id="path1-9" />
  </g>
</svg>
