<?xml version="1.0" encoding="UTF-8" standalone="no"?>
<!-- Created with Inkscape (http://www.inkscape.org/) -->

<svg
   width="16"
   height="16"
   viewBox="0 0 4.2333333 4.2333333"
   version="1.1"
   id="svg8"
   inkscape:version="1.2 (dc2aedaf03, 2022-05-15)"
   sodipodi:docname="ow-10d.svg"
   xmlns:inkscape="http://www.inkscape.org/namespaces/inkscape"
   xmlns:sodipodi="http://sodipodi.sourceforge.net/DTD/sodipodi-0.dtd"
   xmlns="http://www.w3.org/2000/svg"
   xmlns:svg="http://www.w3.org/2000/svg"
   xmlns:rdf="http://www.w3.org/1999/02/22-rdf-syntax-ns#"
   xmlns:cc="http://creativecommons.org/ns#"
   xmlns:dc="http://purl.org/dc/elements/1.1/">
  <defs
     id="defs2" />
  <sodipodi:namedview
     id="base"
     pagecolor="#ffffff"
     bordercolor="#666666"
     borderopacity="1.0"
     inkscape:pageopacity="0.0"
     inkscape:pageshadow="2"
     inkscape:zoom="40.347826"
     inkscape:cx="8.315194"
     inkscape:cy="8.7241379"
     inkscape:document-units="px"
     inkscape:current-layer="layer1"
     showgrid="false"
     units="px"
     inkscape:window-width="1918"
     inkscape:window-height="1060"
     inkscape:window-x="0"
     inkscape:window-y="0"
     inkscape:window-maximized="1"
     inkscape:showpageshadow="2"
     inkscape:pagecheckerboard="0"
     inkscape:deskcolor="#d1d1d1" />
  <metadata
     id="metadata5">
    <rdf:RDF>
      <cc:Work
         rdf:about="">
        <dc:format>image/svg+xml</dc:format>
        <dc:type
           rdf:resource="http://purl.org/dc/dcmitype/StillImage" />
      </cc:Work>
    </rdf:RDF>
  </metadata>
  <g
     inkscape:label="Layer 1"
     inkscape:groupmode="layer"
     id="layer1"
     transform="translate(0,-284.29998)">
    <path
       id="path4519"
       style="color:#000000;font-style:normal;font-variant:normal;font-weight:normal;font-stretch:normal;font-size:medium;line-height:normal;font-family:sans-serif;font-variant-ligatures:normal;font-variant-position:normal;font-variant-caps:normal;font-variant-numeric:normal;font-variant-alternates:normal;font-feature-settings:normal;text-indent:0;text-align:start;text-decoration:none;text-decoration-line:none;text-decoration-style:solid;text-decoration-color:#000000;letter-spacing:normal;word-spacing:normal;text-transform:none;writing-mode:lr-tb;direction:ltr;text-orientation:mixed;dominant-baseline:auto;baseline-shift:baseline;text-anchor:start;white-space:normal;shape-padding:0;clip-rule:nonzero;display:inline;overflow:visible;visibility:visible;isolation:auto;mix-blend-mode:normal;color-interpolation:sRGB;color-interpolation-filters:linearRGB;solid-color:#000000;solid-opacity:1;vector-effect:none;fill:#eeeeee;fill-opacity:1;fill-rule:nonzero;stroke:none;stroke-width:0.219578;stroke-linecap:round;stroke-linejoin:round;stroke-miterlimit:4;stroke-dasharray:none;stroke-dashoffset:0;stroke-opacity:1;paint-order:markers stroke fill;color-rendering:auto;image-rendering:auto;shape-rendering:auto;text-rendering:auto;enable-background:accumulate"
       d="m 2.6455351,284.56456 c -0.04649,5.9e-4 -0.083619,0.0389 -0.083109,0.0854 v 0.28371 c -0.1320317,0.0159 -0.2529475,0.0682 -0.3526486,0.14676 l -0.2009102,-0.20121 c -0.01598,-0.0163 -0.037806,-0.0254 -0.060635,-0.0253 -0.075435,2.9e-4 -0.112527,0.092 -0.058674,0.14479 l 0.2007594,0.20121 c -0.07854,0.0997 -0.1309075,0.22072 -0.146761,0.35278 h -0.00769 C 1.8507487,285.5171 1.758527,285.4972 1.661199,285.497 a 0.1295308,0.1295264 0 0 0 -6.042e-4,0 c -0.3710216,2.5e-4 -0.67041623,0.26711 -0.75884333,0.6208 -0.25531148,0.14046 -0.42516194,0.40056 -0.42550147,0.69457 2.2988e-4,0.42333 0.33149664,0.77408 0.7505477,0.80225 l -0.2906562,0.50347 a 0.10228202,0.10227854 0 0 0 0.1772295,0.10196 l 0.3476711,-0.60196 0.1778326,0.002 -0.2876394,0.49834 a 0.10228202,0.10227854 0 0 0 0.1772294,0.10196 l 0.3454086,-0.59803 0.1971393,0.002 -0.2853769,0.49426 a 0.10228202,0.10227854 0 0 0 0.1772293,0.10196 l 0.3431461,-0.59411 0.2162953,0.002 -0.2829637,0.4902 a 0.10228202,0.10227854 0 0 0 0.1772294,0.10196 l 0.3407327,-0.5899 0.3113203,0.003 a 0.1295308,0.1295264 0 0 0 0.00106,0 c 0.3574972,3e-5 0.650118,-0.29258 0.6500923,-0.65007 1.75e-5,-0.24553 -0.1379854,-0.46049 -0.3402802,-0.57103 0.053865,-0.0243 0.066787,-0.0949 0.025038,-0.13665 l -0.2012119,-0.20106 c 0.078527,-0.0997 0.1310728,-0.22057 0.1469117,-0.35263 h 0.2835669 c 0.1142187,0.002 0.1142187,-0.17057 0,-0.16893 H 3.3502281 c -0.015846,-0.13206 -0.068374,-0.25307 -0.1469117,-0.35279 l 0.2012119,-0.2012 c 0.054819,-0.0537 0.015485,-0.14686 -0.061238,-0.1448 -0.021912,5.8e-4 -0.042735,0.01 -0.058071,0.0253 l -0.201212,0.20121 c -0.099692,-0.0787 -0.2206194,-0.13107 -0.3526476,-0.14692 v -0.28371 c 5.196e-4,-0.0475 -0.038302,-0.0861 -0.085824,-0.0854 z m 0.00136,0.58295 c 0.2715401,0 0.4894546,0.21798 0.4894546,0.48959 0,0.18209 -0.098256,0.33956 -0.2446519,0.42383 -0.099699,-0.12406 -0.2441974,-0.20529 -0.4179595,-0.20528 a 0.1295308,0.1295264 0 0 0 -6.042e-4,0 c -0.052248,1.8e-4 -0.1011485,0.0198 -0.151286,0.0335 -0.045113,-0.0715 -0.099012,-0.13632 -0.1601851,-0.1917 -0.00243,-0.0198 -0.00407,-0.0399 -0.00407,-0.0603 0,-0.27161 0.2177638,-0.48959 0.4893037,-0.48959 z m -0.9863,0.6086 h 6.042e-4 c 0.2159574,5.8e-4 0.4105682,0.12757 0.4977504,0.32518 a 0.1295308,0.1295264 0 0 0 0.1736093,0.0649 c 0.044204,-0.0206 0.092261,-0.0311 0.1410293,-0.0314 0.1877875,-2e-5 0.3373153,0.14924 0.3375653,0.33695 v 5.8e-4 c -1.41e-4,0.006 -6.072e-4,0.0118 -0.00106,0.0177 a 0.1295308,0.1295264 0 0 0 0.1624477,0.13514 c 0.031852,-0.008 0.064632,-0.0131 0.097589,-0.0133 0.2174897,-10e-6 0.3906744,0.17362 0.3906587,0.3911 1.57e-5,0.21749 -0.1731699,0.39112 -0.3906587,0.3911 l -0.1641068,-10e-4 0.1791901,-0.31025 a 0.10216841,0.10216494 0 0 0 -0.087634,-0.15506 0.10216841,0.10216494 0 0 0 -0.0098,5.9e-4 0.10216841,0.10216494 0 0 0 -0.079791,0.0519 l -0.2369594,0.41056 -0.2162951,-0.002 0.1767768,-0.30603 a 0.10216841,0.10216494 0 0 0 -0.087634,-0.15505 0.10216841,0.10216494 0 0 0 -0.0098,5.8e-4 0.10216841,0.10216494 0 0 0 -0.079791,0.0519 l -0.234546,0.40648 -0.1971393,-0.002 0.1745143,-0.30211 a 0.10216841,0.10216494 0 0 0 -0.087634,-0.15505 0.10216841,0.10216494 0 0 0 -0.0098,5.8e-4 0.10216841,0.10216494 0 0 0 -0.079791,0.0519 l -0.2322835,0.40241 -0.1778327,-0.002 0.1722518,-0.29819 a 0.10216841,0.10216494 0 0 0 -0.087634,-0.15505 0.10216841,0.10216494 0 0 0 -0.0098,5.8e-4 0.10216841,0.10216494 0 0 0 -0.079791,0.0519 l -0.2300211,0.39864 -0.1098067,-0.001 c -0.29621926,-0.009 -0.52956666,-0.24846 -0.52972746,-0.54479 2.4433e-4,-0.21158 0.12219736,-0.40286 0.31373396,-0.49276 a 0.1295308,0.1295264 0 0 0 0.073306,-0.0982 c 0.039782,-0.26791 0.2675848,-0.465 0.5383246,-0.46546 z m 1.4234153,0.4377 0.1647101,0.1644 c -0.056948,-0.0164 -0.1169939,-0.0255 -0.1790392,-0.0255 a 0.1295308,0.1295264 0 0 0 -6.042e-4,0 c -0.015553,6e-5 -0.03052,0.005 -0.046005,0.006 -0.00662,-0.0298 -0.015147,-0.059 -0.02534,-0.0873 0.030115,-0.0173 0.059113,-0.0364 0.086277,-0.0578 z m 0.2730086,0.20649 c 0.00738,0.004 0.014652,0.007 0.021871,0.0113 -0.00718,-0.004 -0.01453,-0.008 -0.021871,-0.0113 z" />
    <path
       d="m -18.322396,293.07694 c -1.022658,0 -1.852083,0.82927 -1.852083,1.85208 0,0.81831 0.530622,1.51254 1.266671,1.75748 0.09245,0.0172 0.122392,-0.0403 0.122392,-0.0891 v -0.3448 c -0.515188,0.11205 -0.622454,-0.21854 -0.622454,-0.21854 -0.08427,-0.21407 -0.205736,-0.27103 -0.205736,-0.27103 -0.168077,-0.11497 0.01281,-0.1125 0.01281,-0.1125 0.18598,0.0129 0.283832,0.19092 0.283832,0.19092 0.165144,0.28305 0.433233,0.20125 0.538957,0.15387 0.01651,-0.11962 0.06451,-0.20141 0.117607,-0.24756 -0.411317,-0.0471 -0.843779,-0.20589 -0.843779,-0.91539 0,-0.20235 0.07239,-0.36748 0.190765,-0.49714 -0.01914,-0.0468 -0.08257,-0.23521 0.01806,-0.49018 0,0 0.155575,-0.0497 0.509477,0.18985 0.147704,-0.041 0.306057,-0.0616 0.463484,-0.0624 0.157427,6.2e-4 0.315935,0.0213 0.463947,0.0624 0.353594,-0.23955 0.50886,-0.18985 0.50886,-0.18985 0.100785,0.25513 0.03735,0.44358 0.01821,0.49018 0.118842,0.12966 0.19061,0.29495 0.19061,0.49714 0,0.71136 -0.433233,0.868 -0.84563,0.91385 0.06637,0.0574 0.127022,0.17008 0.127022,0.34294 v 0.50824 c 0,0.0493 0.02963,0.10712 0.123627,0.0889 0.735431,-0.24524 1.265436,-0.93931 1.265436,-1.75732 0,-1.02282 -0.829271,-1.85209 -1.852084,-1.85209 z"
       id="path839"
       style="fill:#eeeeee;fill-opacity:1;stroke-width:0.15434" />
  </g>
</svg>
