<?xml version="1.0" encoding="UTF-8" standalone="no"?>
<!-- Created with Inkscape (http://www.inkscape.org/) -->

<svg
   width="16"
   height="16"
   viewBox="0 0 4.2333333 4.2333333"
   version="1.1"
   id="svg8"
   inkscape:version="1.2 (dc2aedaf03, 2022-05-15)"
   sodipodi:docname="ow-10n.svg"
   xmlns:inkscape="http://www.inkscape.org/namespaces/inkscape"
   xmlns:sodipodi="http://sodipodi.sourceforge.net/DTD/sodipodi-0.dtd"
   xmlns="http://www.w3.org/2000/svg"
   xmlns:svg="http://www.w3.org/2000/svg"
   xmlns:rdf="http://www.w3.org/1999/02/22-rdf-syntax-ns#"
   xmlns:cc="http://creativecommons.org/ns#"
   xmlns:dc="http://purl.org/dc/elements/1.1/">
  <defs
     id="defs2" />
  <sodipodi:namedview
     id="base"
     pagecolor="#ffffff"
     bordercolor="#666666"
     borderopacity="1.0"
     inkscape:pageopacity="0.0"
     inkscape:pageshadow="2"
     inkscape:zoom="36.129105"
     inkscape:cx="8.2343584"
     inkscape:cy="8.1790013"
     inkscape:document-units="mm"
     inkscape:current-layer="layer1"
     showgrid="false"
     units="px"
     inkscape:window-width="1918"
     inkscape:window-height="1018"
     inkscape:window-x="0"
     inkscape:window-y="0"
     inkscape:window-maximized="1"
     inkscape:showpageshadow="2"
     inkscape:pagecheckerboard="0"
     inkscape:deskcolor="#d1d1d1" />
  <metadata
     id="metadata5">
    <rdf:RDF>
      <cc:Work
         rdf:about="">
        <dc:format>image/svg+xml</dc:format>
        <dc:type
           rdf:resource="http://purl.org/dc/dcmitype/StillImage" />
      </cc:Work>
    </rdf:RDF>
  </metadata>
  <g
     inkscape:label="Layer 1"
     inkscape:groupmode="layer"
     id="layer1"
     transform="translate(0,-284.29998)">
    <path
       id="path822"
       style="color:#000000;font-style:normal;font-variant:normal;font-weight:normal;font-stretch:normal;font-size:medium;line-height:normal;font-family:sans-serif;font-variant-ligatures:normal;font-variant-position:normal;font-variant-caps:normal;font-variant-numeric:normal;font-variant-alternates:normal;font-feature-settings:normal;text-indent:0;text-align:start;text-decoration:none;text-decoration-line:none;text-decoration-style:solid;text-decoration-color:#000000;letter-spacing:normal;word-spacing:normal;text-transform:none;writing-mode:lr-tb;direction:ltr;text-orientation:mixed;dominant-baseline:auto;baseline-shift:baseline;text-anchor:start;white-space:normal;shape-padding:0;clip-rule:nonzero;display:inline;overflow:visible;visibility:visible;isolation:auto;mix-blend-mode:normal;color-interpolation:sRGB;color-interpolation-filters:linearRGB;solid-color:#000000;solid-opacity:1;fill:#eeeeee;fill-opacity:1;fill-rule:nonzero;stroke:none;stroke-width:0.258618;stroke-linecap:round;stroke-linejoin:round;stroke-miterlimit:4;stroke-dasharray:none;stroke-dashoffset:0;stroke-opacity:1;paint-order:markers stroke fill;color-rendering:auto;image-rendering:auto;shape-rendering:auto;text-rendering:auto;enable-background:accumulate"
       d="m 2.8496119,284.56501 c -0.4912926,0.018 -0.8835008,0.41723 -0.883797,0.90311 2.1e-6,0.0594 0.00596,0.11745 0.017167,0.17362 -0.091282,-0.0419 -0.1912283,-0.0655 -0.2972594,-0.0657 a 0.12931941,0.1293236 0 0 0 -6.023e-4,0 v 1.5e-4 c -0.3704156,2.6e-4 -0.6693222,0.26655 -0.7576048,0.61969 -0.2548946,0.14024 -0.42446809,0.40009 -0.42480707,0.69363 2.2622e-4,0.41662 0.32154633,0.76259 0.73140287,0.79935 l -0.24470444,0.42407 a 0.1021151,0.10211841 0 1 0 0.17694024,0.10179 l 0.3008734,-0.52105 0.177693,0.002 -0.2410902,0.4176 a 0.1021151,0.10211841 0 0 0 0.17694,0.1018 l 0.2986146,-0.51713 0.1968177,0.002 -0.2386809,0.41353 a 0.1021151,0.10211841 0 0 0 0.1769401,0.1018 l 0.2963558,-0.51322 0.2159421,0.002 -0.2362714,0.40946 a 0.1021151,0.10211841 0 0 0 0.1769401,0.1018 l 0.2939464,-0.509 0.3294851,0.003 a 0.12931941,0.1293236 0 0 0 0.00106,0 c 0.3569135,2e-5 0.649057,-0.29212 0.6490314,-0.64905 2.56e-5,-0.35692 -0.2921188,-0.64908 -0.6490314,-0.64905 a 0.12931941,0.1293236 0 0 0 -6.024e-4,0 c -0.015528,6e-5 -0.03047,0.005 -0.04593,0.006 -0.00422,-0.0191 -0.00936,-0.0379 -0.015058,-0.0563 0.2646349,-0.0425 0.500387,-0.19783 0.6404479,-0.42933 a 0.08953846,0.08954136 0 0 0 -0.1064654,-0.13072 c -0.070595,0.0251 -0.1451777,0.038 -0.2203092,0.0383 -0.3616518,-10e-6 -0.6514896,-0.28581 -0.6515912,-0.63911 v -1.5e-4 c 3.642e-4,-0.18231 0.079748,-0.35593 0.2191045,-0.47722 A 0.08953846,0.08954136 0 0 0 2.849617,284.5656 Z m -0.2192551,0.22544 c -0.07295,0.12336 -0.1167524,0.26266 -0.1170064,0.40856 a 0.08953846,0.08954136 0 0 0 0,1.4e-4 c 8.7e-6,0.45177 0.3737561,0.81845 0.8306396,0.81847 a 0.08953846,0.08954136 0 0 0 1.505e-4,0 c 0.00478,-1e-5 0.00953,-8.7e-4 0.014306,-0.002 -0.1145826,0.0957 -0.2554128,0.15868 -0.40764,0.17334 -0.098966,-0.15193 -0.2577949,-0.25528 -0.4538702,-0.25526 a 0.12931941,0.1293236 0 0 0 -6.023e-4,0 c -0.051525,1.8e-4 -0.099818,0.0191 -0.149232,0.0327 -0.00226,-0.003 -0.00455,-0.004 -0.00678,-0.007 -0.027277,-0.0423 -0.057628,-0.0824 -0.090804,-0.11927 -0.066426,-0.10885 -0.1046371,-0.23621 -0.1046582,-0.37256 v -1.5e-4 c 2.294e-4,-0.31182 0.2016283,-0.57585 0.4854935,-0.67767 z m 0.4442325,0.0475 a 0.13994379,0.13994833 0 0 0 -0.1398956,0.13989 0.13994379,0.13994833 0 0 0 0.1398956,0.13991 0.13994379,0.13994833 0 0 0 0.1400462,-0.13991 0.13994379,0.13994833 0 0 0 -0.1400462,-0.13989 z m 0.2891275,0.38943 a 0.20355458,0.20356118 0 0 0 -0.2034433,0.2036 0.20355458,0.20356118 0 0 0 0.2034433,0.2036 0.20355458,0.20356118 0 0 0 0.2035942,-0.2036 0.20355458,0.20356118 0 0 0 -0.2035942,-0.2036 z m -1.6785966,0.60749 h 6.023e-4 c 0.2156049,5.8e-4 0.4098983,0.12753 0.4969382,0.32483 a 0.12931941,0.1293236 0 0 0 0.173326,0.0646 c 0.044132,-0.0206 0.09211,-0.0311 0.1407991,-0.0313 0.1874807,-2e-5 0.3367647,0.149 0.3370144,0.33642 v 6e-4 c -1.408e-4,0.006 -6.053e-4,0.0118 -0.00106,0.0177 a 0.12931941,0.1293236 0 0 0 0.1621826,0.13493 c 0.0318,-0.009 0.064527,-0.0129 0.09743,-0.0131 0.2171346,-2e-5 0.3900369,0.1732 0.3900212,0.39034 1.57e-5,0.21714 -0.1728875,0.39051 -0.3900212,0.39048 l -0.1825119,-0.002 0.2251281,-0.38973 a 0.10200167,0.10200498 0 0 0 -0.087491,-0.15482 0.10200167,0.10200498 0 0 0 -0.00979,6.1e-4 0.10200167,0.10200498 0 0 0 -0.07966,0.0518 l -0.2828031,0.49003 -0.2159421,-0.002 0.2227186,-0.38551 a 0.10200167,0.10200498 0 0 0 -0.087491,-0.15481 0.10200167,0.10200498 0 0 0 -0.00979,6e-4 0.10200167,0.10200498 0 0 0 -0.079662,0.0518 l -0.2803936,0.48581 -0.1966669,-0.002 0.2203092,-0.38161 a 0.10200167,0.10200498 0 0 0 -0.087491,-0.15481 0.10200167,0.10200498 0 0 0 -0.00979,6.1e-4 0.10200167,0.10200498 0 0 0 -0.07966,0.0518 l -0.2781348,0.48189 -0.1775424,-0.002 0.218201,-0.37784 a 0.10200167,0.10200498 0 0 0 -0.087491,-0.15481 0.10200167,0.10200498 0 0 0 -0.00979,6.1e-4 0.10200167,0.10200498 0 0 0 -0.07966,0.0518 l -0.2758759,0.47813 -0.090955,-8.7e-4 c -0.29573544,-0.009 -0.52870224,-0.24823 -0.52886294,-0.54409 2.44e-4,-0.21125 0.12199807,-0.40223 0.31322194,-0.49199 a 0.12931941,0.1293236 0 0 0 0.073186,-0.098 c 0.039717,-0.26749 0.2671483,-0.46427 0.537446,-0.46472 z" />
  </g>
</svg>
