<?xml version="1.0" encoding="UTF-8" standalone="no"?>
<!-- Created with Inkscape (http://www.inkscape.org/) -->

<svg
   width="16"
   height="16"
   viewBox="0 0 4.2333332 4.2333333"
   version="1.1"
   id="svg5"
   xml:space="preserve"
   sodipodi:docname="pressure.svg"
   inkscape:version="1.2 (dc2aedaf03, 2022-05-15)"
   xmlns:inkscape="http://www.inkscape.org/namespaces/inkscape"
   xmlns:sodipodi="http://sodipodi.sourceforge.net/DTD/sodipodi-0.dtd"
   xmlns="http://www.w3.org/2000/svg"
   xmlns:svg="http://www.w3.org/2000/svg"><sodipodi:namedview
     id="namedview7"
     pagecolor="#ffffff"
     bordercolor="#666666"
     borderopacity="1.0"
     inkscape:showpageshadow="2"
     inkscape:pageopacity="0.0"
     inkscape:pagecheckerboard="0"
     inkscape:deskcolor="#d1d1d1"
     inkscape:document-units="px"
     showgrid="false"
     inkscape:zoom="13.007231"
     inkscape:cx="11.301406"
     inkscape:cy="12.531491"
     inkscape:window-width="1918"
     inkscape:window-height="1060"
     inkscape:window-x="0"
     inkscape:window-y="0"
     inkscape:window-maximized="1"
     inkscape:current-layer="layer1" /><defs
     id="defs2" /><g
     inkscape:label="Warstwa 1"
     inkscape:groupmode="layer"
     id="layer1"><path
       id="path337"
       style="fill:#eeeeee;fill-opacity:1;stroke-width:0.00912355"
       d="m 1.7061083,3.9308127 c -0.434194,-0.0245 -0.87229597,-0.09063 -1.24080497,-0.187282 -0.08781,-0.02303 -0.1689,-0.04394 -0.18019,-0.04646 -0.0202,-0.0045 -0.02053,-0.0068 -0.02053,-0.144929 0,-0.07719 0.0021,-0.140352 0.0048,-0.140352 0.0026,0 0.05292,0.01415 0.111764,0.03145 0.297849,0.08756 0.597301,0.146381 0.95091997,0.186784 0.270346,0.03089 0.457199,0.04054 0.784626,0.04054 0.327427,0 0.514281,-0.0097 0.784627,-0.04054 0.353618,-0.0404 0.65307,-0.09922 0.95092,-0.186784 0.05884,-0.0173 0.109139,-0.03145 0.111764,-0.03145 0.0026,0 0.0048,0.06316 0.0048,0.140352 0,0.138111 -3.28e-4,0.140424 -0.02053,0.144929 -0.01129,0.0025 -0.09238,0.02342 -0.180191,0.04646 -0.379345,0.0995 -0.801886,0.162222 -1.268175,0.188252 -0.185241,0.01034 -0.602334,0.0098 -0.79375,-9.7e-4 z m 0.03193,-0.519613 c -0.4605,-0.02341 -0.89954097,-0.08958 -1.31151197,-0.197689 l -0.161943,-0.0425 v -0.139633 c 0,-0.0768 0.0024,-0.139632 0.0053,-0.139632 0.0029,0 0.06346,0.01683 0.134573,0.03739 0.36571,0.105755 0.78839397,0.176334 1.25605997,0.209733 0.194704,0.0139 0.719254,0.01394 0.912356,6.5e-5 0.469161,-0.03371 0.890527,-0.104095 1.256061,-0.2098 0.07111,-0.02056 0.131673,-0.03739 0.134572,-0.03739 0.0029,0 0.0053,0.06283 0.0053,0.139632 v 0.139633 l -0.161944,0.04245 c -0.630109,0.165166 -1.352001,0.234165 -2.068768,0.197733 z m 0.10036,-0.51578 c -0.571895,-0.02932 -1.02508797,-0.09619 -1.45977097,-0.215415 l -0.109482,-0.03003 -0.0025,-0.139135 c -0.0014,-0.07652 9.73e-4,-0.139134 0.0052,-0.139134 0.0043,0 0.04235,0.01041 0.08463,0.02314 0.378633,0.113968 0.84136797,0.192438 1.31768197,0.223451 0.196236,0.01278 0.693724,0.01283 0.884985,9.6e-5 0.484188,-0.03224 0.937758,-0.109188 1.317682,-0.223545 0.04228,-0.01273 0.08037,-0.02314 0.08463,-0.02314 0.0043,0 0.0066,0.06261 0.0052,0.139134 l -0.0025,0.139134 -0.109483,0.03003 c -0.365518,0.100253 -0.78747,0.169734 -1.231681,0.202816 -0.13128,0.0098 -0.670707,0.01844 -0.784626,0.0126 z m 0.0046,-0.662389 -0.265444,-0.2572841 0.09615,-0.09615 0.09615,-0.09615 0.104969,0.104671 0.104969,0.104671 V 1.3018276 0.61086666 h 0.136853 0.136854 v 0.69096094 0.690961 l 0.104969,-0.104671 0.104969,-0.104671 0.09619,0.09619 0.09619,0.09619 -0.266049,0.2572431 c -0.146327,0.141484 -0.26949,0.257243 -0.273695,0.257243 -0.0042,0 -0.127095,-0.115777 -0.27309,-0.257283 z m -1.07351997,-0.3109491 -0.266033,-0.25745 0.09422,-0.095 0.09422,-0.095 0.103387,0.09779 0.103387,0.09779 0.0046,-0.68706194 0.0046,-0.687061 0.13451497,-0.0025 0.134515,-0.0025 0.0023,0.689585 0.0023,0.68958494 0.103387,-0.09779 0.103387,-0.09779 0.09452,0.095 0.09452,0.095 -0.264951,0.255459 c -0.145723,0.140503 -0.267625,0.256356 -0.270893,0.257451 -0.0033,0.0011 -0.12565597,-0.113862 -0.27197397,-0.25546 z m 2.15294097,5.5e-5 -0.266251,-0.257505 0.09278,-0.09356 c 0.05103,-0.05146 0.09551,-0.09251 0.09883,-0.09124 0.0033,0.0013 0.0506,0.04537 0.105044,0.09798 l 0.09899,0.09565 0.0023,-0.69120994 0.0023,-0.69121 0.134515,0.0025 0.134515,0.0025 0.0046,0.686626 0.0046,0.68662494 0.103348,-0.09729 0.103348,-0.09729 0.09382,0.09351 0.09383,0.09351 -0.165241,0.161056 c -0.331728,0.323328 -0.366994,0.357266 -0.371002,0.357031 -0.0022,-1.31e-4 -0.123894,-0.116116 -0.270333,-0.257741 z" /></g></svg>
