<?xml version="1.0" encoding="UTF-8" standalone="no"?>
<!-- Created with Inkscape (http://www.inkscape.org/) -->

<svg
   width="16"
   height="16"
   viewBox="0 0 4.2333332 4.2333333"
   version="1.1"
   id="svg5"
   xml:space="preserve"
   sodipodi:docname="pressure.svg"
   inkscape:version="1.2 (dc2aedaf03, 2022-05-15)"
   xmlns:inkscape="http://www.inkscape.org/namespaces/inkscape"
   xmlns:sodipodi="http://sodipodi.sourceforge.net/DTD/sodipodi-0.dtd"
   xmlns="http://www.w3.org/2000/svg"
   xmlns:svg="http://www.w3.org/2000/svg"><sodipodi:namedview
     id="namedview7"
     pagecolor="#ffffff"
     bordercolor="#666666"
     borderopacity="1.0"
     inkscape:showpageshadow="2"
     inkscape:pageopacity="0.0"
     inkscape:pagecheckerboard="0"
     inkscape:deskcolor="#d1d1d1"
     inkscape:document-units="px"
     showgrid="false"
     inkscape:zoom="19.749026"
     inkscape:cx="8.5827017"
     inkscape:cy="8.1523008"
     inkscape:window-width="1918"
     inkscape:window-height="1059"
     inkscape:window-x="0"
     inkscape:window-y="0"
     inkscape:window-maximized="1"
     inkscape:current-layer="layer1" /><defs
     id="defs2" /><g
     inkscape:label="Warstwa 1"
     inkscape:groupmode="layer"
     id="layer1"><path
       style="fill:#eeeeee;fill-opacity:1;stroke-width:0.0110445"
       d="M 1.7853412,2.2568881 1.4640085,1.9454333 1.5804027,1.8290391 1.6967969,1.7126449 l 0.12707,0.1267093 0.12707,0.1267093 V 1.1296223 l 2.52e-5,-0.48405344 H 2.1166292 2.2822976 L 2.2822723,1.1296223 V 1.9660635 L 2.4093424,1.8393542 2.5364123,1.7126449 2.652855,1.8290875 2.7692976,1.9455302 2.4472326,2.2569352 c -0.1771359,0.1712732 -0.3262307,0.3114051 -0.331321,0.3114051 -0.00508,0 -0.1538546,-0.1401536 -0.3305886,-0.3114535 z"
       id="path171"
       sodipodi:nodetypes="ccccccccccccccccsscc" /><path
       style="fill:#eeeeee;fill-opacity:1;stroke-width:0.00695545"
       d="M 1.9053828,2.9995413 C 1.4711594,2.9770978 1.1270629,2.925911 0.79702058,2.8346483 L 0.713894,2.8116617 0.71199542,2.6444986 c -0.001062,-0.058573 7.3877e-4,-0.1065024 0.003948,-0.1065024 0.003265,0 0.0321552,0.00797 0.0642571,0.017712 0.28748508,0.087239 0.63882648,0.147305 1.00047808,0.1710444 0.1489964,0.00978 0.5267248,0.00982 0.6719438,7.35e-5 0.3676301,-0.024678 0.7120127,-0.08358 1.0004782,-0.1711163 0.032102,-0.00974 0.061022,-0.017712 0.064256,-0.017712 0.00327,0 0.00501,0.047926 0.00394,0.1065025 l -0.0019,0.1671622 -0.083127,0.022987 c -0.2775224,0.07674 -0.5978984,0.1299256 -0.9351753,0.1552489 -0.099677,0.0075 -0.5092485,0.014115 -0.595744,0.00964 z"
       id="path169"
       sodipodi:nodetypes="ccccsccccscccccc" /><path
       style="fill:#eeeeee;fill-opacity:1;stroke-width:0.00695545"
       d="M 1.9053828,3.6287663 C 1.4711594,3.6063228 1.127063,3.5551361 0.7970206,3.4638732 L 0.713894,3.4408862 0.711995,3.2737232 c -0.001062,-0.058573 7.392e-4,-0.1065022 0.003948,-0.1065022 0.003265,0 0.0321552,0.00797 0.0642571,0.017712 0.28748521,0.087239 0.63882651,0.1473049 1.00047811,0.1710444 0.1489964,0.00978 0.5267248,0.00982 0.6719437,7.35e-5 0.3676301,-0.024679 0.7120127,-0.08358 1.0004782,-0.1711164 0.032102,-0.00974 0.061022,-0.017712 0.064256,-0.017712 0.00327,0 0.00501,0.047925 0.00394,0.1065023 l -0.0019,0.1671622 -0.083127,0.022987 C 3.1587488,3.5406146 2.8383728,3.5937998 2.501096,3.6191229 c -0.099677,0.0075 -0.5092485,0.014115 -0.595744,0.00964 z"
       id="path169-3"
       sodipodi:nodetypes="ccccsccccscccccc" /></g></svg>
