<?xml version="1.0" encoding="UTF-8" standalone="no"?>
<svg
   width="16"
   height="16"
   version="1.1"
   id="svg4668"
   sodipodi:docname="sunset.svg"
   inkscape:version="1.2 (dc2aedaf03, 2022-05-15)"
   xmlns:inkscape="http://www.inkscape.org/namespaces/inkscape"
   xmlns:sodipodi="http://sodipodi.sourceforge.net/DTD/sodipodi-0.dtd"
   xmlns="http://www.w3.org/2000/svg"
   xmlns:svg="http://www.w3.org/2000/svg">
  <defs
     id="defs4672" />
  <sodipodi:namedview
     id="namedview4670"
     pagecolor="#ffffff"
     bordercolor="#666666"
     borderopacity="1.0"
     inkscape:showpageshadow="2"
     inkscape:pageopacity="0.0"
     inkscape:pagecheckerboard="0"
     inkscape:deskcolor="#d1d1d1"
     showgrid="false"
     inkscape:zoom="14.75"
     inkscape:cx="8.2372881"
     inkscape:cy="8.3050847"
     inkscape:window-width="1918"
     inkscape:window-height="1018"
     inkscape:window-x="0"
     inkscape:window-y="0"
     inkscape:window-maximized="1"
     inkscape:current-layer="svg4668" />
  <path
     style="fill:#eeeeee;fill-opacity:1"
     d="M 8,0 7.5,1.0293 C 7.67,1.0193 7.83,1 8,1 8.17,1 8.33,1.0193 8.5,1.0293 Z M 8,2 C 4.69,2 2,4.68 2,8 H 14 C 14,4.68 11.31,2 8,2 Z M 2.3398,2.3398 2.7207,3.4297 C 2.9407,3.1797 3.1895,2.9309 3.4395,2.7109 Z M 13.66,2.3398 12.561,2.7109 C 12.811,2.9309 13.059,3.1797 13.279,3.4297 Z M 1.0293,7.5 0,8 H 1 C 1,7.83 1.0193,7.66 1.0293,7.5 Z M 14.971,7.5 C 14.981,7.66 15,7.83 15,8 H 16 Z"
     id="path4662" />
  <path
     style="fill:#eeeeee;fill-opacity:1"
     d="M 1,9 H 15 C 15.554,9 16,9.446 16,10 16,10.554 15.554,11 15,11 H 1 C 0.446,11 0,10.554 0,10 0,9.446 0.446,9 1,9 Z"
     id="path4664" />
  <path
     style="fill:#eeeeee;fill-opacity:1"
     d="M 8,16 11,12 H 5 Z"
     id="path4666" />
</svg>
