<?xml version="1.0" encoding="UTF-8" standalone="no"?>
<!-- Created with Inkscape (http://www.inkscape.org/) -->

<svg
   width="16"
   height="16"
   viewBox="0 0 4.2333332 4.2333333"
   version="1.1"
   id="svg5"
   xml:space="preserve"
   sodipodi:docname="umbrella.svg"
   inkscape:version="1.2 (dc2aedaf03, 2022-05-15)"
   xmlns:inkscape="http://www.inkscape.org/namespaces/inkscape"
   xmlns:sodipodi="http://sodipodi.sourceforge.net/DTD/sodipodi-0.dtd"
   xmlns="http://www.w3.org/2000/svg"
   xmlns:svg="http://www.w3.org/2000/svg"><sodipodi:namedview
     id="namedview7"
     pagecolor="#ffffff"
     bordercolor="#666666"
     borderopacity="1.0"
     inkscape:showpageshadow="2"
     inkscape:pageopacity="0.0"
     inkscape:pagecheckerboard="0"
     inkscape:deskcolor="#d1d1d1"
     inkscape:document-units="px"
     showgrid="false"
     inkscape:zoom="13.022729"
     inkscape:cx="14.513087"
     inkscape:cy="11.134379"
     inkscape:window-width="1918"
     inkscape:window-height="1060"
     inkscape:window-x="0"
     inkscape:window-y="0"
     inkscape:window-maximized="1"
     inkscape:current-layer="layer1" /><defs
     id="defs2" /><g
     inkscape:label="Warstwa 1"
     inkscape:groupmode="layer"
     id="layer1"><path
       style="fill:#eeeeee;fill-opacity:1;stroke-width:0.0037971"
       d="m 2.6324423,3.968378 c 0.0564,-0.008 0.11909,-0.0291 0.17705,-0.0592 0.12673,-0.0658 0.22983,-0.19354 0.27109,-0.33591 0.0206,-0.0709 0.026,-0.15858 0.0119,-0.19211 -0.009,-0.0226 -0.0422,-0.0547 -0.0627,-0.0614 -0.0421,-0.0139 -0.0813,-0.0106 -0.11159,0.009 -0.0283,0.0187 -0.0375,0.0415 -0.0559,0.13751 -0.0153,0.0798 -0.0446,0.13908 -0.0915,0.18511 -0.0281,0.0276 -0.0534,0.0439 -0.0973,0.0627 -0.0671,0.0288 -0.14821,0.0325 -0.21767,0.01 -0.10767,-0.0349 -0.18669,-0.12218 -0.2105,-0.2324 -0.005,-0.0235 -0.007,-0.077 -0.0102,-0.31494 -0.004,-0.28112 -0.002,-1.08334 0.003,-1.13661 0.002,-0.018 0.004,-0.0266 0.008,-0.0282 0.0121,-0.005 0.0931,0.0175 0.15264,0.0418 0.0608,0.0248 0.10845,0.0649 0.19965,0.16826 0.0769,0.0871 0.0982,0.10037 0.16095,0.10032 0.0353,-2e-5 0.0538,-0.005 0.0759,-0.0202 0.009,-0.006 0.0547,-0.0487 0.10069,-0.0938 0.046,-0.0451 0.093,-0.0894 0.10437,-0.0983 0.0436,-0.0342 0.13853,-0.0744 0.21276,-0.0903 0.0465,-0.01 0.17084,-0.01 0.21628,1.8e-4 0.0926,0.0203 0.17654,0.0619 0.24914,0.12325 0.0541,0.0457 0.0865,0.0614 0.12686,0.0614 0.039,0 0.0648,-0.0109 0.0934,-0.0395 0.0247,-0.0247 0.0363,-0.0484 0.0441,-0.0896 0.005,-0.0241 0.002,-0.0769 -0.006,-0.10442 -0.0127,-0.0472 -0.0696,-0.17359 -0.12095,-0.26909 -0.27533,-0.5115501 -0.76455,-0.89727007 -1.31255,-1.03485007 -0.0724,-0.0182 -0.18675,-0.0398 -0.24327,-0.0459 -0.0413,-0.005 -0.058,-0.0102 -0.0631,-0.0217 -0.002,-0.004 -0.004,-0.0623 -0.006,-0.13019 -0.002,-0.0697 -0.004,-0.12884 -0.007,-0.13588 -0.007,-0.0217 -0.0194,-0.0378 -0.0379,-0.0496 -0.0239,-0.0153 -0.0485,-0.0209 -0.0819,-0.0188 -0.0462,0.003 -0.078,0.0251 -0.0916,0.0637 -0.008,0.0226 -0.0132,0.10337 -0.0133,0.20339 l -3e-5,0.0837 -0.0541,0.006 c -0.10368,0.0124 -0.25903,0.0475 -0.36737,0.0829 -0.2012,0.0658 -0.4267101,0.18412 -0.60170007,0.31571997 -0.19838,0.14919 -0.41699,0.3952801 -0.54386,0.6122201 -0.0516,0.0882 -0.10835,0.20309 -0.14181,0.28708 -0.0499,0.12511 -0.0263,0.23184 0.0602,0.27238 0.0183,0.009 0.0266,0.0101 0.0559,0.0101 0.0313,1e-5 0.0365,-10e-4 0.0588,-0.0125 0.0135,-0.007 0.0399,-0.0254 0.0587,-0.0411 0.0836,-0.07 0.15827,-0.10704 0.2601,-0.12924 0.049,-0.0107 0.1661,-0.01 0.21904997,0.002 0.073,0.0158 0.16266,0.0542 0.20636,0.0883 0.0114,0.009 0.0575,0.0523 0.1023901,0.0965 0.1129,0.111 0.12489,0.11834 0.18775,0.11505 0.0618,-0.003 0.0863,-0.0201 0.16162,-0.11117 0.0852,-0.10304 0.139,-0.14272 0.23622,-0.1743 0.0426,-0.0138 0.0974,-0.0268 0.1004,-0.0238 10e-4,0.001 0.003,0.3425 0.004,0.7588 l 0.002,0.7569 0.024,0.0641 c 0.0272,0.0726 0.0542,0.12299 0.0922,0.17216 0.0715,0.0925 0.17866,0.16167 0.30011,0.19369 0.0326,0.009 0.0449,0.01 0.11799,0.0107 0.0449,5.9e-4 0.0868,3.3e-4 0.093,-5.7e-4 z m -1.26125,-2.03374 c -0.0956,-0.0714 -0.2032501,-0.12067 -0.3166201,-0.145 -0.0687,-0.0147 -0.11479997,-0.0186 -0.19506997,-0.0164 -0.0721,0.002 -0.11053,0.007 -0.16704,0.0218 -0.0159,0.004 -0.0419,0.0109 -0.0579,0.0151 -0.016,0.004 -0.0301,0.007 -0.0312,0.005 -0.007,-0.007 0.0775,-0.14047 0.15425,-0.24278 C 1.0092622,1.2370779 1.3535223,1.0008579 1.7451423,0.89474793 c 0.10982,-0.0298 0.20983,-0.0463 0.34513,-0.0571 0.11748,-0.009 0.33312,0.0257 0.50472,0.0821 0.39177,0.12868997 0.72732,0.38976007 0.97401,0.75783007 0.0334,0.0498 0.0882,0.14347 0.0855,0.14615 -9.6e-4,9.6e-4 -0.0182,-0.004 -0.0382,-0.0119 -0.0438,-0.0164 -0.0862,-0.0268 -0.13931,-0.0342 -0.19658,-0.0273 -0.38495,0.0119 -0.53621,0.11162 -0.0487,0.0321 -0.0725,0.0514 -0.13093,0.10631 -0.0257,0.0241 -0.0481,0.0444 -0.0497,0.045 -0.002,5.9e-4 -0.0164,-0.0145 -0.0329,-0.0336 -0.0833,-0.0966 -0.21628,-0.17679 -0.34909,-0.21052 -0.10805,-0.0274 -0.27194,-0.0349 -0.40819,-0.0187 -0.0892,0.0107 -0.15523,0.0304 -0.23477,0.0702 -0.0877,0.0439 -0.1568,0.0962 -0.21367,0.16181 l -0.0308,0.0355 -0.0404,-0.0411 c -0.0222,-0.0226 -0.0578,-0.0541 -0.079,-0.0699 z"
       id="path1229" /></g></svg>
