<?xml version="1.0" encoding="UTF-8" standalone="no"?>
<!-- Created with Inkscape (http://www.inkscape.org/) -->

<svg
   width="16"
   height="16"
   viewBox="0 0 4.2333332 4.2333333"
   version="1.1"
   id="svg5"
   xml:space="preserve"
   sodipodi:docname="wind.svg"
   inkscape:version="1.2 (dc2aedaf03, 2022-05-15)"
   xmlns:inkscape="http://www.inkscape.org/namespaces/inkscape"
   xmlns:sodipodi="http://sodipodi.sourceforge.net/DTD/sodipodi-0.dtd"
   xmlns="http://www.w3.org/2000/svg"
   xmlns:svg="http://www.w3.org/2000/svg"><sodipodi:namedview
     id="namedview7"
     pagecolor="#ffffff"
     bordercolor="#666666"
     borderopacity="1.0"
     inkscape:showpageshadow="2"
     inkscape:pageopacity="0.0"
     inkscape:pagecheckerboard="0"
     inkscape:deskcolor="#d1d1d1"
     inkscape:document-units="px"
     showgrid="false"
     inkscape:zoom="19.074667"
     inkscape:cx="18.034391"
     inkscape:cy="14.679155"
     inkscape:window-width="1918"
     inkscape:window-height="1060"
     inkscape:window-x="0"
     inkscape:window-y="0"
     inkscape:window-maximized="1"
     inkscape:current-layer="layer1"
     showguides="true"><sodipodi:guide
       position="3.7041666,3.4981741"
       orientation="-1,0"
       id="guide6200"
       inkscape:locked="false"
       inkscape:label=""
       inkscape:color="rgb(0,134,229)" /></sodipodi:namedview><defs
     id="defs2" /><g
     inkscape:label="Warstwa 1"
     inkscape:groupmode="layer"
     id="layer1"><path
       style="fill:#eeeeee;fill-opacity:1;stroke-width:0.00564226"
       d="M 2.5401916,3.161616 C 2.4844284,3.1470022 2.4358254,3.1227034 2.3936132,3.0883316 2.3507424,3.0534256 2.3342216,3.0239053 2.3335924,2.9811154 c -5.75e-4,-0.03902 0.02045,-0.077826 0.054307,-0.1002316 0.019878,-0.013157 0.029114,-0.015392 0.063599,-0.015392 0.034899,0 0.043335,0.00208 0.062477,0.015528 0.012172,0.00854 0.032007,0.022442 0.044078,0.030892 0.031235,0.021864 0.085796,0.024357 0.1219345,0.00557 0.035207,-0.018314 0.062113,-0.06284 0.061942,-0.1025107 -1.997e-4,-0.046255 -0.02415,-0.087284 -0.063513,-0.1088015 -0.017021,-0.0093 -0.066192,-0.010114 -0.7742473,-0.012757 L 1.1480957,2.690628 1.1255246,2.6784856 c -0.073595,-0.039605 -0.089388,-0.1339023 -0.032035,-0.1912564 0.036242,-0.036241 -0.029164,-0.03357 0.8219588,-0.03357 h 0.773001 l 0.045085,0.015936 c 0.1309808,0.046283 0.2146167,0.141262 0.2429354,0.27588 0.015992,0.076027 0.00528,0.1473595 -0.034049,0.2272697 -0.029928,0.060776 -0.057763,0.094238 -0.1085061,0.1304431 -0.088158,0.062904 -0.195357,0.084249 -0.2937241,0.058476 z M 1.1341574,2.2019462 c -0.06722,-0.027035 -0.096114,-0.1093811 -0.060006,-0.1709941 0.00843,-0.014378 0.025785,-0.033071 0.038578,-0.041533 l 0.023257,-0.015393 1.0922054,-0.00286 c 1.2384588,-0.00322 1.1179585,0.00208 1.1762977,-0.051262 0.07593,-0.069397 0.078861,-0.1842965 0.00658,-0.2566078 -0.039835,-0.039834 -0.080924,-0.055219 -0.1386001,-0.051891 -0.047671,0.00272 -0.077141,0.015164 -0.118431,0.049891 -0.030828,0.025928 -0.049285,0.033406 -0.08242,0.033406 -0.086334,0 -0.1454348,-0.089252 -0.1102176,-0.1664444 0.030614,-0.067111 0.1512226,-0.1382392 0.2631087,-0.1551756 0.084815,-0.012836 0.1646561,9.25e-4 0.2507719,0.043156 0.044413,0.021792 0.061327,0.034234 0.101562,0.074726 0.054163,0.054511 0.079645,0.093907 0.1025049,0.1585048 0.039785,0.1124282 0.031657,0.2264763 -0.023736,0.3329854 -0.05166,0.099317 -0.1356106,0.1704662 -0.2449061,0.207551 l -0.045142,0.015314 -1.1087193,0.00108 c -0.7238529,7.109e-4 -1.1135628,-8.618e-4 -1.122662,-0.0045 z m -0.003,-0.4840824 c -0.039349,-0.018278 -0.060806,-0.044377 -0.069892,-0.085007 -0.011885,-0.053183 0.012957,-0.1045349 0.063713,-0.1316937 l 0.0231,-0.012364 0.578592,-0.00278 c 0.537921,-0.00264 0.5796468,-0.0035 0.5936029,-0.012657 0.081461,-0.05339 0.080212,-0.168478 -0.00228,-0.209582 -0.052884,-0.026349 -0.1006464,-0.019064 -0.1469264,0.022407 -0.076216,0.068305 -0.1977448,0.014778 -0.1984133,-0.087387 -2.85e-4,-0.043484 0.015964,-0.072159 0.062763,-0.1107602 0.069321,-0.057176 0.1330901,-0.078924 0.2298378,-0.07838 0.051613,2.907e-4 0.069792,0.00293 0.1079405,0.015521 0.056749,0.018771 0.1207975,0.05989 0.1560933,0.1002192 0.03105,0.035477 0.066321,0.1005921 0.080728,0.1490386 0.013478,0.045334 0.013722,0.1340887 4.922e-4,0.1829638 -0.038042,0.1405706 -0.1546669,0.2459283 -0.2934712,0.2651274 -0.029264,0.00408 -0.2326685,0.00608 -0.60373,0.006 C 1.1800016,1.7284079 1.1526507,1.72791 1.1311417,1.7179202 Z"
       id="path1526" /></g></svg>
