<?xml version="1.0" encoding="UTF-8" standalone="no"?>
<svg
   xmlns:dc="http://purl.org/dc/elements/1.1/"
   xmlns:cc="http://creativecommons.org/ns#"
   xmlns:rdf="http://www.w3.org/1999/02/22-rdf-syntax-ns#"
   xmlns:svg="http://www.w3.org/2000/svg"
   xmlns="http://www.w3.org/2000/svg"
   xmlns:sodipodi="http://sodipodi.sourceforge.net/DTD/sodipodi-0.dtd"
   xmlns:inkscape="http://www.inkscape.org/namespaces/inkscape"
   width="16"
   height="16"
   version="1.1"
   id="svg6"
   sodipodi:docname="window-pop-out-symbolic.svg"
   inkscape:version="1.0.2 (e86c870879, 2021-01-15, custom)">
  <metadata
     id="metadata12">
    <rdf:RDF>
      <cc:Work
         rdf:about="">
        <dc:format>image/svg+xml</dc:format>
        <dc:type
           rdf:resource="http://purl.org/dc/dcmitype/StillImage" />
        <dc:title></dc:title>
      </cc:Work>
    </rdf:RDF>
  </metadata>
  <defs
     id="defs10" />
  <sodipodi:namedview
     pagecolor="#ffffff"
     bordercolor="#666666"
     borderopacity="1"
     objecttolerance="10"
     gridtolerance="10"
     guidetolerance="10"
     inkscape:pageopacity="0"
     inkscape:pageshadow="2"
     inkscape:window-width="1906"
     inkscape:window-height="1036"
     id="namedview8"
     showgrid="false"
     inkscape:zoom="39.5625"
     inkscape:cx="8.2274882"
     inkscape:cy="8"
     inkscape:window-x="0"
     inkscape:window-y="0"
     inkscape:window-maximized="1"
     inkscape:current-layer="svg6" />
  <path
     d="m4 4c-1.108 0-2 0.892-2 2v6c0 1.108 0.892 2 2 2h7c1.108 0 2-0.892 2-2v-6c0-1.108-0.892-2-2-2h-7zm0 2h7c0.554 0 1 0.446 1 1v5c0 0.554-0.446 1-1 1h-7c-0.554 0-1-0.446-1-1v-5c0-0.554 0.446-1 1-1z"
     fill="#363636"
     id="path2"
     style="fill:#eeeeee;fill-opacity:1" />
  <path
     d="m6 2c-0.74107 0-1.379 0.4042-1.7246 1h7.7246c1.108 0 2 0.892 2 2v5 1.7246c0.5958-0.34556 1-0.98354 1-1.7246v-5c0-1.662-1.338-3-3-3h-6z"
     fill="#363636"
     id="path4"
     style="fill:#eeeeee;fill-opacity:1" />
</svg>
