<?xml version="1.0" encoding="UTF-8" standalone="no"?>
<svg
   width="24"
   height="24"
   version="1.1"
   id="svg166"
   sodipodi:docname="edit-clear.svg"
   inkscape:version="1.2.1 (9c6d41e410, 2022-07-14)"
   xmlns:inkscape="http://www.inkscape.org/namespaces/inkscape"
   xmlns:sodipodi="http://sodipodi.sourceforge.net/DTD/sodipodi-0.dtd"
   xmlns="http://www.w3.org/2000/svg"
   xmlns:svg="http://www.w3.org/2000/svg">
  <sodipodi:namedview
     id="namedview168"
     pagecolor="#ffffff"
     bordercolor="#666666"
     borderopacity="1.0"
     inkscape:showpageshadow="2"
     inkscape:pageopacity="0.0"
     inkscape:pagecheckerboard="0"
     inkscape:deskcolor="#d1d1d1"
     showgrid="false"
     inkscape:zoom="31.958333"
     inkscape:cx="12.062581"
     inkscape:cy="12.219035"
     inkscape:window-width="1918"
     inkscape:window-height="1018"
     inkscape:window-x="0"
     inkscape:window-y="0"
     inkscape:window-maximized="1"
     inkscape:current-layer="svg166" />
  <defs
     id="defs160">
    <style
       id="current-color-scheme"
       type="text/css">
   .ColorScheme-Text { color:#c6c6c6; } .ColorScheme-Highlight { color:#4285f4; } .ColorScheme-NeutralText { color:#ff9800; } .ColorScheme-PositiveText { color:#4caf50; } .ColorScheme-NegativeText { color:#f44336; }
  </style>
  </defs>
  <g
     transform="matrix(1.25,0,0,1.25,2,1.5)"
     id="g164"
     style="fill:#444444;fill-opacity:1">
    <path
       class="ColorScheme-Text"
       d="M 5,2 0,8 5,14 H 16 V 2 Z M 7,5 H 8 C 8.28,5 8.53,5.11 8.71,5.29 L 10,6.59 11.29,5.29 C 11.47,5.11 11.72,5 12,5 h 1 v 1 c 0,0.28 -0.11,0.53 -0.29,0.71 L 11.41,8 12.71,9.29 C 12.89,9.47 13,9.72 13,10 v 1 h -1 c -0.28,0 -0.53,-0.11 -0.71,-0.29 L 10,9.41 8.71,10.71 C 8.53,10.89 8.28,11 8,11 H 7 V 10 C 7,9.72 7.11,9.47 7.29,9.29 L 8.59,8 7.29,6.71 C 7.11,6.53 7,6.28 7,6 Z"
       style="fill:#444444;fill-opacity:1"
       id="path162" />
  </g>
</svg>
