<?xml version="1.0" encoding="UTF-8" standalone="no"?>
<!-- Created with Inkscape (http://www.inkscape.org/) -->

<svg
   width="16"
   height="16"
   viewBox="0 0 4.2333332 4.2333333"
   version="1.1"
   id="svg5"
   xml:space="preserve"
   sodipodi:docname="eye.svg"
   inkscape:version="1.2 (dc2aedaf03, 2022-05-15)"
   xmlns:inkscape="http://www.inkscape.org/namespaces/inkscape"
   xmlns:sodipodi="http://sodipodi.sourceforge.net/DTD/sodipodi-0.dtd"
   xmlns="http://www.w3.org/2000/svg"
   xmlns:svg="http://www.w3.org/2000/svg"><sodipodi:namedview
     id="namedview7"
     pagecolor="#ffffff"
     bordercolor="#666666"
     borderopacity="1.0"
     inkscape:showpageshadow="2"
     inkscape:pageopacity="0.0"
     inkscape:pagecheckerboard="0"
     inkscape:deskcolor="#d1d1d1"
     inkscape:document-units="px"
     showgrid="false"
     inkscape:zoom="20.940317"
     inkscape:cx="12.177466"
     inkscape:cy="16.236621"
     inkscape:window-width="1918"
     inkscape:window-height="1060"
     inkscape:window-x="0"
     inkscape:window-y="0"
     inkscape:window-maximized="1"
     inkscape:current-layer="layer1" /><defs
     id="defs2" /><g
     inkscape:label="Warstwa 1"
     inkscape:groupmode="layer"
     id="layer1"><path
       style="fill:#444444;stroke-width:0.00723796;fill-opacity:1"
       d="M 1.9167822,3.6149661 C 1.8963601,3.604627 1.8686422,3.5755075 1.8226886,3.5161098 1.6246532,3.2601439 1.2993982,2.9322212 1.0192734,2.7061043 0.79846947,2.5278719 0.58353347,2.3838685 0.34002983,2.2510227 0.29965823,2.2289987 0.28796563,2.2184357 0.27685763,2.1939687 0.24948413,2.1336797 0.26832863,2.080451 0.32905803,2.0465448 0.64006413,1.8729078 0.81204256,1.7552616 1.0758097,1.5357102 1.3547155,1.303558 1.6339265,1.0199527 1.8219046,0.77787215 1.8943586,0.68456825 1.9217426,0.6626638 1.966459,0.66225455 c 0.033356,-3.0593e-4 0.075209,0.027758 0.09146,0.0613302 0.028463,0.0588075 0.020991,0.0781964 -0.077748,0.20165208 l -0.068658,0.0858423 0.029512,0.06254 c 0.077099,0.1633659 0.1324214,0.3537907 0.1667761,0.5740404 0.028038,0.1797693 0.033348,0.2591013 0.033348,0.498193 0,0.2390917 -0.00529,0.3184237 -0.033348,0.4981929 -0.034357,0.2202498 -0.089678,0.4106745 -0.1667761,0.5740404 l -0.029512,0.06254 0.068658,0.085842 C 2.07752,3.4881888 2.0844268,3.5051847 2.060672,3.564556 2.052432,3.585154 2.039882,3.599169 2.018418,3.611751 1.981354,3.63347 1.954974,3.634311 1.9167803,3.614951 Z M 1.7742147,3.0632642 C 1.8126407,2.9703392 1.8488157,2.8464798 1.880684,2.6987588 1.883564,2.6852158 1.878444,2.6821488 1.835235,2.6716898 1.80843,2.6652026 1.7557331,2.6447485 1.7181342,2.6262325 1.6617773,2.5984825 1.6387765,2.5816243 1.5871424,2.5302545 1.515465,2.4589375 1.4801084,2.4027881 1.4478536,2.3090557 1.4269751,2.2483822 1.4253173,2.2363613 1.4253173,2.1458468 c 0,-0.090516 0.00168,-0.1025363 0.022536,-0.163209 C 1.4801123,1.8889058 1.5154623,1.8327568 1.587142,1.761439 1.638774,1.710064 1.661783,1.693213 1.7181338,1.665461 1.7557348,1.646945 1.8084268,1.626491 1.8352346,1.620004 1.8784336,1.609553 1.8835986,1.606477 1.8807076,1.592935 1.8498906,1.4489529 1.8145406,1.3271423 1.7775555,1.2374759 c -0.00985,-0.02389 -0.018476,-0.044064 -0.019165,-0.04484 -6.896e-4,-7.769e-4 -0.085846,0.082404 -0.1892363,0.1848467 -0.324137,0.3211667 -0.59246827,0.5362813 -0.91358769,0.7324018 -0.0288632,0.017627 -0.0524726,0.033804 -0.0524726,0.035959 0,0.00216 0.0236175,0.018268 0.0524726,0.035823 0.0895743,0.054483 0.24396173,0.1592599 0.33475574,0.2271845 0.22217985,0.1662162 0.35501035,0.2828597 0.58265695,0.511657 0.097532,0.098024 0.1791734,0.178793 0.181427,0.1794858 0.00224,6.927e-4 0.011164,-0.015841 0.019805,-0.036744 z M 1.9180708,2.422704 c 0.00777,-0.054427 0.00769,-0.4997346 -8.49e-5,-0.5543968 l -0.00601,-0.04231 -0.025548,0.00481 c -0.1144688,0.021471 -0.2207299,0.1372241 -0.242495,0.2641523 -0.026525,0.154699 0.073519,0.315306 0.2258318,0.3625257 0.038514,0.011941 0.042021,0.00942 0.048332,-0.034765 z M 3.8131307,3.1849516 C 3.6883088,3.1442597 2.7915512,2.8242959 2.7751007,2.8145782 c -0.025323,-0.01496 -0.051287,-0.058791 -0.051287,-0.08658 0,-0.059392 0.060561,-0.1171112 0.1151867,-0.1097849 0.03282,0.0044 1.050003,0.3620757 1.0798601,0.3797123 0.023057,0.013623 0.049886,0.06141 0.049886,0.088862 0,0.034509 -0.028094,0.077908 -0.060625,0.093659 -0.035102,0.016994 -0.053946,0.017883 -0.094992,0.00448 z M 2.7838966,2.2393653 c -0.032091,-0.015881 -0.060081,-0.059448 -0.060081,-0.093514 0,-0.034509 0.028094,-0.077908 0.060625,-0.093659 0.030241,-0.01464 0.040428,-0.014912 0.5618416,-0.014912 0.5214116,0 0.5315978,2.707e-4 0.5618417,0.014912 0.032531,0.015745 0.060625,0.059152 0.060625,0.093659 0,0.034509 -0.028094,0.077908 -0.060625,0.093659 -0.030249,0.01464 -0.04042,0.014912 -0.5623174,0.014904 -0.5236334,-5.5e-6 -0.5319648,-2.298e-4 -0.5619083,-0.015048 z m -0.00408,-0.5796641 c -0.029736,-0.017691 -0.056036,-0.062748 -0.056036,-0.095996 0,-0.036247 0.028262,-0.075161 0.068378,-0.094151 0.048596,-0.023009 1.0254204,-0.3658453 1.0569392,-0.3709604 0.038626,-0.00625 0.086269,0.020294 0.1047043,0.058375 0.0082,0.016938 0.014912,0.038514 0.014912,0.047948 0,0.027454 -0.026821,0.075241 -0.049886,0.088862 -0.033805,0.019966 -1.050791,0.3761997 -1.0828584,0.3793047 -0.020774,0.002 -0.03664,-0.00176 -0.056157,-0.013383 z"
       id="path2040" /></g></svg>
