<?xml version="1.0" encoding="UTF-8" standalone="no"?>
<!-- Created with Inkscape (http://www.inkscape.org/) -->

<svg
   width="16"
   height="16"
   viewBox="0 0 4.2333332 4.2333333"
   version="1.1"
   id="svg5"
   xml:space="preserve"
   sodipodi:docname="eye.svg"
   inkscape:version="1.2 (dc2aedaf03, 2022-05-15)"
   xmlns:inkscape="http://www.inkscape.org/namespaces/inkscape"
   xmlns:sodipodi="http://sodipodi.sourceforge.net/DTD/sodipodi-0.dtd"
   xmlns="http://www.w3.org/2000/svg"
   xmlns:svg="http://www.w3.org/2000/svg"><sodipodi:namedview
     id="namedview7"
     pagecolor="#ffffff"
     bordercolor="#666666"
     borderopacity="1.0"
     inkscape:showpageshadow="2"
     inkscape:pageopacity="0.0"
     inkscape:pagecheckerboard="0"
     inkscape:deskcolor="#d1d1d1"
     inkscape:document-units="px"
     showgrid="false"
     inkscape:zoom="20.940317"
     inkscape:cx="15.615809"
     inkscape:cy="16.236621"
     inkscape:window-width="1918"
     inkscape:window-height="1060"
     inkscape:window-x="0"
     inkscape:window-y="0"
     inkscape:window-maximized="1"
     inkscape:current-layer="layer1" /><defs
     id="defs2" /><g
     inkscape:label="Warstwa 1"
     inkscape:groupmode="layer"
     id="layer1"><path
       style="fill:#444444;fill-opacity:1;stroke-width:0.00517008"
       d="M 2.0003506,3.1418374 C 1.9857634,3.134452 1.9659649,3.1136515 1.9331409,3.0712228 1.791687,2.8883824 1.5593619,2.6541421 1.359273,2.4926233 1.2015558,2.3653091 1.0480299,2.2624453 0.87409869,2.1675514 0.84526183,2.1518194 0.83690997,2.1442741 0.82897568,2.1267969 0.80942317,2.0837316 0.82288353,2.0457095 0.86626169,2.0214898 1.088409,1.8974581 1.2112508,1.8134217 1.399656,1.6565927 1.5988743,1.4907628 1.7983108,1.2881792 1.9325809,1.1152575 c 0.051753,-0.066648 0.071313,-0.082295 0.1032531,-0.082587 0.023826,-2.186e-4 0.053721,0.019828 0.065329,0.043809 0.020331,0.042007 0.014994,0.055857 -0.055534,0.144043 l -0.049041,0.061319 0.02108,0.044673 c 0.055071,0.1166947 0.094587,0.2527182 0.1191258,0.4100459 0.020027,0.128412 0.02382,0.18508 0.02382,0.355867 0,0.1707869 -0.00378,0.2274549 -0.02382,0.3558669 C 2.1122528,2.6056219 2.0727378,2.7416452 2.017668,2.85834 L 1.996588,2.903014 2.045629,2.964333 C 2.115164,3.051281 2.120098,3.063421 2.10313,3.1058304 2.09724,3.1205444 2.08828,3.1305554 2.072948,3.1395424 2.046474,3.1550574 2.027631,3.1556574 2.00035,3.1418324 Z M 1.8985166,2.7477482 c 0.027447,-0.066378 0.053287,-0.1548524 0.07605,-0.2603719 0.00206,-0.00967 -0.0016,-0.011865 -0.032464,-0.019336 -0.019146,-0.00463 -0.056787,-0.019245 -0.083643,-0.032471 -0.040255,-0.019822 -0.056684,-0.031864 -0.093566,-0.068559 -0.051198,-0.050943 -0.076453,-0.091051 -0.099492,-0.1580057 -0.014913,-0.04334 -0.016097,-0.051927 -0.016097,-0.1165827 0,-0.064657 0.0012,-0.073243 0.016097,-0.1165827 0.023042,-0.066955 0.048292,-0.1070623 0.099492,-0.1580058 0.03688,-0.036698 0.053315,-0.048735 0.093566,-0.068559 0.026858,-0.013227 0.064495,-0.027837 0.083643,-0.03247 0.030856,-0.00747 0.034546,-0.00966 0.032481,-0.019336 -0.022013,-0.1028479 -0.047263,-0.1898591 -0.073681,-0.2539093 -0.00704,-0.017065 -0.013197,-0.031475 -0.013689,-0.03203 -4.925e-4,-5.55e-4 -0.061319,0.058862 -0.1351688,0.1320389 -0.2315264,0.2294143 -0.4231914,0.3830739 -0.6525627,0.5231659 -0.020617,0.012592 -0.03748,0.024147 -0.03748,0.025686 0,0.00154 0.01687,0.01305 0.03748,0.025589 0.063982,0.038919 0.1742586,0.1137618 0.2391115,0.1622814 0.1586998,0.1187308 0.2535786,0.2020511 0.4161834,0.3654846 0.069666,0.07002 0.127981,0.1277145 0.1295907,0.1282095 0.0016,4.948e-4 0.00797,-0.011315 0.014146,-0.026247 z M 2.001271,2.2901861 c 0.00555,-0.038879 0.00549,-0.3569682 -6.06e-5,-0.3960142 l -0.00429,-0.030222 -0.018248,0.00344 c -0.081764,0.015336 -0.1576643,0.098021 -0.1732108,0.188688 -0.018946,0.1105039 0.052514,0.2252279 0.1613085,0.2589577 0.02751,0.00853 0.030015,0.00673 0.034523,-0.024833 z M 3.3548856,2.8346714 C 3.2657271,2.8056046 2.6251858,2.5770494 2.6134354,2.5701079 c -0.018088,-0.010686 -0.036634,-0.041996 -0.036634,-0.061845 0,-0.042425 0.043258,-0.083655 0.082276,-0.078421 0.023443,0.00314 0.7500023,0.2586363 0.7713288,0.2712344 0.016469,0.00973 0.035633,0.043866 0.035633,0.063476 0,0.02465 -0.020067,0.055651 -0.043304,0.066902 -0.025073,0.012139 -0.038533,0.012775 -0.067851,0.0032 z M 2.6197182,2.1592244 c -0.022922,-0.011345 -0.042915,-0.042465 -0.042915,-0.066799 0,-0.02465 0.020067,-0.055651 0.043304,-0.066902 0.021601,-0.010457 0.028877,-0.010651 0.4013155,-0.010651 0.372437,0 0.3797128,1.933e-4 0.4013156,0.010651 0.023237,0.011246 0.043304,0.042253 0.043304,0.066902 0,0.02465 -0.020067,0.055651 -0.043304,0.066902 -0.021606,0.010457 -0.028871,0.010651 -0.4016554,0.010646 C 2.6470586,2.1699702 2.6411076,2.16981 2.6197193,2.1592254 Z m -0.00291,-0.4140631 c -0.02124,-0.012636 -0.040026,-0.044822 -0.040026,-0.068572 0,-0.025892 0.020187,-0.053688 0.048841,-0.067254 0.034711,-0.016436 0.7324434,-0.261329 0.7549568,-0.2649828 0.02759,-0.00446 0.061621,0.014496 0.074789,0.041698 0.00586,0.012099 0.010652,0.027511 0.010652,0.034249 0,0.019611 -0.019158,0.053746 -0.035633,0.063476 -0.024146,0.014262 -0.7505652,0.2687254 -0.7734705,0.2709432 -0.014839,0.00143 -0.026171,-0.00126 -0.040112,-0.00956 z"
       id="path2040" /></g></svg>
