<?xml version="1.0" encoding="UTF-8" standalone="no"?>
<!-- Created with Inkscape (http://www.inkscape.org/) -->

<svg
   width="16"
   height="16"
   viewBox="0 0 4.2333332 4.2333333"
   version="1.1"
   id="svg5"
   xml:space="preserve"
   sodipodi:docname="eye.svg"
   inkscape:version="1.2 (dc2aedaf03, 2022-05-15)"
   xmlns:inkscape="http://www.inkscape.org/namespaces/inkscape"
   xmlns:sodipodi="http://sodipodi.sourceforge.net/DTD/sodipodi-0.dtd"
   xmlns="http://www.w3.org/2000/svg"
   xmlns:svg="http://www.w3.org/2000/svg"><sodipodi:namedview
     id="namedview7"
     pagecolor="#ffffff"
     bordercolor="#666666"
     borderopacity="1.0"
     inkscape:showpageshadow="2"
     inkscape:pageopacity="0.0"
     inkscape:pagecheckerboard="0"
     inkscape:deskcolor="#d1d1d1"
     inkscape:document-units="px"
     showgrid="false"
     inkscape:zoom="20.940317"
     inkscape:cx="19.054153"
     inkscape:cy="16.236621"
     inkscape:window-width="1918"
     inkscape:window-height="1060"
     inkscape:window-x="0"
     inkscape:window-y="0"
     inkscape:window-maximized="1"
     inkscape:current-layer="layer1"
     showguides="true"><sodipodi:guide
       position="3.7041666,2.6539438"
       orientation="-1,0"
       id="guide5647"
       inkscape:locked="false"
       inkscape:label=""
       inkscape:color="rgb(0,134,229)" /></sodipodi:namedview><defs
     id="defs2" /><g
     inkscape:label="Warstwa 1"
     inkscape:groupmode="layer"
     id="layer1"><path
       id="path2040"
       style="fill:#444444;fill-opacity:1;stroke-width:0.00517008"
       d="M 2.3443087,3.1418374 C 2.3297215,3.134452 2.309923,3.1136515 2.277099,3.0712228 2.1356451,2.8883824 1.90332,2.6541421 1.7032311,2.4926233 1.5455139,2.3653091 1.391988,2.2624453 1.218057,2.1675514 1.1892201,2.1518194 1.1808683,2.1442741 1.172934,2.1267969 1.1533815,2.0837316 1.1668419,2.0457095 1.21022,2.0214898 1.4323671,1.8974581 1.5552089,1.8134217 1.7436141,1.6565927 1.9428324,1.4907628 2.1422689,1.2881792 2.276539,1.1152575 c 0.051753,-0.066648 0.071313,-0.082295 0.1032531,-0.082587 0.023826,-2.186e-4 0.053721,0.019828 0.065329,0.043809 0.020331,0.042007 0.014994,0.055857 -0.055534,0.144043 l -0.049041,0.061319 0.02108,0.044673 c 0.055071,0.1166947 0.094587,0.2527182 0.1191258,0.4100459 0.020027,0.128412 0.02382,0.18508 0.02382,0.355867 0,0.1707869 -0.00378,0.2274549 -0.02382,0.3558669 C 2.4562109,2.6056219 2.4166959,2.7416452 2.3616261,2.85834 l -0.02108,0.044674 0.049041,0.061319 c 0.069535,0.086948 0.074469,0.099088 0.057501,0.1414974 -0.00589,0.014714 -0.01485,0.024725 -0.030182,0.033712 -0.026474,0.015515 -0.045317,0.016115 -0.072598,0.00229 z M 2.2424747,2.7477482 c 0.027447,-0.066378 0.053287,-0.1548524 0.07605,-0.2603719 0.00206,-0.00967 -0.0016,-0.011865 -0.032464,-0.019336 -0.019146,-0.00463 -0.056787,-0.019245 -0.083643,-0.032471 -0.040255,-0.019822 -0.056684,-0.031864 -0.093566,-0.068559 -0.051198,-0.050943 -0.076453,-0.091051 -0.099492,-0.1580057 -0.014913,-0.04334 -0.016097,-0.051927 -0.016097,-0.1165827 0,-0.064657 0.0012,-0.073243 0.016097,-0.1165827 0.023042,-0.066955 0.048292,-0.1070623 0.099492,-0.1580058 0.03688,-0.036698 0.053315,-0.048735 0.093566,-0.068559 0.026858,-0.013227 0.064495,-0.027837 0.083643,-0.03247 0.030856,-0.00747 0.034546,-0.00966 0.032481,-0.019336 -0.022013,-0.1028479 -0.047263,-0.1898591 -0.073681,-0.2539093 -0.00704,-0.017065 -0.013197,-0.031475 -0.013689,-0.03203 -4.925e-4,-5.55e-4 -0.061319,0.058862 -0.1351688,0.1320389 -0.2315264,0.2294143 -0.4231914,0.3830739 -0.6525627,0.5231659 -0.020617,0.012592 -0.03748,0.024147 -0.03748,0.025686 0,0.00154 0.01687,0.01305 0.03748,0.025589 0.063982,0.038919 0.1742586,0.1137618 0.2391115,0.1622814 0.1586998,0.1187308 0.2535786,0.2020511 0.4161834,0.3654846 0.069666,0.07002 0.127981,0.1277145 0.1295907,0.1282095 0.0016,4.948e-4 0.00797,-0.011315 0.014146,-0.026247 z M 2.3452291,2.2901861 c 0.00555,-0.038879 0.00549,-0.3569682 -6.06e-5,-0.3960142 l -0.00429,-0.030222 -0.018248,0.00344 c -0.081764,0.015336 -0.1576643,0.098021 -0.1732108,0.188688 -0.018946,0.1105039 0.052514,0.2252279 0.1613085,0.2589577 0.02751,0.00853 0.030015,0.00673 0.034523,-0.024833 z M 3.5930104,2.8346714 C 3.5038519,2.8056046 2.8633106,2.5770494 2.8515602,2.5701079 c -0.018088,-0.010686 -0.036634,-0.041996 -0.036634,-0.061845 0,-0.042425 0.043258,-0.083655 0.082276,-0.078421 0.023443,0.00314 0.7500023,0.2586363 0.7713288,0.2712344 0.016469,0.00973 0.035633,0.043866 0.035633,0.063476 0,0.02465 -0.020067,0.055651 -0.043304,0.066902 -0.025073,0.012139 -0.038533,0.012775 -0.067851,0.0032 z M 2.857843,2.1592244 C 2.834921,2.1478794 2.814928,2.1167594 2.814928,2.0924254 c 0,-0.02465 0.020067,-0.055651 0.043304,-0.066902 0.021601,-0.010457 0.028877,-0.010651 0.4013155,-0.010651 0.372437,0 0.3797128,1.933e-4 0.4013156,0.010651 0.023237,0.011246 0.043304,0.042253 0.043304,0.066902 0,0.02465 -0.020067,0.055651 -0.043304,0.066902 -0.021606,0.010457 -0.028871,0.010651 -0.4016554,0.010646 C 2.8851834,2.1699702 2.8792324,2.16981 2.8578441,2.1592254 Z M 2.854933,1.7451613 c -0.02124,-0.012636 -0.040026,-0.044822 -0.040026,-0.068572 0,-0.025892 0.020187,-0.053688 0.048841,-0.067254 0.034711,-0.016436 0.7324434,-0.261329 0.7549568,-0.2649828 0.02759,-0.00446 0.061621,0.014496 0.074789,0.041698 0.00586,0.012099 0.010652,0.027511 0.010652,0.034249 0,0.019611 -0.019158,0.053746 -0.035633,0.063476 -0.024146,0.014262 -0.7505652,0.2687254 -0.7734705,0.2709432 -0.014839,0.00143 -0.026171,-0.00126 -0.040112,-0.00956 z" /></g></svg>
