<?xml version="1.0" encoding="UTF-8" standalone="no"?>
<svg
   width="16"
   height="16"
   version="1.1"
   id="svg1492"
   sodipodi:docname="humidity.svg"
   inkscape:version="1.2 (dc2aedaf03, 2022-05-15)"
   xml:space="preserve"
   xmlns:inkscape="http://www.inkscape.org/namespaces/inkscape"
   xmlns:sodipodi="http://sodipodi.sourceforge.net/DTD/sodipodi-0.dtd"
   xmlns="http://www.w3.org/2000/svg"
   xmlns:svg="http://www.w3.org/2000/svg"><defs
     id="defs1496" /><sodipodi:namedview
     id="namedview1494"
     pagecolor="#ffffff"
     bordercolor="#666666"
     borderopacity="1.0"
     inkscape:showpageshadow="2"
     inkscape:pageopacity="0.0"
     inkscape:pagecheckerboard="0"
     inkscape:deskcolor="#d1d1d1"
     showgrid="false"
     inkscape:zoom="25.25"
     inkscape:cx="14.851485"
     inkscape:cy="9.0693069"
     inkscape:window-width="1918"
     inkscape:window-height="1060"
     inkscape:window-x="0"
     inkscape:window-y="0"
     inkscape:window-maximized="1"
     inkscape:current-layer="svg1492"
     showguides="true"><sodipodi:guide
       position="14,18.019802"
       orientation="-1,0"
       id="guide6022"
       inkscape:locked="false"
       inkscape:label=""
       inkscape:color="rgb(0,134,229)" /></sodipodi:namedview><path
     style="fill:#444444;fill-opacity:1;stroke-width:0.0195381"
     d="M 8.6696589,12.857905 C 8.3661433,12.803048 8.0521566,12.639019 7.8349231,12.421776 7.4782312,12.065069 7.3056242,11.522719 7.3960918,11.042919 7.4179478,10.927218 7.6214464,10.320168 7.9922307,9.2649036 8.301889,8.3836175 8.5649205,7.6379315 8.5767558,7.6078243 c 0.024713,-0.062928 0.122009,-0.1585928 0.2073126,-0.2038071 0.1680285,-0.089064 0.4396598,0.00214 0.5312774,0.1782143 0.065926,0.1267215 1.1581432,3.2778225 1.1890632,3.4304435 0.03935,0.194079 0.03043,0.506758 -0.01971,0.69438 -0.134566,0.503136 -0.537641,0.932764 -1.0256849,1.093257 -0.2776595,0.0913 -0.5092069,0.108201 -0.7893235,0.05757 z M 9.2738404,11.980797 C 9.564028,11.838819 9.7370206,11.519733 9.6923225,11.208919 9.6741807,11.082825 8.9663321,9.0545464 8.9475971,9.0750107 8.9404522,9.0826546 8.7737975,9.5460894 8.5769129,10.10489 l -0.3579847,1.016008 -7.143e-4,0.185614 c -6.357e-4,0.1614 0.00643,0.200193 0.05164,0.297342 0.062712,0.133736 0.2098482,0.296679 0.3183792,0.352501 0.144244,0.0742 0.2291117,0.09245 0.4025828,0.08658 0.1379799,-0.005 0.1880706,-0.01564 0.2830452,-0.06214 z M 11.77334,9.3255963 c -0.381776,-0.0806 -0.745582,-0.2849927 -0.986114,-0.5540214 -0.20652,-0.2309858 -0.353457,-0.5026932 -0.433582,-0.801779 -0.06235,-0.2327072 -0.05928,-0.6377145 0.0064,-0.8738503 0.09872,-0.3538787 1.386604,-3.9847731 1.437075,-4.0514732 0.061,-0.080579 0.222725,-0.1587929 0.327735,-0.1584714 0.10161,3.142e-4 0.217876,0.055357 0.300487,0.1422 0.05864,0.061714 0.141058,0.2828858 0.737761,1.9806651 0.369442,1.051179 0.689321,1.9737223 0.710828,2.0501009 0.233198,0.8279432 -0.1674,1.7218293 -0.943953,2.1063652 C 12.66681,9.2956537 12.49276,9.3362319 12.16396,9.343932 11.993067,9.348222 11.846444,9.341072 11.773205,9.325575 Z m 0.664287,-0.8561358 c 0.148587,-0.048714 0.228233,-0.097372 0.356006,-0.2174287 0.245596,-0.2307501 0.362184,-0.5755145 0.298508,-0.8827004 -0.02192,-0.1058286 -0.943624,-2.7573368 -0.96638,-2.7801012 -0.005,-0.005 -0.014,0.00286 -0.01943,0.017643 -0.206049,0.568243 -0.931654,2.6637225 -0.946753,2.7341225 -0.06743,0.3144501 0.033,0.6528431 0.26326,0.8868004 0.266146,0.2704429 0.649036,0.3616286 1.014814,0.2416715 z M 6.4539105,7.7874673 C 6.1675513,7.7446816 5.9295329,7.618403 5.7172776,7.3966671 5.5630484,7.2355528 5.4577745,7.0497027 5.4030553,6.8419455 5.3629138,6.6894597 5.3629853,6.3702381 5.4032482,6.2198023 5.4200328,6.1570166 5.6192103,5.5767306 5.8458293,4.9302589 6.1309671,4.1168586 6.2743538,3.733787 6.3113809,3.6864656 6.5094439,3.4333369 6.8994987,3.4888083 7.0244147,3.7878728 c 0.042641,0.1021 0.8013159,2.2696295 0.8398714,2.3995296 0.098353,0.3313715 0.037642,0.7231717 -0.1604432,1.0355433 C 7.4499967,7.6232387 6.9291545,7.8584745 6.4539177,7.7874673 Z M 6.783875,6.9388026 C 6.9674743,6.8740883 7.0875764,6.6880811 7.0700486,6.4956453 7.0618343,6.4055095 6.6808438,5.2670876 6.6446096,5.2244376 6.625682,5.2021519 6.2105351,6.3953167 6.1997856,6.5030025 c -0.00714,0.069214 0.00286,0.1163358 0.039784,0.1976 0.1004386,0.2194073 0.3222935,0.3164859 0.5443198,0.2382001 z"
     id="path4132" /></svg>
