<?xml version="1.0" encoding="UTF-8" standalone="no"?>
<svg
   width="16"
   height="16"
   version="1.1"
   id="svg1492"
   sodipodi:docname="humidity.svg"
   inkscape:version="1.2 (dc2aedaf03, 2022-05-15)"
   xml:space="preserve"
   xmlns:inkscape="http://www.inkscape.org/namespaces/inkscape"
   xmlns:sodipodi="http://sodipodi.sourceforge.net/DTD/sodipodi-0.dtd"
   xmlns="http://www.w3.org/2000/svg"
   xmlns:svg="http://www.w3.org/2000/svg"><defs
     id="defs1496" /><sodipodi:namedview
     id="namedview1494"
     pagecolor="#ffffff"
     bordercolor="#666666"
     borderopacity="1.0"
     inkscape:showpageshadow="2"
     inkscape:pageopacity="0.0"
     inkscape:pagecheckerboard="0"
     inkscape:deskcolor="#d1d1d1"
     showgrid="false"
     inkscape:zoom="25.25"
     inkscape:cx="12"
     inkscape:cy="9.0693069"
     inkscape:window-width="1918"
     inkscape:window-height="1060"
     inkscape:window-x="0"
     inkscape:window-y="0"
     inkscape:window-maximized="1"
     inkscape:current-layer="svg1492" /><path
     style="fill:#444444;fill-opacity:1;stroke-width:0.0195381"
     d="M 7.0696589,12.857905 C 6.7661433,12.803048 6.4521566,12.639019 6.2349231,12.421776 5.8782312,12.065069 5.7056242,11.522719 5.7960918,11.042919 5.8179478,10.927218 6.0214464,10.320168 6.3922307,9.2649036 6.701889,8.3836175 6.9649205,7.6379315 6.9767558,7.6078243 c 0.024713,-0.062928 0.122009,-0.1585928 0.2073126,-0.2038071 0.1680285,-0.089064 0.4396598,0.00214 0.5312774,0.1782143 0.065926,0.1267215 1.1581434,3.2778225 1.1890636,3.4304435 0.039355,0.194079 0.030427,0.506758 -0.019714,0.69438 -0.1345657,0.503136 -0.5376413,0.932764 -1.0256849,1.093257 -0.2776595,0.0913 -0.5092069,0.108201 -0.7893235,0.05757 z M 7.6738404,11.980797 C 7.964028,11.838819 8.1370206,11.519733 8.0923225,11.208919 8.0741807,11.082825 7.3663321,9.0545464 7.3475971,9.0750107 7.3404522,9.0826546 7.1737975,9.5460894 6.9769129,10.10489 l -0.3579847,1.016008 -7.143e-4,0.185614 c -6.357e-4,0.1614 0.00643,0.200193 0.05164,0.297342 0.062712,0.133736 0.2098482,0.296679 0.3183792,0.352501 0.144244,0.0742 0.2291117,0.09245 0.4025828,0.08658 0.1379799,-0.005 0.1880706,-0.01564 0.2830452,-0.06214 z M 10.17334,9.3255963 C 9.7915643,9.2449965 9.4277582,9.0406036 9.1872259,8.7715749 8.9807061,8.5405891 8.8337695,8.2688817 8.7536444,7.9697959 8.6912897,7.7370887 8.6943611,7.3320814 8.7600728,7.0959456 8.8587901,6.7420669 10.146677,3.1111725 10.197148,3.0444724 c 0.061,-0.080579 0.222725,-0.1587929 0.327735,-0.1584714 0.10161,3.142e-4 0.217876,0.055357 0.300487,0.1422 0.05864,0.061714 0.141058,0.2828858 0.737761,1.9806651 0.369442,1.051179 0.689321,1.9737223 0.710828,2.0501009 C 12.507128,7.8869102 12.10653,8.7807963 11.329977,9.1653322 11.06681,9.2956537 10.89276,9.3362319 10.56396,9.343932 10.393067,9.348222 10.246444,9.341072 10.173205,9.325575 Z m 0.664287,-0.8561358 c 0.148587,-0.048714 0.228233,-0.097372 0.356006,-0.2174287 0.245596,-0.2307501 0.362184,-0.5755145 0.298508,-0.8827004 -0.02192,-0.1058286 -0.943624,-2.7573368 -0.96638,-2.7801012 -0.005,-0.005 -0.014,0.00286 -0.01943,0.017643 -0.206049,0.568243 -0.9316535,2.6637225 -0.9467526,2.7341225 -0.067428,0.3144501 0.033,0.6528431 0.2632599,0.8868004 0.2661457,0.2704429 0.6490357,0.3616286 1.0148137,0.2416715 z M 4.8539105,7.7874673 C 4.5675513,7.7446816 4.3295329,7.618403 4.1172776,7.3966671 3.9630484,7.2355528 3.8577745,7.0497027 3.8030553,6.8419455 3.7629138,6.6894597 3.7629853,6.3702381 3.8032482,6.2198023 3.8200328,6.1570166 4.0192103,5.5767306 4.2458293,4.9302589 4.5309671,4.1168586 4.6743538,3.733787 4.7113809,3.6864656 4.9094439,3.4333369 5.2994987,3.4888083 5.4244147,3.7878728 c 0.042641,0.1021 0.8013159,2.2696295 0.8398714,2.3995296 0.098353,0.3313715 0.037642,0.7231717 -0.1604432,1.0355433 C 5.8499967,7.6232387 5.3291545,7.8584745 4.8539177,7.7874673 Z M 5.183875,6.9388026 C 5.3674743,6.8740883 5.4875764,6.6880811 5.4700486,6.4956453 5.4618343,6.4055095 5.0808438,5.2670876 5.0446096,5.2244376 5.025682,5.2021519 4.6105351,6.3953167 4.5997856,6.5030025 c -0.00714,0.069214 0.00286,0.1163358 0.039784,0.1976 0.1004386,0.2194073 0.3222935,0.3164859 0.5443198,0.2382001 z"
     id="path4132" /></svg>
