<?xml version="1.0" encoding="UTF-8" standalone="no"?>
<svg
   width="16"
   height="16"
   version="1.1"
   id="svg1492"
   sodipodi:docname="humidity.svg"
   inkscape:version="1.2 (dc2aedaf03, 2022-05-15)"
   xml:space="preserve"
   xmlns:inkscape="http://www.inkscape.org/namespaces/inkscape"
   xmlns:sodipodi="http://sodipodi.sourceforge.net/DTD/sodipodi-0.dtd"
   xmlns="http://www.w3.org/2000/svg"
   xmlns:svg="http://www.w3.org/2000/svg"><defs
     id="defs1496" /><sodipodi:namedview
     id="namedview1494"
     pagecolor="#ffffff"
     bordercolor="#666666"
     borderopacity="1.0"
     inkscape:showpageshadow="2"
     inkscape:pageopacity="0.0"
     inkscape:pagecheckerboard="0"
     inkscape:deskcolor="#d1d1d1"
     showgrid="false"
     inkscape:zoom="25.25"
     inkscape:cx="9.2079208"
     inkscape:cy="9.1089109"
     inkscape:window-width="1918"
     inkscape:window-height="1059"
     inkscape:window-x="0"
     inkscape:window-y="0"
     inkscape:window-maximized="1"
     inkscape:current-layer="svg1492" /><path
     style="fill:#444444;fill-opacity:1;stroke-width:0.0242827"
     d="M 6.7705084,14.179206 C 6.393285,14.111028 6.0030478,13.907169 5.7330598,13.637174 5.2897465,13.193849 5.0752226,12.519803 5.1876599,11.923495 5.2148236,11.7797 5.4677411,11.025243 5.928569,9.7137333 6.3134267,8.6184487 6.6403346,7.6916914 6.655044,7.6542734 6.6857586,7.5760642 6.8066825,7.4571702 6.9127017,7.4009767 c 0.2088337,-0.1106914 0.5464297,0.00266 0.6602962,0.2214893 0.081936,0.1574926 1.4393946,4.07376 1.4778236,4.263442 0.048913,0.241206 0.037816,0.629811 -0.024501,0.862992 -0.1672445,0.62531 -0.6682057,1.159263 -1.2747689,1.358728 -0.3450883,0.11347 -0.632866,0.134474 -0.9810079,0.07155 z M 7.5214131,13.089114 C 7.8820718,12.91266 8.0970751,12.516092 8.0415222,12.129804 8.0189747,11.973092 7.1392275,9.452296 7.1159428,9.4777296 c -0.00888,0.0095 -0.2160063,0.5854684 -0.4607035,1.2799594 l -0.4449201,1.26272 -8.877e-4,0.230686 c -7.901e-4,0.200592 0.00799,0.248805 0.064181,0.369545 0.077941,0.16621 0.2608091,0.36872 0.3956966,0.438096 0.179273,0.09222 0.2847506,0.114899 0.5003486,0.107602 0.1714878,-0.0062 0.2337429,-0.01944 0.3517817,-0.07723 z M 10.627908,9.7891636 C 10.153419,9.6889922 9.7012638,9.4349675 9.4023191,9.1006119 9.1456466,8.8135369 8.963027,8.4758522 8.8634438,8.1041408 8.7859465,7.8149264 8.7897637,7.3115731 8.8714334,7.0180976 8.9941238,6.5782882 10.59477,2.0657212 10.657497,1.9828247 c 0.07581,-0.1001451 0.276813,-0.1973518 0.407324,-0.1969523 0.126286,3.906e-4 0.270787,0.068799 0.37346,0.1767298 0.07288,0.0767 0.175313,0.3515776 0.916924,2.4616205 0.459159,1.3064317 0.85672,2.4529917 0.883449,2.547917 0.289793,1.0289886 -0.208088,2.1399328 -1.173224,2.6178437 -0.327076,0.1619668 -0.543394,0.2123985 -0.952042,0.2219683 -0.212393,0.00533 -0.394623,-0.00355 -0.485648,-0.022815 z m 0.825606,-1.0640271 c 0.184671,-0.060543 0.283659,-0.1210158 0.442461,-0.2702259 0.305239,-0.286782 0.45014,-0.7152639 0.371,-1.0970422 -0.02725,-0.1315265 -1.17278,-3.4268877 -1.201062,-3.4551798 -0.0062,-0.00621 -0.0174,0.00355 -0.02415,0.021927 -0.256087,0.7062269 -1.1579019,3.3105415 -1.1766677,3.3980364 -0.083802,0.3908066 0.041013,0.8113699 0.3271917,1.1021379 0.330778,0.3361133 0.806652,0.4494412 1.261258,0.3003554 z M 4.0166731,7.8775382 C 3.6607726,7.824363 3.3649522,7.6674208 3.1011515,7.3918419 2.9094684,7.1916049 2.7786289,6.9606258 2.7106214,6.7024199 2.6607317,6.5129067 2.6608205,6.1161701 2.7108611,5.9292047 2.7317219,5.851173 2.9792689,5.129979 3.2609215,4.3265277 3.6153041,3.3156133 3.7935118,2.8395223 3.8395307,2.78071 4.0856926,2.4661153 4.5704709,2.5350566 4.7257223,2.9067414 4.7787191,3.0336339 5.721635,5.7274941 5.7695535,5.8889372 5.8917912,6.3007741 5.8163362,6.7877132 5.5701473,7.1759365 5.2546553,7.6734307 4.6073285,7.9657877 4.016682,7.8775382 Z M 4.4267684,6.8227964 C 4.6549542,6.7423678 4.8042226,6.5111934 4.7824382,6.2720293 4.7722292,6.1600063 4.2987163,4.7451469 4.2536828,4.6921404 4.2301587,4.6644431 3.7141949,6.1473384 3.7008349,6.281173 c -0.00888,0.086021 0.00355,0.144585 0.049446,0.2455823 0.1248297,0.2726849 0.4005612,0.3933366 0.6765058,0.2960411 z"
     id="path4132" /></svg>
