<?xml version="1.0" encoding="UTF-8" standalone="no"?>
<!-- Created with Inkscape (http://www.inkscape.org/) -->

<svg
   width="16"
   height="16"
   viewBox="0 0 4.2333332 4.2333333"
   version="1.1"
   id="svg1"
   xml:space="preserve"
   inkscape:version="1.3.2 (091e20ef0f, 2023-11-25, custom)"
   sodipodi:docname="idle-inhibitor-inactive.svg"
   xmlns:inkscape="http://www.inkscape.org/namespaces/inkscape"
   xmlns:sodipodi="http://sodipodi.sourceforge.net/DTD/sodipodi-0.dtd"
   xmlns="http://www.w3.org/2000/svg"
   xmlns:svg="http://www.w3.org/2000/svg"><sodipodi:namedview
     id="namedview1"
     pagecolor="#ffffff"
     bordercolor="#666666"
     borderopacity="1.0"
     inkscape:showpageshadow="2"
     inkscape:pageopacity="0.0"
     inkscape:pagecheckerboard="0"
     inkscape:deskcolor="#d1d1d1"
     inkscape:document-units="mm"
     showguides="true"
     inkscape:zoom="30.76563"
     inkscape:cx="14.090399"
     inkscape:cy="5.281868"
     inkscape:window-width="2552"
     inkscape:window-height="1372"
     inkscape:window-x="0"
     inkscape:window-y="0"
     inkscape:window-maximized="1"
     inkscape:current-layer="layer1"><sodipodi:guide
       position="2.1166666,5.04849"
       orientation="-1,0"
       id="guide1"
       inkscape:locked="false"
       inkscape:label=""
       inkscape:color="rgb(0,134,229)" /><sodipodi:guide
       position="-0.022031262,2.1166666"
       orientation="0,1"
       id="guide2"
       inkscape:locked="false"
       inkscape:label=""
       inkscape:color="rgb(0,134,229)" /></sodipodi:namedview><defs
     id="defs1" /><g
     inkscape:label="Warstwa 1"
     inkscape:groupmode="layer"
     id="layer1"><path
       id="rect1-7-6"
       style="fill:#444444;stroke:none;stroke-width:0.390615;stroke-linecap:round;stroke-linejoin:round;stroke-miterlimit:2;fill-opacity:1"
       inkscape:transform-center-x="0.3559104"
       inkscape:transform-center-y="-0.31499092"
       d="M 1.1104627,1.523047 1.8071394,2.1502471 A 0.30733117,0.30733117 0 0 0 1.906593,2.3510354 0.30733117,0.30733117 0 0 0 2.3408303,2.3282467 0.30733117,0.30733117 0 0 0 2.3180418,1.8940093 0.30733117,0.30733117 0 0 0 2.1071784,1.8154273 L 1.4112698,1.1889187 Z m 1.006204,-1.25846367 a 1.8520833,1.8522273 0 0 0 -0.2299602,0.0160197 l 0.00413,0.46612142 a 1.3890625,1.3890625 0 0 1 0.00103,0 v 0.1012858 l 0.00362,0.39584145 H 2.3414591 V 0.74620768 A 1.3890625,1.3890625 0 0 1 3.5057292,2.1166667 1.3890625,1.3890625 0 0 1 2.1166667,3.5057292 1.3890625,1.3890625 0 0 1 0.72760417,2.1166667 1.3890625,1.3890625 0 0 1 0.80563558,1.6634644 L 0.37982178,1.4862142 A 1.8520833,1.8522273 0 0 0 0.26458333,2.1166667 1.8520833,1.8522273 0 0 0 2.1166667,3.9692668 1.8520833,1.8522273 0 0 0 3.96875,2.1166667 1.8520833,1.8522273 0 0 0 2.1166667,0.26458333 Z" /></g></svg>
