<?xml version="1.0" encoding="UTF-8" standalone="no"?>
<svg
   width="16"
   height="16"
   version="1.1"
   id="svg1"
   sodipodi:docname="idle-inhibitor-active.svg"
   inkscape:version="1.3.2 (091e20ef0f, 2023-11-25, custom)"
   xmlns:inkscape="http://www.inkscape.org/namespaces/inkscape"
   xmlns:sodipodi="http://sodipodi.sourceforge.net/DTD/sodipodi-0.dtd"
   xmlns="http://www.w3.org/2000/svg"
   xmlns:svg="http://www.w3.org/2000/svg">
  <sodipodi:namedview
     id="namedview1"
     pagecolor="#ffffff"
     bordercolor="#666666"
     borderopacity="1.0"
     inkscape:showpageshadow="2"
     inkscape:pageopacity="0.0"
     inkscape:pagecheckerboard="0"
     inkscape:deskcolor="#d1d1d1"
     inkscape:zoom="25.660389"
     inkscape:cx="8.1448492"
     inkscape:cy="7.85257"
     inkscape:window-width="2552"
     inkscape:window-height="1372"
     inkscape:window-x="0"
     inkscape:window-y="0"
     inkscape:window-maximized="1"
     inkscape:current-layer="svg1"
     showgrid="false" />
  <defs
     id="defs1">
    <style
       id="current-color-scheme"
       type="text/css">
   .ColorScheme-Text { color:#dfdfdf; } .ColorScheme-Highlight { color:#4285f4; } .ColorScheme-NeutralText { color:#ff9800; } .ColorScheme-PositiveText { color:#4caf50; } .ColorScheme-NegativeText { color:#f44336; }
  </style>
  </defs>
  <path
     id="rect2"
     style="fill:#444444;fill-opacity:1;stroke-width:0.349622"
     d="M 8.0078125 1 C 6.8221637 0.9999995 5.7088189 1.2940197 4.7324219 1.8105469 L 4.171875 1.25 C 3.8979563 0.97608097 3.4575135 0.97608097 3.1835938 1.25 L 1.2050781 3.2265625 C 0.93115843 3.5004817 0.93115943 3.9409247 1.2050781 4.2148438 L 1.7851562 4.7949219 C 1.2940577 5.7524546 1.015625 6.8381058 1.015625 7.9921875 C 1.015625 11.865991 4.1340094 14.984375 8.0078125 14.984375 C 11.881615 14.984374 15 11.865989 15 7.9921875 C 15 4.1183841 11.881616 1 8.0078125 1 z M 7.0371094 3.7421875 L 8.9628906 3.7421875 L 8.9628906 8.9023438 L 7.0371094 8.9023438 L 7.0371094 3.7421875 z M 8 9.859375 C 8.1624837 9.859375 8.3211525 9.8806446 8.4746094 9.9257812 C 8.6280662 9.9709179 8.758865 10.052575 8.8671875 10.169922 C 8.9845368 10.278244 9.0642406 10.413688 9.109375 10.576172 C 9.1635356 10.729628 9.1914062 10.888297 9.1914062 11.050781 C 9.1914062 11.213265 9.1635356 11.369981 9.109375 11.523438 C 9.0642404 11.676895 8.9845366 11.812338 8.8671875 11.929688 C 8.758865 12.038013 8.6280662 12.115022 8.4746094 12.160156 C 8.3211525 12.214316 8.1624837 12.242187 8 12.242188 C 7.8375162 12.242188 7.6788475 12.214323 7.5253906 12.160156 C 7.3719338 12.115016 7.23649 12.038005 7.1191406 11.929688 C 7.0108182 11.812338 6.9311144 11.676895 6.8769531 11.523438 C 6.8318185 11.369981 6.8085938 11.213265 6.8085938 11.050781 C 6.8085938 10.888297 6.8318185 10.729628 6.8769531 10.576172 C 6.9311137 10.413688 7.0108175 10.278244 7.1191406 10.169922 C 7.23649 10.052573 7.3719338 9.9709157 7.5253906 9.9257812 C 7.6788475 9.8806446 7.8375162 9.859375 8 9.859375 z " />
</svg>
