<?xml version="1.0" encoding="UTF-8" standalone="no"?>
<svg
   width="16"
   height="16"
   version="1.1"
   id="svg190"
   sodipodi:docname="music.svg"
   inkscape:version="1.2.1 (9c6d41e410, 2022-07-14, custom)"
   xmlns:inkscape="http://www.inkscape.org/namespaces/inkscape"
   xmlns:sodipodi="http://sodipodi.sourceforge.net/DTD/sodipodi-0.dtd"
   xmlns="http://www.w3.org/2000/svg"
   xmlns:svg="http://www.w3.org/2000/svg">
  <defs
     id="defs194" />
  <sodipodi:namedview
     id="namedview192"
     pagecolor="#ffffff"
     bordercolor="#666666"
     borderopacity="1.0"
     inkscape:showpageshadow="2"
     inkscape:pageopacity="0.0"
     inkscape:pagecheckerboard="0"
     inkscape:deskcolor="#d1d1d1"
     showgrid="false"
     inkscape:zoom="36.725358"
     inkscape:cx="8.0189823"
     inkscape:cy="8.0189823"
     inkscape:window-width="1918"
     inkscape:window-height="1059"
     inkscape:window-x="0"
     inkscape:window-y="0"
     inkscape:window-maximized="1"
     inkscape:current-layer="svg190" />
  <path
     style="fill:#444444;fill-opacity:1"
     d="M 5,1 C 5,1 5,1 5,2 V 9.19 C 4.68,9.07 4.36,9 4,9 2.34,9 1,10.34 1,12 1,13.66 2.34,15 4,15 5.66,15 7,13.66 7,12 V 5 H 13 V 9.19 C 12.68,9.07 12.36,9 12,9 10.34,9 9,10.34 9,12 9,13.66 10.34,15 12,15 13.66,15 15,13.66 15,12 V 1 C 15,1 15,1 14,1 Z"
     id="path188" />
</svg>
