<?xml version="1.0" encoding="UTF-8" standalone="no"?>
<svg
   width="16"
   height="16"
   version="1.1"
   id="svg190"
   sodipodi:docname="music.svg"
   inkscape:version="1.2.1 (9c6d41e410, 2022-07-14, custom)"
   xmlns:inkscape="http://www.inkscape.org/namespaces/inkscape"
   xmlns:sodipodi="http://sodipodi.sourceforge.net/DTD/sodipodi-0.dtd"
   xmlns="http://www.w3.org/2000/svg"
   xmlns:svg="http://www.w3.org/2000/svg">
  <defs
     id="defs194" />
  <sodipodi:namedview
     id="namedview192"
     pagecolor="#ffffff"
     bordercolor="#666666"
     borderopacity="1.0"
     inkscape:showpageshadow="2"
     inkscape:pageopacity="0.0"
     inkscape:pagecheckerboard="0"
     inkscape:deskcolor="#d1d1d1"
     showgrid="false"
     inkscape:zoom="36.725358"
     inkscape:cx="8.0189824"
     inkscape:cy="8.0053678"
     inkscape:window-width="1918"
     inkscape:window-height="1018"
     inkscape:window-x="0"
     inkscape:window-y="0"
     inkscape:window-maximized="1"
     inkscape:current-layer="svg190" />
  <path
     style="fill:#444444;fill-opacity:1;stroke-width:0.714286"
     d="m 5.8571429,3 c 0,0 0,0 0,0.7142857 V 8.85 C 5.6285714,8.7642857 5.4,8.7142857 5.1428571,8.7142857 3.9571429,8.7142857 3,9.6714286 3,10.857143 3,12.042857 3.9571429,13 5.1428571,13 6.3285714,13 7.2857143,12.042857 7.2857143,10.857143 V 5.8571429 H 11.571429 V 8.85 C 11.342857,8.764286 11.114286,8.7142857 10.857143,8.7142857 c -1.1857144,0 -2.1428573,0.9571429 -2.1428573,2.1428573 C 8.7142857,12.042857 9.6714286,13 10.857143,13 12.042857,13 13,12.042857 13,10.857143 V 3 c 0,0 0,0 -0.714286,0 z"
     id="path188" />
</svg>
