<?xml version="1.0" encoding="UTF-8" standalone="no"?>
<svg
   xmlns:dc="http://purl.org/dc/elements/1.1/"
   xmlns:cc="http://creativecommons.org/ns#"
   xmlns:rdf="http://www.w3.org/1999/02/22-rdf-syntax-ns#"
   xmlns:svg="http://www.w3.org/2000/svg"
   xmlns="http://www.w3.org/2000/svg"
   xmlns:sodipodi="http://sodipodi.sourceforge.net/DTD/sodipodi-0.dtd"
   xmlns:inkscape="http://www.inkscape.org/namespaces/inkscape"
   width="16"
   height="16"
   viewBox="0 0 4.2333333 4.2333335"
   version="1.1"
   id="svg8"
   inkscape:version="1.0.1 (3bc2e813f5, 2020-09-07, custom)"
   sodipodi:docname="network-wired-disconnected-symbolic.svg">
  <defs
     id="defs2" />
  <sodipodi:namedview
     id="base"
     pagecolor="#ffffff"
     bordercolor="#666666"
     borderopacity="1.0"
     inkscape:pageopacity="0.0"
     inkscape:pageshadow="2"
     inkscape:zoom="26.42352"
     inkscape:cx="7.9239244"
     inkscape:cy="8"
     inkscape:document-units="mm"
     inkscape:current-layer="layer1"
     showgrid="false"
     units="px"
     inkscape:window-width="1920"
     inkscape:window-height="1030"
     inkscape:window-x="0"
     inkscape:window-y="0"
     inkscape:window-maximized="1"
     inkscape:document-rotation="0"
     inkscape:snap-global="false" />
  <metadata
     id="metadata5">
    <rdf:RDF>
      <cc:Work
         rdf:about="">
        <dc:format>image/svg+xml</dc:format>
        <dc:type
           rdf:resource="http://purl.org/dc/dcmitype/StillImage" />
        <dc:title></dc:title>
      </cc:Work>
    </rdf:RDF>
  </metadata>
  <g
     inkscape:label="Layer 1"
     inkscape:groupmode="layer"
     id="layer1"
     transform="translate(0,-280.06665)">
    <path
       id="path4550"
       style="opacity:1;fill:#444444;fill-opacity:0.29797226;stroke:none;stroke-width:1.23969;stroke-linecap:square;stroke-linejoin:miter;stroke-miterlimit:4;stroke-dasharray:none;paint-order:markers stroke fill"
       d="M 7.9980469 1 C 7.5881284 1 7.1083499 1.4472027 6.7226562 2.3808594 C 6.6325222 2.5989381 6.5488355 2.8398424 6.4746094 3.0996094 L 9.5234375 3.0996094 C 9.4492114 2.8399558 9.3655286 2.5990515 9.2753906 2.3808594 C 8.8897008 1.4472027 8.4079688 1 7.9980469 1 z M 7.2246094 1.0078125 A 5.1933138 5.1933138 0 0 0 3.7910156 3.1015625 L 5.7539062 3.1015625 C 5.8292285 2.8819719 5.9125627 2.6736148 6.0039062 2.4785156 C 6.3106716 1.8234101 6.7209408 1.2854944 7.2246094 1.0078125 z M 8.7773438 1.0097656 C 9.2789055 1.2883168 9.6883825 1.8235735 9.9941406 2.4765625 C 10.085484 2.6715861 10.168822 2.8819719 10.244141 3.1015625 L 12.201172 3.1015625 A 5.1933138 5.1933138 0 0 0 8.7773438 1.0097656 z M 3.2988281 3.9414062 A 5.1933138 5.1933138 0 0 0 2.8261719 5.7519531 L 5.296875 5.7519531 C 5.3187963 5.1103027 5.3953436 4.5010409 5.5195312 3.9414062 L 3.2988281 3.9414062 z M 6.2792969 3.9414062 C 6.1755942 4.497337 6.109535 5.1078838 6.0898438 5.7519531 L 9.9082031 5.7519531 C 9.8885496 5.1078838 9.8224943 4.497337 9.71875 3.9414062 L 6.2792969 3.9414062 z M 10.478516 3.9414062 C 10.602703 4.5010409 10.679099 5.1103027 10.701172 5.7519531 L 13.171875 5.7519531 A 5.1933138 5.1933138 0 0 0 12.695312 3.9414062 L 10.478516 3.9414062 z M 2.828125 6.59375 A 5.1933138 5.1933138 0 0 0 3.3359375 8.4042969 L 5.5351562 8.4042969 C 5.4063954 7.8458339 5.3249447 7.2366098 5.2988281 6.59375 L 2.828125 6.59375 z M 6.0898438 6.59375 C 6.1117649 7.2387264 6.1810256 7.8493488 6.2871094 8.4042969 L 9.7089844 8.4042969 C 9.8151059 7.8493488 9.8842569 7.2387264 9.90625 6.59375 L 6.0898438 6.59375 z M 10.697266 6.59375 C 10.671187 7.2366098 10.591689 7.8458339 10.462891 8.4042969 L 12.664062 8.4042969 A 5.1933138 5.1933138 0 0 0 13.166016 6.59375 L 10.697266 6.59375 z M 3.8496094 9.2441406 A 5.1933138 5.1933138 0 0 0 7.2207031 11.265625 C 6.7193718 10.987074 6.3096303 10.451742 6.0039062 9.7988281 C 5.9222005 9.624214 5.8482317 9.4384083 5.7792969 9.2441406 L 3.8496094 9.2441406 z M 6.4882812 9.2441406 C 6.559068 9.4864083 6.6378475 9.712627 6.7226562 9.9179688 C 6.9759073 10.531008 7.2704172 10.929991 7.5585938 11.134766 L 7.5585938 11.144531 L 8.4414062 11.144531 L 8.4414062 11.132812 C 8.7291984 10.927585 9.0226744 10.529723 9.2753906 9.9179688 C 9.3601957 9.7127404 9.4389789 9.4864461 9.5097656 9.2441406 L 6.4882812 9.2441406 z M 10.21875 9.2441406 C 10.149777 9.4384083 10.075888 9.6242895 9.9941406 9.7988281 C 9.6873413 10.454009 9.2753513 10.991849 8.7714844 11.269531 A 5.1933138 5.1933138 0 0 0 12.152344 9.2441406 L 10.21875 9.2441406 z M 6.9980469 12.125 L 6.3320312 12.126953 L 6.3320312 12.792969 C 6.3320312 12.980055 6.3974761 13.153249 6.5175781 13.273438 L 6.6582031 13.414062 L 1 13.414062 L 1 14.296875 L 6.5351562 14.296875 L 6.5175781 14.314453 C 6.3974761 14.441067 6.3320313 14.614601 6.3320312 14.794922 L 6.3320312 15.462891 L 6.9980469 15.462891 C 7.1848689 15.462891 7.358414 15.39558 7.4785156 15.275391 L 8 14.755859 L 8.5195312 15.275391 C 8.6396333 15.395202 8.8198492 15.462891 9 15.462891 L 9.6679688 15.462891 L 9.6679688 14.794922 C 9.6679688 14.614638 9.6005708 14.441105 9.4804688 14.314453 L 9.4628906 14.296875 L 14.998047 14.296875 L 14.998047 13.414062 L 9.3398438 13.414062 L 9.4804688 13.273438 C 9.6005708 13.153626 9.6679687 12.979677 9.6679688 12.792969 L 9.6679688 12.126953 L 9 12.126953 C 8.819845 12.126953 8.6396329 12.192689 8.5195312 12.3125 L 8 12.839844 L 7.4785156 12.3125 C 7.3584136 12.192689 7.1848723 12.125 6.9980469 12.125 z "
       transform="matrix(0.26458333,0,0,0.26458333,0,280.06665)" />
  </g>
</svg>
