<?xml version="1.0" encoding="UTF-8" standalone="no"?>
<svg
   xmlns:dc="http://purl.org/dc/elements/1.1/"
   xmlns:cc="http://creativecommons.org/ns#"
   xmlns:rdf="http://www.w3.org/1999/02/22-rdf-syntax-ns#"
   xmlns:svg="http://www.w3.org/2000/svg"
   xmlns="http://www.w3.org/2000/svg"
   xmlns:sodipodi="http://sodipodi.sourceforge.net/DTD/sodipodi-0.dtd"
   xmlns:inkscape="http://www.inkscape.org/namespaces/inkscape"
   width="16"
   height="16"
   viewBox="0 0 4.2333332 4.2333335"
   version="1.1"
   id="svg8"
   inkscape:version="1.0.2 (e86c870879, 2021-01-15)"
   sodipodi:docname="nwg-panel.svg">
  <defs
     id="defs2" />
  <sodipodi:namedview
     id="base"
     pagecolor="#ffffff"
     bordercolor="#666666"
     borderopacity="1.0"
     inkscape:pageopacity="0.0"
     inkscape:pageshadow="2"
     inkscape:zoom="32.453386"
     inkscape:cx="9.2517083"
     inkscape:cy="8.9498384"
     inkscape:document-units="mm"
     inkscape:current-layer="layer1"
     inkscape:document-rotation="0"
     showgrid="false"
     units="px"
     inkscape:window-width="1908"
     inkscape:window-height="1008"
     inkscape:window-x="0"
     inkscape:window-y="0"
     inkscape:window-maximized="1" />
  <metadata
     id="metadata5">
    <rdf:RDF>
      <cc:Work
         rdf:about="">
        <dc:format>image/svg+xml</dc:format>
        <dc:type
           rdf:resource="http://purl.org/dc/dcmitype/StillImage" />
        <dc:title></dc:title>
      </cc:Work>
    </rdf:RDF>
  </metadata>
  <g
     inkscape:label="Warstwa 1"
     inkscape:groupmode="layer"
     id="layer1">
    <path
       id="rect837"
       style="fill:#444444;stroke-width:13.4988"
       d="M 1 1 L 1 15 L 15 15 L 15 1 L 1 1 z M 9.4296875 3 C 10.608775 3 11.498942 3.3077281 12.099609 3.9238281 C 12.700277 4.5341157 13 5.4473463 13 6.6621094 L 13 13 L 9.7636719 13 L 9.7636719 7.0546875 C 9.7636719 6.3455909 9.6325946 5.8393469 9.3730469 5.5371094 C 9.1209148 5.2290595 8.7053738 5.0742188 8.1269531 5.0742188 C 7.541117 5.0742188 7.0794007 5.2806886 6.7382812 5.6933594 C 6.4045772 6.1060301 6.2363281 6.6797644 6.2363281 7.4121094 L 6.2363281 13 L 3 13 L 3 3.2363281 L 6.2363281 3.2363281 L 6.2363281 4.6992188 C 6.4662141 4.1586783 6.859843 3.7417379 7.4160156 3.4453125 C 7.972189 3.148887 8.6436289 3 9.4296875 3 z "
       transform="scale(0.26458333)" />
  </g>
</svg>
