<?xml version="1.0" encoding="UTF-8" standalone="no"?>
<svg
   xmlns:dc="http://purl.org/dc/elements/1.1/"
   xmlns:cc="http://creativecommons.org/ns#"
   xmlns:rdf="http://www.w3.org/1999/02/22-rdf-syntax-ns#"
   xmlns:svg="http://www.w3.org/2000/svg"
   xmlns="http://www.w3.org/2000/svg"
   xmlns:sodipodi="http://sodipodi.sourceforge.net/DTD/sodipodi-0.dtd"
   xmlns:inkscape="http://www.inkscape.org/namespaces/inkscape"
   width="16"
   height="16"
   viewBox="0 0 4.2333332 4.2333335"
   version="1.1"
   id="svg8"
   inkscape:version="1.0.2 (e86c870879, 2021-01-15)"
   sodipodi:docname="nwg-panel.svg">
  <defs
     id="defs2" />
  <sodipodi:namedview
     id="base"
     pagecolor="#ffffff"
     bordercolor="#666666"
     borderopacity="1.0"
     inkscape:pageopacity="0.0"
     inkscape:pageshadow="2"
     inkscape:zoom="35.588419"
     inkscape:cx="8.0855329"
     inkscape:cy="8.5049981"
     inkscape:document-units="mm"
     inkscape:current-layer="layer1"
     inkscape:document-rotation="0"
     showgrid="false"
     units="px"
     width="1920px"
     showguides="true"
     inkscape:guide-bbox="true"
     inkscape:window-width="1908"
     inkscape:window-height="1008"
     inkscape:window-x="0"
     inkscape:window-y="0"
     inkscape:window-maximized="1" />
  <metadata
     id="metadata5">
    <rdf:RDF>
      <cc:Work
         rdf:about="">
        <dc:format>image/svg+xml</dc:format>
        <dc:type
           rdf:resource="http://purl.org/dc/dcmitype/StillImage" />
        <dc:title></dc:title>
      </cc:Work>
    </rdf:RDF>
  </metadata>
  <g
     inkscape:label="Warstwa 1"
     inkscape:groupmode="layer"
     id="layer1">
    <path
       id="path1631"
       style="fill:#444444;fill-opacity:1;stroke:none;stroke-width:0.258477"
       d="M 2.1156045,1.2995054 A 0.84667146,0.72720118 0 0 0 1.2715122,1.9831853 c 0.058676,-0.033925 0.1353391,-0.061725 0.223519,-0.083924 0.1588445,-0.039995 0.3558238,-0.061447 0.5552429,-0.064133 0.199419,-0.00269 0.4012079,0.013424 0.5695751,0.048982 0.1485609,0.031373 0.2713954,0.077581 0.3434853,0.1410243 a 0.84667146,0.72720118 0 0 0 -0.8466632,-0.7256327 0.84667146,0.72720118 0 0 0 -8.744e-4,0 z M 1.9837194,1.4183773 a 0.13170654,0.22087403 79.626603 0 1 0.1740337,0.086798 0.13170654,0.22087403 79.626603 0 1 -0.176246,0.1751841 0.13170654,0.22087403 79.626603 0 1 -0.2539063,-0.077732 0.13170654,0.22087403 79.626603 0 1 0.1762373,-0.175184 0.13170654,0.22087403 79.626603 0 1 0.079838,-0.00906 z m 0.1040163,0.6292185 c -0.012417,1.19e-5 -0.024747,1.038e-4 -0.037164,2.805e-4 -0.1980374,0.00269 -0.3937051,0.024067 -0.5502497,0.063483 -0.093462,0.023536 -0.1726783,0.053641 -0.2303048,0.089412 a 0.84667148,0.72720121 0 0 0 -1.75e-5,0.00586 0.84667148,0.72720121 0 0 0 0.8466716,0.7272002 0.84667148,0.72720121 0 0 0 0.8455176,-0.6893159 C 2.8968673,2.1794045 2.7713832,2.1293268 2.615372,2.0963779 2.4595095,2.0634593 2.2735482,2.0472773 2.0877357,2.0475784 Z" />
    <path
       id="path2-3"
       style="fill:#444444;fill-opacity:1;stroke:none;stroke-width:0.265724"
       d="M 1.6496649,0.26458333 1.6097023,0.75147887 A 1.4677954,1.4552084 0 0 0 1.179961,0.99745889 L 0.73158511,0.78837587 0.26458333,1.5928745 0.67026845,1.8706871 a 1.4677954,1.4552084 0 0 0 -0.0213367,0.24598 1.4677954,1.4552084 0 0 0 0.0213367,0.24598 L 0.26458333,2.6404596 0.73158511,3.4449583 1.1772415,3.2358753 A 1.4677954,1.4552084 0 0 0 1.6097023,3.4793231 L 1.6496653,3.96875 H 2.5836684 L 2.6236309,3.4818544 A 1.4677954,1.4552084 0 0 0 3.0247951,3.2588449 V 2.8437545 C 2.8110787,3.109975 2.4835523,3.2812729 2.1168415,3.2812729 c -0.6415776,0 -1.16479797,-0.5230313 -1.16479797,-1.1646058 0,-0.6415755 0.52322037,-1.16460584 1.16479797,-1.16460584 0.3667108,0 0.6942372,0.17129794 0.9079536,0.43751834 V 0.97267976 A 1.4677954,1.4552084 0 0 0 2.6236309,0.75401112 L 2.5836684,0.26458333 Z M 2.5836684,3.96875 2.6236309,3.4818544 A 1.4677954,1.4552084 0 0 0 3.0533723,3.2358753 L 3.5017482,3.4449583 3.96875,2.6404587 3.5630561,2.3626471 a 1.4677954,1.4552084 0 0 0 0.021337,-0.24598 1.4677954,1.4552084 0 0 0 -0.021337,-0.24598 L 3.96875,1.5928745 3.5017482,0.78837587 3.0560831,0.99745889 A 1.4677954,1.4552084 0 0 0 2.6236309,0.75401112 L 2.5836684,0.26458333 H 1.6496649 L 1.6097023,0.75147887 A 1.4677954,1.4552084 0 0 0 1.2085382,0.97448839 V 1.3895796 C 1.4222545,1.1233592 1.749781,0.95206126 2.1164917,0.95206126 c 0.6415777,0 1.1647893,0.52303034 1.1647893,1.16460584 0,0.6415745 -0.5232116,1.1646058 -1.1647893,1.1646058 -0.3667107,0 -0.6942372,-0.1712979 -0.9079535,-0.4375184 v 0.416899 A 1.4677954,1.4552084 0 0 0 1.6097023,3.4793231 L 1.6496653,3.96875 Z" />
  </g>
</svg>
