<?xml version="1.0" encoding="UTF-8" standalone="no"?>
<!-- Created with Inkscape (http://www.inkscape.org/) -->

<svg
   width="16"
   height="16"
   viewBox="0 0 4.2333333 4.2333333"
   version="1.1"
   id="svg8"
   inkscape:version="1.2 (dc2aedaf03, 2022-05-15)"
   sodipodi:docname="ow-01d.svg"
   xmlns:inkscape="http://www.inkscape.org/namespaces/inkscape"
   xmlns:sodipodi="http://sodipodi.sourceforge.net/DTD/sodipodi-0.dtd"
   xmlns="http://www.w3.org/2000/svg"
   xmlns:svg="http://www.w3.org/2000/svg"
   xmlns:rdf="http://www.w3.org/1999/02/22-rdf-syntax-ns#"
   xmlns:cc="http://creativecommons.org/ns#"
   xmlns:dc="http://purl.org/dc/elements/1.1/">
  <defs
     id="defs2" />
  <sodipodi:namedview
     id="base"
     pagecolor="#ffffff"
     bordercolor="#666666"
     borderopacity="1.0"
     inkscape:pageopacity="0.0"
     inkscape:pageshadow="2"
     inkscape:zoom="18.044444"
     inkscape:cx="7.5646552"
     inkscape:cy="10.972906"
     inkscape:document-units="px"
     inkscape:current-layer="layer1"
     showgrid="false"
     units="px"
     inkscape:window-width="1918"
     inkscape:window-height="1060"
     inkscape:window-x="0"
     inkscape:window-y="0"
     inkscape:window-maximized="1"
     inkscape:showpageshadow="2"
     inkscape:pagecheckerboard="0"
     inkscape:deskcolor="#d1d1d1" />
  <metadata
     id="metadata5">
    <rdf:RDF>
      <cc:Work
         rdf:about="">
        <dc:format>image/svg+xml</dc:format>
        <dc:type
           rdf:resource="http://purl.org/dc/dcmitype/StillImage" />
      </cc:Work>
    </rdf:RDF>
  </metadata>
  <g
     inkscape:label="Layer 1"
     inkscape:groupmode="layer"
     id="layer1"
     transform="translate(0,-284.29998)">
    <path
       style="color:#000000;font-style:normal;font-variant:normal;font-weight:normal;font-stretch:normal;font-size:medium;line-height:normal;font-family:sans-serif;font-variant-ligatures:normal;font-variant-position:normal;font-variant-caps:normal;font-variant-numeric:normal;font-variant-alternates:normal;font-feature-settings:normal;text-indent:0;text-align:start;text-decoration:none;text-decoration-line:none;text-decoration-style:solid;text-decoration-color:#000000;letter-spacing:normal;word-spacing:normal;text-transform:none;writing-mode:lr-tb;direction:ltr;text-orientation:mixed;dominant-baseline:auto;baseline-shift:baseline;text-anchor:start;white-space:normal;shape-padding:0;clip-rule:nonzero;display:inline;overflow:visible;visibility:visible;opacity:1;isolation:auto;mix-blend-mode:normal;color-interpolation:sRGB;color-interpolation-filters:linearRGB;solid-color:#000000;solid-opacity:1;vector-effect:none;fill:#444444;fill-opacity:1;fill-rule:nonzero;stroke:none;stroke-width:0.379111;stroke-linecap:round;stroke-linejoin:round;stroke-miterlimit:4;stroke-dasharray:none;stroke-dashoffset:0;stroke-opacity:1;paint-order:markers stroke fill;color-rendering:auto;image-rendering:auto;shape-rendering:auto;text-rendering:auto;enable-background:accumulate"
       d="m 2.1140297,284.56459 a 0.14580679,0.14584723 0 0 0 -0.1434479,0.1474 v 0.48985 c -0.2279564,0.0274 -0.4366122,0.1179 -0.6087489,0.25351 l -0.3468663,-0.34741 a 0.14580679,0.14584723 0 0 0 -0.10487355,-0.0439 0.14580679,0.14584723 0 0 0 -0.10140793,0.25005 l 0.34686638,0.34741 c -0.1356001,0.17217 -0.22607304,0.38106 -0.25344453,0.60907 H 0.41299832 a 0.14580679,0.14584723 0 1 0 0,0.29165 H 0.9019563 c 0.0273503,0.22807 0.1179662,0.43686 0.2535952,0.60907 l -0.34686638,0.34681 a 0.14586349,0.14590395 0 1 0 0.20628148,0.20634 l 0.3468663,-0.34696 c 0.172141,0.13562 0.3807833,0.22631 0.6087489,0.25366 v 0.48909 a 0.14580679,0.14584723 0 1 0 0.2915668,0 v -0.48924 c 0.2279507,-0.0274 0.4367771,-0.11788 0.6088993,-0.25351 l 0.3473189,0.34696 a 0.14581023,0.14585067 0 1 0 0.2061308,-0.20634 l -0.3473189,-0.34696 c 0.1355796,-0.17219 0.2260999,-0.3809 0.253445,-0.60892 H 3.820335 a 0.14580679,0.14584723 0 1 0 0,-0.29165 H 3.3306237 c -0.027367,-0.22801 -0.1178485,-0.4369 -0.253445,-0.60907 l 0.3473189,-0.34741 a 0.14580679,0.14584723 0 0 0 -0.1059286,-0.25005 0.14580679,0.14584723 0 0 0 -0.1002022,0.0439 l -0.3473189,0.34741 C 2.6989242,285.31972 2.490099,285.22921 2.2621486,285.20184 v -0.48985 a 0.14580679,0.14584723 0 0 0 -0.1481189,-0.1474 z m 0.00225,1.00652 c 0.4688212,0 0.8451665,0.37645 0.8451665,0.8454 0,0.46895 -0.3763453,0.8448 -0.8451665,0.8448 -0.4688214,0 -0.8445638,-0.37585 -0.8445638,-0.8448 0,-0.46895 0.3757424,-0.8454 0.8445638,-0.8454 z"
       id="path4519"
       inkscape:connector-curvature="0" />
  </g>
</svg>
