<?xml version="1.0" encoding="UTF-8" standalone="no"?>
<!-- Created with Inkscape (http://www.inkscape.org/) -->

<svg
   width="16"
   height="16"
   viewBox="0 0 4.2333333 4.2333333"
   version="1.1"
   id="svg8"
   inkscape:version="1.2 (dc2aedaf03, 2022-05-15)"
   sodipodi:docname="ow-01d.svg"
   xmlns:inkscape="http://www.inkscape.org/namespaces/inkscape"
   xmlns:sodipodi="http://sodipodi.sourceforge.net/DTD/sodipodi-0.dtd"
   xmlns="http://www.w3.org/2000/svg"
   xmlns:svg="http://www.w3.org/2000/svg"
   xmlns:rdf="http://www.w3.org/1999/02/22-rdf-syntax-ns#"
   xmlns:cc="http://creativecommons.org/ns#"
   xmlns:dc="http://purl.org/dc/elements/1.1/">
  <defs
     id="defs2" />
  <sodipodi:namedview
     id="base"
     pagecolor="#ffffff"
     bordercolor="#666666"
     borderopacity="1.0"
     inkscape:pageopacity="0.0"
     inkscape:pageshadow="2"
     inkscape:zoom="18.044444"
     inkscape:cx="11.527094"
     inkscape:cy="10.972907"
     inkscape:document-units="px"
     inkscape:current-layer="layer1"
     showgrid="false"
     units="px"
     inkscape:window-width="1918"
     inkscape:window-height="1060"
     inkscape:window-x="0"
     inkscape:window-y="0"
     inkscape:window-maximized="1"
     inkscape:showpageshadow="2"
     inkscape:pagecheckerboard="0"
     inkscape:deskcolor="#d1d1d1" />
  <metadata
     id="metadata5">
    <rdf:RDF>
      <cc:Work
         rdf:about="">
        <dc:format>image/svg+xml</dc:format>
        <dc:type
           rdf:resource="http://purl.org/dc/dcmitype/StillImage" />
      </cc:Work>
    </rdf:RDF>
  </metadata>
  <g
     inkscape:label="Layer 1"
     inkscape:groupmode="layer"
     id="layer1"
     transform="translate(0,-284.29998)">
    <path
       style="color:#000000;font-style:normal;font-variant:normal;font-weight:normal;font-stretch:normal;font-size:medium;line-height:normal;font-family:sans-serif;font-variant-ligatures:normal;font-variant-position:normal;font-variant-caps:normal;font-variant-numeric:normal;font-variant-alternates:normal;font-feature-settings:normal;text-indent:0;text-align:start;text-decoration:none;text-decoration-line:none;text-decoration-style:solid;text-decoration-color:#000000;letter-spacing:normal;word-spacing:normal;text-transform:none;writing-mode:lr-tb;direction:ltr;text-orientation:mixed;dominant-baseline:auto;baseline-shift:baseline;text-anchor:start;white-space:normal;shape-padding:0;clip-rule:nonzero;display:inline;overflow:visible;visibility:visible;opacity:1;isolation:auto;mix-blend-mode:normal;color-interpolation:sRGB;color-interpolation-filters:linearRGB;solid-color:#000000;solid-opacity:1;vector-effect:none;fill:#444444;fill-opacity:1;fill-rule:nonzero;stroke:none;stroke-width:0.43328;stroke-linecap:round;stroke-linejoin:round;stroke-miterlimit:4;stroke-dasharray:none;stroke-dashoffset:0;stroke-opacity:1;paint-order:markers stroke fill;color-rendering:auto;image-rendering:auto;shape-rendering:auto;text-rendering:auto;enable-background:accumulate"
       d="m 2.1136468,284.3 a 0.16664196,0.1666853 0 0 0 -0.163946,0.16847 v 0.55983 c -0.2605304,0.0313 -0.4990022,0.13475 -0.6957365,0.28973 l -0.39643211,-0.39704 a 0.16664196,0.1666853 0 0 0 -0.1198595,-0.0502 0.16664196,0.1666853 0 0 0 -0.11589865,0.28578 l 0.39643206,0.39705 c -0.15497681,0.19676 -0.25837791,0.4355 -0.28966063,0.69609 H 0.16954528 a 0.16664196,0.1666853 0 1 0 0,0.33332 h 0.55882799 c 0.0312586,0.26066 0.13482302,0.49927 0.28983283,0.69609 l -0.39643206,0.39636 a 0.16670677,0.16675013 0 1 0 0.23575815,0.23582 l 0.39643211,-0.39654 c 0.1967392,0.155 0.4351956,0.25865 0.6957365,0.28991 v 0.55897 a 0.16664196,0.1666853 0 1 0 0.3332304,0 v -0.55914 c 0.2605239,-0.0313 0.4991907,-0.13473 0.6959084,-0.28974 l 0.3969493,0.39654 a 0.16664589,0.16668923 0 1 0 0.2355861,-0.23582 l -0.3969493,-0.39653 c 0.1549533,-0.1968 0.2584086,-0.43532 0.2896612,-0.69592 h 0.5596889 a 0.16664196,0.1666853 0 1 0 0,-0.33332 H 3.5040869 c -0.031278,-0.26059 -0.1346886,-0.49933 -0.2896612,-0.69609 l 0.3969493,-0.39705 a 0.16664196,0.1666853 0 0 0 -0.1210654,-0.28578 0.16664196,0.1666853 0 0 0 -0.1145207,0.0502 l -0.3969493,0.39704 c -0.1967194,-0.155 -0.4353848,-0.25845 -0.6959084,-0.28973 v -0.55983 A 0.16664196,0.1666853 0 0 0 2.1136468,284.3 Z m 0.00257,1.15033 c 0.5358137,0 0.9659372,0.43023 0.9659372,0.96618 0,0.53596 -0.4301235,0.96551 -0.9659372,0.96551 -0.535814,0 -0.9652484,-0.42955 -0.9652484,-0.96551 0,-0.53595 0.4294344,-0.96618 0.9652484,-0.96618 z"
       id="path4519"
       inkscape:connector-curvature="0" />
  </g>
</svg>
