<?xml version="1.0" encoding="UTF-8" standalone="no"?>
<!-- Created with Inkscape (http://www.inkscape.org/) -->

<svg
   width="16"
   height="16"
   viewBox="0 0 4.2333333 4.2333333"
   version="1.1"
   id="svg8"
   inkscape:version="1.2 (dc2aedaf03, 2022-05-15)"
   sodipodi:docname="ow-03d.svg"
   xmlns:inkscape="http://www.inkscape.org/namespaces/inkscape"
   xmlns:sodipodi="http://sodipodi.sourceforge.net/DTD/sodipodi-0.dtd"
   xmlns="http://www.w3.org/2000/svg"
   xmlns:svg="http://www.w3.org/2000/svg"
   xmlns:rdf="http://www.w3.org/1999/02/22-rdf-syntax-ns#"
   xmlns:cc="http://creativecommons.org/ns#"
   xmlns:dc="http://purl.org/dc/elements/1.1/">
  <defs
     id="defs2" />
  <sodipodi:namedview
     id="base"
     pagecolor="#ffffff"
     bordercolor="#666666"
     borderopacity="1.0"
     inkscape:pageopacity="0.0"
     inkscape:pageshadow="2"
     inkscape:zoom="24.695663"
     inkscape:cx="7.1267574"
     inkscape:cy="11.135558"
     inkscape:document-units="px"
     inkscape:current-layer="layer1"
     showgrid="false"
     units="px"
     inkscape:window-width="1918"
     inkscape:window-height="1060"
     inkscape:window-x="0"
     inkscape:window-y="0"
     inkscape:window-maximized="1"
     inkscape:showpageshadow="2"
     inkscape:pagecheckerboard="0"
     inkscape:deskcolor="#d1d1d1" />
  <metadata
     id="metadata5">
    <rdf:RDF>
      <cc:Work
         rdf:about="">
        <dc:format>image/svg+xml</dc:format>
        <dc:type
           rdf:resource="http://purl.org/dc/dcmitype/StillImage" />
      </cc:Work>
    </rdf:RDF>
  </metadata>
  <g
     inkscape:label="Layer 1"
     inkscape:groupmode="layer"
     id="layer1"
     transform="translate(0,-284.29998)">
    <path
       style="color:#000000;font-style:normal;font-variant:normal;font-weight:normal;font-stretch:normal;font-size:medium;line-height:normal;font-family:sans-serif;font-variant-ligatures:normal;font-variant-position:normal;font-variant-caps:normal;font-variant-numeric:normal;font-variant-alternates:normal;font-feature-settings:normal;text-indent:0;text-align:start;text-decoration:none;text-decoration-line:none;text-decoration-style:solid;text-decoration-color:#000000;letter-spacing:normal;word-spacing:normal;text-transform:none;writing-mode:lr-tb;direction:ltr;text-orientation:mixed;dominant-baseline:auto;baseline-shift:baseline;text-anchor:start;white-space:normal;shape-padding:0;clip-rule:nonzero;display:inline;overflow:visible;visibility:visible;opacity:1;isolation:auto;mix-blend-mode:normal;color-interpolation:sRGB;color-interpolation-filters:linearRGB;solid-color:#000000;solid-opacity:1;vector-effect:none;fill:#444444;fill-opacity:1;fill-rule:nonzero;stroke:none;stroke-width:0.316952;stroke-linecap:round;stroke-linejoin:round;stroke-miterlimit:4;stroke-dasharray:none;stroke-dashoffset:0;stroke-opacity:1;paint-order:markers stroke fill;color-rendering:auto;image-rendering:auto;shape-rendering:auto;text-rendering:auto;enable-background:accumulate"
       d="m 1.5814892,285.12019 c -0.4539791,3.1e-4 -0.82037743,0.32676 -0.92857603,0.75957 -0.31239696,0.17185 -0.52020607,0.49018 -0.5206215,0.84994 2.881e-4,0.53055 0.4254762,0.96815 0.95581443,0.98364 a 0.15849276,0.15849037 0 0 0 0.00309,0 l 2.2131057,0.0204 a 0.15849276,0.15849037 0 0 0 0.00126,0 c 0.4374309,3e-5 0.7955114,-0.35806 0.7954802,-0.79548 3.12e-5,-0.43742 -0.3580504,-0.7955 -0.7954802,-0.79548 a 0.15849276,0.15849037 0 0 0 -6.251e-4,0 c -0.01903,9e-5 -0.037387,0.007 -0.056333,0.008 -0.072449,-0.32647 -0.324917,-0.59121 -0.672289,-0.59119 a 0.15849276,0.15849037 0 0 0 -6.188e-4,0 c -0.06393,2.3e-4 -0.1237481,0.0242 -0.1850962,0.0409 -0.178163,-0.28233 -0.4682378,-0.47926 -0.8084799,-0.47977 a 0.15849276,0.15849037 0 0 0 -6.187e-4,0 z m 6.188e-4,0 0.073667,0.0179 a 0.15849276,0.15849037 0 0 0 -0.073667,-0.0179 z m -6.188e-4,0.31694 h 6.188e-4 c 0.264244,6.2e-4 0.5024702,0.15628 0.6091457,0.39806 a 0.15849276,0.15849037 0 0 0 0.2123343,0.0793 c 0.054088,-0.0253 0.1130423,-0.0382 0.1727151,-0.0383 0.2297753,-3e-5 0.4126007,0.18259 0.4129067,0.41228 4e-7,2.2e-4 0,3.2e-4 0,6.3e-4 -1.726e-4,0.007 -6.907e-4,0.0144 -0.00125,0.0217 a 0.15849276,0.15849037 0 0 0 0.1987151,0.16528 c 0.038975,-0.0104 0.07915,-0.0158 0.119477,-0.016 0.2661189,-3e-5 0.477926,0.21239 0.4779065,0.47851 1.95e-5,0.26611 -0.2117887,0.47853 -0.4779065,0.4785 l -2.2087724,-0.0204 c -0.36245195,-0.0104 -0.64794944,-0.30411 -0.64814632,-0.66669 2.9898e-4,-0.25889 0.14944875,-0.49295 0.38381138,-0.60296 a 0.15849276,0.15849037 0 0 0 0.089762,-0.12009 c 0.048677,-0.32782 0.32739464,-0.56896 0.65866984,-0.56953 z"
       id="circle818"
       inkscape:connector-curvature="0" />
  </g>
</svg>
