<?xml version="1.0" encoding="UTF-8" standalone="no"?>
<!-- Created with Inkscape (http://www.inkscape.org/) -->

<svg
   width="16"
   height="16"
   viewBox="0 0 4.2333333 4.2333333"
   version="1.1"
   id="svg8"
   inkscape:version="1.2 (dc2aedaf03, 2022-05-15)"
   sodipodi:docname="ow-10d.svg"
   xmlns:inkscape="http://www.inkscape.org/namespaces/inkscape"
   xmlns:sodipodi="http://sodipodi.sourceforge.net/DTD/sodipodi-0.dtd"
   xmlns="http://www.w3.org/2000/svg"
   xmlns:svg="http://www.w3.org/2000/svg"
   xmlns:rdf="http://www.w3.org/1999/02/22-rdf-syntax-ns#"
   xmlns:cc="http://creativecommons.org/ns#"
   xmlns:dc="http://purl.org/dc/elements/1.1/">
  <defs
     id="defs2" />
  <sodipodi:namedview
     id="base"
     pagecolor="#ffffff"
     bordercolor="#666666"
     borderopacity="1.0"
     inkscape:pageopacity="0.0"
     inkscape:pageshadow="2"
     inkscape:zoom="40.347826"
     inkscape:cx="10.112069"
     inkscape:cy="8.7241379"
     inkscape:document-units="px"
     inkscape:current-layer="layer1"
     showgrid="false"
     units="px"
     inkscape:window-width="1918"
     inkscape:window-height="1060"
     inkscape:window-x="0"
     inkscape:window-y="0"
     inkscape:window-maximized="1"
     inkscape:showpageshadow="2"
     inkscape:pagecheckerboard="0"
     inkscape:deskcolor="#d1d1d1" />
  <metadata
     id="metadata5">
    <rdf:RDF>
      <cc:Work
         rdf:about="">
        <dc:format>image/svg+xml</dc:format>
        <dc:type
           rdf:resource="http://purl.org/dc/dcmitype/StillImage" />
      </cc:Work>
    </rdf:RDF>
  </metadata>
  <g
     inkscape:label="Layer 1"
     inkscape:groupmode="layer"
     id="layer1"
     transform="translate(0,-284.29998)">
    <path
       id="path4519"
       style="color:#000000;font-style:normal;font-variant:normal;font-weight:normal;font-stretch:normal;font-size:medium;line-height:normal;font-family:sans-serif;font-variant-ligatures:normal;font-variant-position:normal;font-variant-caps:normal;font-variant-numeric:normal;font-variant-alternates:normal;font-feature-settings:normal;text-indent:0;text-align:start;text-decoration:none;text-decoration-line:none;text-decoration-style:solid;text-decoration-color:#000000;letter-spacing:normal;word-spacing:normal;text-transform:none;writing-mode:lr-tb;direction:ltr;text-orientation:mixed;dominant-baseline:auto;baseline-shift:baseline;text-anchor:start;white-space:normal;shape-padding:0;clip-rule:nonzero;display:inline;overflow:visible;visibility:visible;isolation:auto;mix-blend-mode:normal;color-interpolation:sRGB;color-interpolation-filters:linearRGB;solid-color:#000000;solid-opacity:1;vector-effect:none;fill:#444444;fill-opacity:1;fill-rule:nonzero;stroke:none;stroke-width:0.250905;stroke-linecap:round;stroke-linejoin:round;stroke-miterlimit:4;stroke-dasharray:none;stroke-dashoffset:0;stroke-opacity:1;paint-order:markers stroke fill;color-rendering:auto;image-rendering:auto;shape-rendering:auto;text-rendering:auto;enable-background:accumulate"
       d="m 2.7433646,284.29998 c -0.053123,6.7e-4 -0.095549,0.0445 -0.094966,0.0976 v 0.32419 c -0.1508688,0.0182 -0.2890357,0.0779 -0.4029613,0.16769 L 2.015863,284.65955 c -0.018259,-0.0186 -0.0432,-0.029 -0.069285,-0.0289 -0.086197,3.4e-4 -0.1285814,0.10512 -0.067045,0.16545 l 0.229402,0.22991 c -0.089746,0.11393 -0.1495843,0.25222 -0.1676997,0.40312 h -0.00879 c -0.097262,-0.0407 -0.2026409,-0.0634 -0.3138548,-0.0636 a 0.14801108,0.14800605 0 0 0 -6.905e-4,0 c -0.4239556,2.9e-4 -0.7660653,0.30522 -0.86710849,0.70937 -0.29173702,0.1605 -0.48582021,0.45771 -0.48620818,0.79367 2.6268e-4,0.48372 0.37879159,0.88452 0.85762937,0.91671 l -0.33212467,0.5753 a 0.1168747,0.11687072 0 0 0 0.20251514,0.1165 l 0.39727383,-0.68784 0.2032041,0.002 -0.3286772,0.56944 a 0.1168747,0.11687072 0 0 0 0.2025149,0.1165 l 0.3946883,-0.68335 0.2252654,0.002 -0.3260918,0.56477 a 0.1168747,0.11687072 0 0 0 0.2025147,0.1165 l 0.3921031,-0.67886 0.2471543,0.002 -0.3233343,0.56014 a 0.1168747,0.11687072 0 0 0 0.2025149,0.1165 l 0.3893453,-0.67405 0.3557367,0.003 a 0.14801108,0.14800605 0 0 0 0.00121,0 c 0.4085016,4e-5 0.7428709,-0.33432 0.7428415,-0.74282 2e-5,-0.28056 -0.1576719,-0.52618 -0.3888282,-0.65249 0.06155,-0.0278 0.076315,-0.10844 0.02861,-0.15615 l -0.229919,-0.22974 c 0.089731,-0.11393 0.1497731,-0.25204 0.1678717,-0.40295 h 0.3240238 c 0.1305144,0.002 0.1305144,-0.1949 0,-0.19303 H 3.5485969 c -0.018106,-0.15089 -0.078129,-0.28917 -0.1678718,-0.40312 l 0.229919,-0.22991 c 0.06264,-0.0614 0.017694,-0.16781 -0.069974,-0.16545 -0.025038,6.6e-4 -0.048832,0.0114 -0.066356,0.0289 l -0.2299191,0.22991 c -0.1139161,-0.0887 -0.2520962,-0.14856 -0.4029611,-0.16666 v -0.32419 c 5.937e-4,-0.0543 -0.043766,-0.0984 -0.098069,-0.0976 z m 0.00155,0.66612 c 0.310281,0 0.5592856,0.24908 0.5592856,0.55944 0,0.20807 -0.1122743,0.388 -0.2795566,0.4843 -0.1139232,-0.14177 -0.2790373,-0.23458 -0.4775902,-0.23457 a 0.14801108,0.14800605 0 0 0 -6.904e-4,0 c -0.059702,2.1e-4 -0.1155794,0.0226 -0.1728701,0.0383 -0.051549,-0.0817 -0.1131382,-0.15577 -0.1830389,-0.21905 -0.00278,-0.0226 -0.00465,-0.0456 -0.00465,-0.0689 0,-0.31036 0.2488323,-0.55944 0.5591131,-0.55944 z m -1.1270163,0.69543 h 6.904e-4 c 0.2467682,6.6e-4 0.4691443,0.14577 0.5687649,0.37157 a 0.14801108,0.14800605 0 0 0 0.1983783,0.0742 c 0.05051,-0.0235 0.105424,-0.0355 0.1611501,-0.0359 0.2145794,-3e-5 0.3854405,0.17052 0.385726,0.38501 v 6.6e-4 c -1.61e-4,0.007 -6.937e-4,0.0135 -0.00121,0.0202 a 0.14801108,0.14800605 0 0 0 0.1856243,0.15443 c 0.036397,-0.009 0.073853,-0.015 0.1115121,-0.0152 0.2485191,-10e-6 0.4464123,0.19839 0.4463943,0.44689 1.8e-5,0.24852 -0.1978762,0.44693 -0.4463943,0.44691 l -0.1875202,-10e-4 0.2047554,-0.35451 a 0.11674488,0.11674091 0 0 0 -0.1001368,-0.17718 0.11674488,0.11674091 0 0 0 -0.011199,6.7e-4 0.11674488,0.11674091 0 0 0 -0.091175,0.0593 l -0.2707667,0.46914 -0.2471542,-0.002 0.2019978,-0.3497 a 0.11674488,0.11674091 0 0 0 -0.1001368,-0.17717 0.11674488,0.11674091 0 0 0 -0.011199,6.7e-4 0.11674488,0.11674091 0 0 0 -0.091175,0.0593 l -0.268009,0.46448 -0.2252653,-0.002 0.1994124,-0.34522 a 0.11674488,0.11674091 0 0 0 -0.1001368,-0.17716 0.11674488,0.11674091 0 0 0 -0.011199,6.6e-4 0.11674488,0.11674091 0 0 0 -0.091175,0.0593 l -0.2654236,0.45982 -0.2032043,-0.002 0.1968271,-0.34074 a 0.11674488,0.11674091 0 0 0 -0.1001368,-0.17716 0.11674488,0.11674091 0 0 0 -0.011199,6.6e-4 0.11674488,0.11674091 0 0 0 -0.091175,0.0593 l -0.2628384,0.45552 -0.1254729,-0.001 c -0.33848153,-0.0103 -0.60512078,-0.2839 -0.60530453,-0.62251 2.7919e-4,-0.24177 0.13963138,-0.46034 0.3584948,-0.56307 a 0.14801108,0.14800605 0 0 0 0.083765,-0.11221 c 0.045457,-0.30613 0.3057614,-0.53134 0.6151279,-0.53187 z m 1.6264953,0.50014 0.1882095,0.18786 c -0.065073,-0.0187 -0.1336855,-0.0291 -0.2045829,-0.0291 a 0.14801108,0.14800605 0 0 0 -6.904e-4,0 c -0.017772,7e-5 -0.034875,0.006 -0.052568,0.007 -0.00756,-0.0341 -0.017308,-0.0674 -0.028955,-0.0998 0.034412,-0.0198 0.067547,-0.0416 0.098586,-0.0661 z m 0.3119591,0.23596 c 0.00843,0.005 0.016742,0.008 0.024991,0.0129 -0.0082,-0.005 -0.016603,-0.009 -0.024991,-0.0129 z" />
    <path
       d="m -18.322396,293.07694 c -1.022658,0 -1.852083,0.82927 -1.852083,1.85208 0,0.81831 0.530622,1.51254 1.266671,1.75748 0.09245,0.0172 0.122392,-0.0403 0.122392,-0.0891 v -0.3448 c -0.515188,0.11205 -0.622454,-0.21854 -0.622454,-0.21854 -0.08427,-0.21407 -0.205736,-0.27103 -0.205736,-0.27103 -0.168077,-0.11497 0.01281,-0.1125 0.01281,-0.1125 0.18598,0.0129 0.283832,0.19092 0.283832,0.19092 0.165144,0.28305 0.433233,0.20125 0.538957,0.15387 0.01651,-0.11962 0.06451,-0.20141 0.117607,-0.24756 -0.411317,-0.0471 -0.843779,-0.20589 -0.843779,-0.91539 0,-0.20235 0.07239,-0.36748 0.190765,-0.49714 -0.01914,-0.0468 -0.08257,-0.23521 0.01806,-0.49018 0,0 0.155575,-0.0497 0.509477,0.18985 0.147704,-0.041 0.306057,-0.0616 0.463484,-0.0624 0.157427,6.2e-4 0.315935,0.0213 0.463947,0.0624 0.353594,-0.23955 0.50886,-0.18985 0.50886,-0.18985 0.100785,0.25513 0.03735,0.44358 0.01821,0.49018 0.118842,0.12966 0.19061,0.29495 0.19061,0.49714 0,0.71136 -0.433233,0.868 -0.84563,0.91385 0.06637,0.0574 0.127022,0.17008 0.127022,0.34294 v 0.50824 c 0,0.0493 0.02963,0.10712 0.123627,0.0889 0.735431,-0.24524 1.265436,-0.93931 1.265436,-1.75732 0,-1.02282 -0.829271,-1.85209 -1.852084,-1.85209 z"
       id="path839"
       style="fill:#eeeeee;fill-opacity:1;stroke-width:0.15434" />
  </g>
</svg>
