<?xml version="1.0" encoding="UTF-8" standalone="no"?>
<!-- Created with Inkscape (http://www.inkscape.org/) -->

<svg
   width="16"
   height="16"
   viewBox="0 0 4.2333332 4.2333333"
   version="1.1"
   id="svg5"
   xml:space="preserve"
   sodipodi:docname="pressure.svg"
   inkscape:version="1.2 (dc2aedaf03, 2022-05-15)"
   xmlns:inkscape="http://www.inkscape.org/namespaces/inkscape"
   xmlns:sodipodi="http://sodipodi.sourceforge.net/DTD/sodipodi-0.dtd"
   xmlns="http://www.w3.org/2000/svg"
   xmlns:svg="http://www.w3.org/2000/svg"><sodipodi:namedview
     id="namedview7"
     pagecolor="#ffffff"
     bordercolor="#666666"
     borderopacity="1.0"
     inkscape:showpageshadow="2"
     inkscape:pageopacity="0.0"
     inkscape:pagecheckerboard="0"
     inkscape:deskcolor="#d1d1d1"
     inkscape:document-units="px"
     showgrid="false"
     inkscape:zoom="19.749026"
     inkscape:cx="12.203133"
     inkscape:cy="8.1523008"
     inkscape:window-width="1918"
     inkscape:window-height="1060"
     inkscape:window-x="0"
     inkscape:window-y="0"
     inkscape:window-maximized="1"
     inkscape:current-layer="layer1" /><defs
     id="defs2" /><g
     inkscape:label="Warstwa 1"
     inkscape:groupmode="layer"
     id="layer1"><path
       style="fill:#444444;fill-opacity:1;stroke-width:0.00979096"
       d="M 1.7958344,2.1533626 1.5109665,1.8772637 1.6141524,1.7740824 1.7173383,1.6709012 1.8299882,1.7832266 1.9426384,1.895552 V 1.1540626 l 2.23e-5,-0.42910428 H 2.089528 2.2363965 L 2.2363741,1.1540626 V 1.895552 L 2.3490243,1.7832266 2.4616744,1.6709012 2.5649032,1.7741254 2.668132,1.8773496 2.3826147,2.1534043 C 2.2255802,2.3052348 2.0934045,2.4294591 2.0888919,2.4294591 c -0.0045,0 -0.1363952,-0.1242435 -0.2930736,-0.2760977 z"
       id="path171"
       sodipodi:nodetypes="ccccccccccccccccsscc" /><path
       style="fill:#444444;fill-opacity:1;stroke-width:0.00546983"
       d="M 1.9022537,2.8779155 C 1.5173059,2.8622589 1.2122573,2.8265508 0.91966813,2.7628857 l -0.0736935,-0.016035 -0.001683,-0.1166135 c -9.4148e-4,-0.040861 6.5493e-4,-0.074296 0.0035,-0.074296 0.002894,0 0.0285063,0.00556 0.0569652,0.012356 0.25486137,0.060858 0.56633267,0.1027603 0.88694417,0.119321 0.1320884,0.00682 0.4669524,0.00685 0.595692,5.13e-5 0.3259117,-0.017216 0.6312139,-0.058305 0.8869446,-0.1193712 0.028459,-0.00679 0.054097,-0.012356 0.056964,-0.012356 0.0029,0 0.00444,0.033434 0.00349,0.074297 l -0.00168,0.1166128 -0.073694,0.016035 c -0.2460309,0.053534 -0.5300508,0.090636 -0.8290537,0.1083016 -0.088366,0.00523 -0.4514593,0.00985 -0.5281394,0.00673 z"
       id="path169"
       sodipodi:nodetypes="ccccsccccscccccc" /><path
       style="fill:#444444;fill-opacity:1;stroke-width:0.00546983"
       d="M 1.9022537,3.3168645 C 1.5173059,3.3012078 1.2122574,3.2654999 0.91966815,3.2018346 l -0.0736935,-0.016035 -0.001683,-0.1166133 c -9.4149e-4,-0.040861 6.5531e-4,-0.074296 0.0035,-0.074296 0.002894,0 0.0285063,0.00556 0.0569652,0.012356 0.25486145,0.060858 0.56633275,0.1027602 0.88694425,0.1193209 0.1320884,0.00682 0.4669523,0.00685 0.5956919,5.13e-5 0.3259117,-0.017216 0.6312139,-0.058306 0.8869445,-0.1193712 0.028459,-0.00679 0.054097,-0.012356 0.056965,-0.012356 0.0029,0 0.00444,0.033433 0.00349,0.074296 l -0.00168,0.1166128 -0.073693,0.016035 c -0.2460281,0.053534 -0.530048,0.090637 -0.8290508,0.108302 -0.088366,0.00523 -0.4514593,0.00985 -0.5281394,0.00673 z"
       id="path169-3"
       sodipodi:nodetypes="ccccsccccscccccc" /></g></svg>
