<?xml version="1.0" encoding="UTF-8" standalone="no"?>
<!-- Created with Inkscape (http://www.inkscape.org/) -->

<svg
   width="16"
   height="16"
   viewBox="0 0 4.2333332 4.2333333"
   version="1.1"
   id="svg5"
   xml:space="preserve"
   sodipodi:docname="pressure.svg"
   inkscape:version="1.2 (dc2aedaf03, 2022-05-15)"
   xmlns:inkscape="http://www.inkscape.org/namespaces/inkscape"
   xmlns:sodipodi="http://sodipodi.sourceforge.net/DTD/sodipodi-0.dtd"
   xmlns="http://www.w3.org/2000/svg"
   xmlns:svg="http://www.w3.org/2000/svg"><sodipodi:namedview
     id="namedview7"
     pagecolor="#ffffff"
     bordercolor="#666666"
     borderopacity="1.0"
     inkscape:showpageshadow="2"
     inkscape:pageopacity="0.0"
     inkscape:pagecheckerboard="0"
     inkscape:deskcolor="#d1d1d1"
     inkscape:document-units="px"
     showgrid="false"
     inkscape:zoom="19.749026"
     inkscape:cx="12.203133"
     inkscape:cy="8.1523008"
     inkscape:window-width="1918"
     inkscape:window-height="1060"
     inkscape:window-x="0"
     inkscape:window-y="0"
     inkscape:window-maximized="1"
     inkscape:current-layer="layer1"
     showguides="true"><sodipodi:guide
       position="3.7041666,6.0151722"
       orientation="-1,0"
       id="guide5215"
       inkscape:locked="false"
       inkscape:label=""
       inkscape:color="rgb(0,134,229)" /></sodipodi:namedview><defs
     id="defs2" /><g
     inkscape:label="Warstwa 1"
     inkscape:groupmode="layer"
     id="layer1"><path
       style="fill:#444444;fill-opacity:1;stroke-width:0.00979096"
       d="M 2.1662474,2.2062792 1.8813795,1.9301803 1.9845654,1.826999 2.0877513,1.7238178 2.2004012,1.8361432 2.3130514,1.9484686 V 1.2069792 l 2.23e-5,-0.42910422 H 2.459941 2.6068095 L 2.6067871,1.2069792 V 1.9484686 L 2.7194373,1.8361432 2.8320874,1.7238178 2.9353162,1.827042 3.038545,1.9302662 2.7530277,2.2063209 C 2.5959932,2.3581514 2.4638175,2.4823757 2.4593049,2.4823757 c -0.0045,0 -0.1363952,-0.1242435 -0.2930736,-0.2760977 z"
       id="path171"
       sodipodi:nodetypes="ccccccccccccccccsscc" /><path
       style="fill:#444444;fill-opacity:1;stroke-width:0.00546983"
       d="M 2.2726667,2.9308321 C 1.8877189,2.9151755 1.5826703,2.8794674 1.2900813,2.8158023 l -0.073693,-0.016035 -0.00168,-0.1166135 c -9.415e-4,-0.040861 6.55e-4,-0.074296 0.0035,-0.074296 0.00289,0 0.028506,0.00556 0.056965,0.012356 0.2548612,0.060858 0.5663325,0.1027603 0.886944,0.119321 0.1320884,0.00682 0.4669524,0.00685 0.595692,5.13e-5 0.3259117,-0.017216 0.6312139,-0.058305 0.8869446,-0.1193712 0.028459,-0.00679 0.054097,-0.012356 0.056964,-0.012356 0.0029,0 0.00444,0.033434 0.00349,0.074297 l -0.00168,0.1166128 -0.073694,0.016035 c -0.2460309,0.053534 -0.5300508,0.090636 -0.8290537,0.1083016 -0.088366,0.00523 -0.4514593,0.00985 -0.5281394,0.00673 z"
       id="path169"
       sodipodi:nodetypes="ccccsccccscccccc" /><path
       style="fill:#444444;fill-opacity:1;stroke-width:0.00546983"
       d="M 2.2726667,3.3697811 C 1.8877189,3.3541244 1.5826704,3.3184165 1.2900813,3.2547512 l -0.073693,-0.016035 -0.00168,-0.1166133 c -9.415e-4,-0.040861 6.553e-4,-0.074296 0.0035,-0.074296 0.00289,0 0.028506,0.00556 0.056965,0.012356 0.2548613,0.060858 0.5663326,0.1027602 0.8869441,0.1193209 0.1320884,0.00682 0.4669523,0.00685 0.5956919,5.13e-5 0.3259117,-0.017216 0.6312139,-0.058306 0.8869445,-0.1193712 0.028459,-0.00679 0.054097,-0.012356 0.056965,-0.012356 0.0029,0 0.00444,0.033433 0.00349,0.074296 l -0.00168,0.1166128 -0.073693,0.016035 c -0.2460281,0.053534 -0.530048,0.090637 -0.8290508,0.108302 -0.088366,0.00523 -0.4514593,0.00985 -0.5281394,0.00673 z"
       id="path169-3"
       sodipodi:nodetypes="ccccsccccscccccc" /></g></svg>
