<?xml version="1.0" encoding="UTF-8" standalone="no"?>
<!-- Created with Inkscape (http://www.inkscape.org/) -->

<svg
   width="16"
   height="16"
   viewBox="0 0 4.2333332 4.2333333"
   version="1.1"
   id="svg5"
   xml:space="preserve"
   sodipodi:docname="pressure.svg"
   inkscape:version="1.2 (dc2aedaf03, 2022-05-15)"
   xmlns:inkscape="http://www.inkscape.org/namespaces/inkscape"
   xmlns:sodipodi="http://sodipodi.sourceforge.net/DTD/sodipodi-0.dtd"
   xmlns="http://www.w3.org/2000/svg"
   xmlns:svg="http://www.w3.org/2000/svg"><sodipodi:namedview
     id="namedview7"
     pagecolor="#ffffff"
     bordercolor="#666666"
     borderopacity="1.0"
     inkscape:showpageshadow="2"
     inkscape:pageopacity="0.0"
     inkscape:pagecheckerboard="0"
     inkscape:deskcolor="#d1d1d1"
     inkscape:document-units="px"
     showgrid="false"
     inkscape:zoom="39.498052"
     inkscape:cx="8.4940899"
     inkscape:cy="8.1523009"
     inkscape:window-width="1918"
     inkscape:window-height="1060"
     inkscape:window-x="0"
     inkscape:window-y="0"
     inkscape:window-maximized="1"
     inkscape:current-layer="layer1" /><defs
     id="defs2" /><g
     inkscape:label="Warstwa 1"
     inkscape:groupmode="layer"
     id="layer1"><path
       style="fill:#444444;fill-opacity:1;stroke-width:0.0122976"
       d="M 1.7477508,2.2703892 1.3899597,1.9235968 1.51956,1.7939966 1.6491602,1.6643963 1.7906476,1.805482 1.9321349,1.9465677 V 1.015224 L 1.932163,0.47624999 H 2.1166266 2.3010917 L 2.3010636,1.015224 V 1.9465677 L 2.442551,1.805482 2.5840383,1.6643963 2.7136925,1.7940505 2.8433467,1.9237047 2.4847402,2.2704417 c -0.1972337,0.1907058 -0.3632447,0.346737 -0.3689126,0.346737 -0.00566,0 -0.1713109,-0.1560554 -0.3680971,-0.3467909 z"
       id="path171"
       sodipodi:nodetypes="ccccccccccccccccsscc" /><path
       style="fill:#444444;fill-opacity:1;stroke-width:0.00774461"
       d="M 1.8814122,3.0973037 C 1.3979219,3.0723138 1.0147843,3.0153194 0.64729544,2.913702 L 0.55473734,2.8881073 0.55262334,2.701978 c -0.001183,-0.065219 8.2259e-4,-0.1185862 0.004396,-0.1185862 0.003635,0 0.0358035,0.00887 0.0715477,0.019722 0.32010319,0.097137 0.71130766,0.1640181 1.11399226,0.190451 0.1659014,0.010893 0.5864868,0.010935 0.7481823,8.18e-5 0.4093413,-0.027478 0.7927975,-0.093063 1.1139922,-0.1905311 0.035744,-0.01085 0.067946,-0.019722 0.071547,-0.019722 0.00364,0 0.00558,0.053364 0.00439,0.1185862 l -0.00211,0.1861284 -0.092559,0.025595 c -0.3090101,0.085447 -0.6657359,0.144667 -1.04128,0.1728634 -0.1109864,0.00835 -0.5670278,0.015717 -0.6633371,0.010739 z"
       id="path169"
       sodipodi:nodetypes="ccccsccccscccccc" /><path
       style="fill:#444444;fill-opacity:1;stroke-width:0.00774461"
       d="M 1.8814122,3.7979205 C 1.3979219,3.7729306 1.0147844,3.7159362 0.64729546,3.6143187 l -0.0925581,-0.025595 -0.002114,-0.1861293 c -0.001183,-0.065219 8.2259e-4,-0.1185861 0.004396,-0.1185861 0.003635,0 0.0358035,0.00887 0.0715477,0.019722 0.32010323,0.097137 0.71130764,0.1640181 1.11399224,0.190451 0.1659014,0.010892 0.5864868,0.010935 0.7481823,8.19e-5 0.4093413,-0.027479 0.7927975,-0.093063 1.1139922,-0.1905312 0.035744,-0.01085 0.067946,-0.019722 0.071547,-0.019722 0.00364,0 0.00558,0.053363 0.00439,0.1185861 l -0.00211,0.1861284 -0.092559,0.025595 C 3.276985,3.6997671 2.9202591,3.7589867 2.544715,3.787183 2.4337286,3.7955319 1.9776872,3.8028997 1.881378,3.7979222 Z"
       id="path169-3"
       sodipodi:nodetypes="ccccsccccscccccc" /></g></svg>
