<?xml version="1.0" encoding="UTF-8" standalone="no"?>
<!-- Svg Vector Icons : http://www.onlinewebfonts.com/icon -->

<svg
   version="1.1"
   x="0px"
   y="0px"
   viewBox="0 0 16 16"
   enable-background="new 0 0 256 256"
   xml:space="preserve"
   id="svg18"
   sodipodi:docname="resize.svg"
   width="16"
   height="16"
   inkscape:version="1.4 (e7c3feb100, 2024-10-09)"
   xmlns:inkscape="http://www.inkscape.org/namespaces/inkscape"
   xmlns:sodipodi="http://sodipodi.sourceforge.net/DTD/sodipodi-0.dtd"
   xmlns="http://www.w3.org/2000/svg"
   xmlns:svg="http://www.w3.org/2000/svg"><defs
   id="defs18" /><sodipodi:namedview
   id="namedview18"
   pagecolor="#ffffff"
   bordercolor="#666666"
   borderopacity="1.0"
   inkscape:showpageshadow="2"
   inkscape:pageopacity="0.0"
   inkscape:pagecheckerboard="0"
   inkscape:deskcolor="#d1d1d1"
   inkscape:zoom="24.067517"
   inkscape:cx="9.5772239"
   inkscape:cy="7.4789601"
   inkscape:window-width="2552"
   inkscape:window-height="1362"
   inkscape:window-x="0"
   inkscape:window-y="0"
   inkscape:window-maximized="1"
   inkscape:current-layer="g1" />
<metadata
   id="metadata1"> Svg Vector Icons : http://www.onlinewebfonts.com/icon </metadata>
<g
   id="g2"
   style="fill:#eeeeee;fill-opacity:1"
   transform="matrix(0.059347,0,0,0.05828476,0.40653004,0.5395504)" /><g
   id="g3"
   style="fill:#eeeeee;fill-opacity:1"
   transform="matrix(0.059347,0,0,0.05828476,0.40653004,0.5395504)" /><g
   id="g4"
   style="fill:#eeeeee;fill-opacity:1"
   transform="matrix(0.059347,0,0,0.05828476,0.40653004,0.5395504)" /><g
   id="g5"
   style="fill:#eeeeee;fill-opacity:1"
   transform="matrix(0.059347,0,0,0.05828476,0.40653004,0.5395504)" /><g
   id="g6"
   style="fill:#eeeeee;fill-opacity:1"
   transform="matrix(0.059347,0,0,0.05828476,0.40653004,0.5395504)" /><g
   id="g7"
   style="fill:#eeeeee;fill-opacity:1"
   transform="matrix(0.059347,0,0,0.05828476,0.40653004,0.5395504)" /><g
   id="g8"
   style="fill:#eeeeee;fill-opacity:1"
   transform="matrix(0.059347,0,0,0.05828476,0.40653004,0.5395504)" /><g
   id="g9"
   style="fill:#eeeeee;fill-opacity:1"
   transform="matrix(0.059347,0,0,0.05828476,0.40653004,0.5395504)" /><g
   id="g10"
   style="fill:#eeeeee;fill-opacity:1"
   transform="matrix(0.059347,0,0,0.05828476,0.40653004,0.5395504)" /><g
   id="g11"
   style="fill:#eeeeee;fill-opacity:1"
   transform="matrix(0.059347,0,0,0.05828476,0.40653004,0.5395504)" /><g
   id="g12"
   style="fill:#eeeeee;fill-opacity:1"
   transform="matrix(0.059347,0,0,0.05828476,0.40653004,0.5395504)" /><g
   id="g13"
   style="fill:#eeeeee;fill-opacity:1"
   transform="matrix(0.059347,0,0,0.05828476,0.40653004,0.5395504)" /><g
   id="g14"
   style="fill:#eeeeee;fill-opacity:1"
   transform="matrix(0.059347,0,0,0.05828476,0.40653004,0.5395504)" /><g
   id="g15"
   style="fill:#eeeeee;fill-opacity:1"
   transform="matrix(0.059347,0,0,0.05828476,0.40653004,0.5395504)" /><g
   id="g16"
   style="fill:#eeeeee;fill-opacity:1"
   transform="matrix(0.059347,0,0,0.05828476,0.40653004,0.5395504)" />
<g
   id="g1"
   transform="translate(7.9922969,40.446977)"><path
     d="m -6.9876131,-25.464005 v -0.928956 H 6.0740771 v -13.080457 h 0.9289564 v 14.009413 z M 4.2818481,-28.776344 3.690694,-28.18519 h -5.2171694 v -1.585794 H 1.570046 l -8.0884892,-8.088489 1.1260078,-1.126008 8.0884892,8.088489 v -3.096521 h 1.5857943 z"
     id="text20"
     style="font-size:19.2172px;line-height:1.25;text-align:center;text-anchor:middle;fill:#444444;stroke-width:0.400357;fill-opacity:1"
     transform="scale(1.0006703,0.99933016)"
     aria-label="⇲"
     sodipodi:nodetypes="cccccccccccccccccc" /></g></svg>
