<?xml version="1.0" encoding="UTF-8" standalone="no"?>
<!-- Created with Inkscape (http://www.inkscape.org/) -->

<svg
   width="16"
   height="16"
   viewBox="0 0 4.2333332 4.2333333"
   version="1.1"
   id="svg5"
   xml:space="preserve"
   sodipodi:docname="umbrella.svg"
   inkscape:version="1.2 (dc2aedaf03, 2022-05-15)"
   xmlns:inkscape="http://www.inkscape.org/namespaces/inkscape"
   xmlns:sodipodi="http://sodipodi.sourceforge.net/DTD/sodipodi-0.dtd"
   xmlns="http://www.w3.org/2000/svg"
   xmlns:svg="http://www.w3.org/2000/svg"><sodipodi:namedview
     id="namedview7"
     pagecolor="#ffffff"
     bordercolor="#666666"
     borderopacity="1.0"
     inkscape:showpageshadow="2"
     inkscape:pageopacity="0.0"
     inkscape:pagecheckerboard="0"
     inkscape:deskcolor="#d1d1d1"
     inkscape:document-units="px"
     showgrid="false"
     inkscape:zoom="13.022729"
     inkscape:cx="25.570677"
     inkscape:cy="11.134379"
     inkscape:window-width="1918"
     inkscape:window-height="1060"
     inkscape:window-x="0"
     inkscape:window-y="0"
     inkscape:window-maximized="1"
     inkscape:current-layer="layer1"
     showguides="true"><sodipodi:guide
       position="3.7041666,5.533624"
       orientation="-1,0"
       id="guide5843"
       inkscape:locked="false"
       inkscape:label=""
       inkscape:color="rgb(0,134,229)" /></sodipodi:namedview><defs
     id="defs2" /><g
     inkscape:label="Warstwa 1"
     inkscape:groupmode="layer"
     id="layer1"><path
       style="fill:#444444;fill-opacity:1;stroke-width:0.00270014"
       d="m 2.7421343,3.3746025 c 0.040107,-0.00569 0.084686,-0.020693 0.1259016,-0.042098 0.090119,-0.046791 0.1634337,-0.1376264 0.192774,-0.2388657 0.014649,-0.050418 0.018489,-0.1127663 0.00846,-0.1366095 -0.0064,-0.016071 -0.030009,-0.038898 -0.044586,-0.043662 -0.029938,-0.00988 -0.057813,-0.00754 -0.079353,0.0064 -0.020124,0.013298 -0.026667,0.029511 -0.039751,0.097783 -0.01088,0.056745 -0.031715,0.0989 -0.065066,0.1316319 -0.019982,0.019627 -0.037973,0.031218 -0.069191,0.044585 -0.047715,0.02048 -0.1053932,0.023111 -0.1547867,0.00711 -0.076565,-0.024817 -0.1327566,-0.086881 -0.1496881,-0.1652585 -0.00356,-0.016711 -0.00498,-0.054755 -0.00725,-0.223954 -0.00284,-0.1999044 -0.00142,-0.7703634 0.00213,-0.8082436 0.00142,-0.0128 0.00284,-0.018915 0.00569,-0.020053 0.0086,-0.00356 0.066204,0.012444 0.1085434,0.029724 0.043235,0.017636 0.07712,0.046151 0.1419726,0.1196497 0.054684,0.061936 0.069831,0.071373 0.1144527,0.071337 0.025102,-1.42e-5 0.038258,-0.00356 0.053973,-0.014364 0.0064,-0.00427 0.038898,-0.034631 0.071601,-0.066701 0.032711,-0.032071 0.066133,-0.063572 0.074218,-0.069901 0.031004,-0.02432 0.09851,-0.052905 0.1512952,-0.064212 0.033066,-0.00711 0.1214856,-0.00711 0.1537983,1.28e-4 0.065848,0.014435 0.1255389,0.044018 0.1771652,0.087643 0.038471,0.032498 0.061511,0.043662 0.090211,0.043662 0.027733,0 0.04608,-0.00775 0.066417,-0.028089 0.017564,-0.017564 0.025813,-0.034418 0.03136,-0.063714 0.00356,-0.017138 0.00142,-0.054684 -0.00427,-0.074253 C 3.68913,1.9207152 3.648668,1.8308391 3.6121527,1.7629291 3.4163635,1.3991657 3.0684757,1.1248805 2.6787889,1.0270474 2.6273049,1.0141054 2.5459896,0.99874565 2.5057979,0.99440795 c -0.029369,-0.003556 -0.041244,-0.007253 -0.044871,-0.0154308 -0.00142,-0.002844 -0.00284,-0.0443016 -0.00427,-0.0925782 -0.00142,-0.0495637 -0.00284,-0.0916182 -0.00498,-0.0966244 -0.00498,-0.0154308 -0.013796,-0.0268795 -0.026951,-0.0352706 -0.016995,-0.0108798 -0.034489,-0.014862 -0.05824,-0.0133687 -0.032853,0.002133 -0.055466,0.0178486 -0.065137,0.0452971 -0.00569,0.0160708 -0.00939,0.0735065 -0.00946,0.1446307 l -2.13e-5,0.0595191 -0.038471,0.004267 C 2.1796766,1.0036662 2.0692065,1.0286261 1.9921651,1.053799 1.8490903,1.1005893 1.6887286,1.1847266 1.5642921,1.2783073 1.4232226,1.3843962 1.2677675,1.5593909 1.1775494,1.713657 c -0.036693,0.062719 -0.077048,0.1444173 -0.100842,0.2041426 -0.035484,0.088966 -0.018702,0.1648615 0.042809,0.1936895 0.013013,0.0064 0.018916,0.00718 0.039751,0.00718 0.022258,7.1e-6 0.025955,-7.11e-4 0.041813,-0.00889 0.0096,-0.00498 0.028373,-0.018062 0.041742,-0.029226 0.059449,-0.049777 0.1125469,-0.076116 0.184959,-0.091903 0.034844,-0.00761 0.1181149,-0.00711 0.155768,0.00142 0.051911,0.011235 0.1156686,0.038542 0.1467439,0.06279 0.00811,0.0064 0.040889,0.037191 0.07281,0.068621 0.080284,0.078932 0.08881,0.084151 0.1335104,0.081812 0.043946,-0.00213 0.061369,-0.014293 0.1149292,-0.079053 0.060586,-0.073272 0.098844,-0.1014882 0.1679777,-0.1239448 0.030293,-0.00981 0.069262,-0.019058 0.071395,-0.016924 7.113e-4,7.111e-4 0.00213,0.2435519 0.00284,0.5395829 l 0.00142,0.5382319 0.017067,0.045582 c 0.019342,0.051626 0.038542,0.087458 0.065564,0.1224231 0.050844,0.065776 0.1270464,0.1149636 0.2134105,0.1377329 0.023182,0.0064 0.031929,0.00711 0.083904,0.00761 0.031929,4.195e-4 0.061724,2.346e-4 0.066133,-4.054e-4 z M 1.8452504,1.9284093 C 1.7772685,1.8776367 1.7007178,1.8426008 1.6200997,1.8252997 1.5712467,1.8148465 1.5384647,1.8120732 1.4813841,1.8136377 c -0.051271,0.00142 -0.078599,0.00498 -0.1187834,0.015502 -0.011307,0.00284 -0.029795,0.00775 -0.041173,0.010738 -0.011378,0.00284 -0.021404,0.00498 -0.022187,0.00356 -0.00498,-0.00498 0.055111,-0.099888 0.1096882,-0.1726412 0.1789502,-0.2384224 0.4237558,-0.4063983 0.7022396,-0.4818531 0.078094,-0.021191 0.1492116,-0.032924 0.2454244,-0.040604 0.083541,-0.0064 0.2368841,0.018275 0.3589101,0.058381 0.2785904,0.091511 0.5172025,0.2771582 0.6926255,0.5388929 0.023751,0.035413 0.06272,0.1020216 0.0608,0.1039274 -6.827e-4,6.825e-4 -0.012942,-0.00284 -0.027164,-0.00846 -0.031147,-0.011662 -0.061298,-0.019058 -0.099064,-0.02432 -0.1397894,-0.019413 -0.2737407,0.00846 -0.3813028,0.079373 -0.034631,0.022826 -0.051555,0.036551 -0.093105,0.075597 -0.018276,0.017138 -0.034204,0.031573 -0.035342,0.032 -0.00142,4.196e-4 -0.011662,-0.010311 -0.023395,-0.023893 C 2.7503191,1.9111432 2.6557561,1.8541199 2.561314,1.8301344 2.484479,1.8106504 2.3679355,1.8053174 2.2710471,1.8168374 2.2076161,1.8244474 2.160662,1.8384554 2.1041005,1.8667564 2.0417365,1.8979734 1.9925989,1.9351644 1.9521582,1.9818195 l -0.021902,0.025244 -0.028729,-0.029226 c -0.015787,-0.016071 -0.041102,-0.038471 -0.056177,-0.049706 z"
       id="path1229" /></g></svg>
