<?xml version="1.0" encoding="UTF-8" standalone="no"?>
<!-- Created with Inkscape (http://www.inkscape.org/) -->

<svg
   width="16"
   height="16"
   viewBox="0 0 4.2333332 4.2333333"
   version="1.1"
   id="svg5"
   xml:space="preserve"
   sodipodi:docname="wind.svg"
   inkscape:version="1.2 (dc2aedaf03, 2022-05-15)"
   xmlns:inkscape="http://www.inkscape.org/namespaces/inkscape"
   xmlns:sodipodi="http://sodipodi.sourceforge.net/DTD/sodipodi-0.dtd"
   xmlns="http://www.w3.org/2000/svg"
   xmlns:svg="http://www.w3.org/2000/svg"><sodipodi:namedview
     id="namedview7"
     pagecolor="#ffffff"
     bordercolor="#666666"
     borderopacity="1.0"
     inkscape:showpageshadow="2"
     inkscape:pageopacity="0.0"
     inkscape:pagecheckerboard="0"
     inkscape:deskcolor="#d1d1d1"
     inkscape:document-units="px"
     showgrid="false"
     inkscape:zoom="19.074667"
     inkscape:cx="10.485111"
     inkscape:cy="14.679155"
     inkscape:window-width="1918"
     inkscape:window-height="1060"
     inkscape:window-x="0"
     inkscape:window-y="0"
     inkscape:window-maximized="1"
     inkscape:current-layer="layer1" /><defs
     id="defs2" /><g
     inkscape:label="Warstwa 1"
     inkscape:groupmode="layer"
     id="layer1"><path
       style="fill:#444444;fill-opacity:1;stroke-width:0.00677078"
       d="m 2.3073996,3.4333133 c -0.066916,-0.017537 -0.1252397,-0.046696 -0.1758944,-0.087943 -0.051445,-0.041888 -0.07127,-0.077313 -0.072025,-0.1286619 -6.9e-4,-0.046825 0.02454,-0.093392 0.065168,-0.1202801 0.023854,-0.015788 0.034937,-0.018471 0.076319,-0.018471 0.041879,0 0.052002,0.00249 0.074973,0.018634 0.014606,0.010251 0.038408,0.026931 0.052894,0.037071 0.037482,0.026237 0.102956,0.029228 0.1463217,0.00669 0.042248,-0.021977 0.074536,-0.075409 0.07433,-0.1230152 C 2.5492462,2.9618301 2.5205059,2.9125938 2.4732699,2.886773 2.4528449,2.875613 2.3938399,2.874636 1.5441718,2.871465 L 0.63688159,2.868117 0.60979625,2.8535459 C 0.52148263,2.8060185 0.50253061,2.6928602 0.57135394,2.624034 0.61484475,2.5805436 0.53635728,2.5837493 1.5577066,2.5837493 h 0.9276025 l 0.054102,0.019123 c 0.1571772,0.055541 0.2575404,0.1695175 0.291523,0.3310621 0.019191,0.091234 0.00634,0.1768347 -0.040859,0.2727288 -0.035914,0.072932 -0.069316,0.113088 -0.1302076,0.1565347 -0.1057897,0.075486 -0.2344287,0.1011 -0.3524694,0.070172 z M 0.62015554,2.2816879 C 0.53949094,2.2492462 0.5048183,2.1504281 0.54814794,2.076491 0.55826204,2.059237 0.57909034,2.036806 0.59444154,2.02665 L 0.62234974,2.008179 1.9329987,2.004749 c 1.4861527,-0.00386 1.3415521,0.00249 1.4115592,-0.061516 0.091116,-0.083278 0.094634,-0.22116 0.00789,-0.3079352 -0.047802,-0.047802 -0.097109,-0.066264 -0.1663203,-0.06227 -0.057205,0.00326 -0.092569,0.018197 -0.1421174,0.05987 -0.036994,0.031114 -0.059142,0.040088 -0.098904,0.040088 -0.1036006,0 -0.1745221,-0.1071052 -0.1322613,-0.1997371 0.036737,-0.080535 0.1814673,-0.1658901 0.3157309,-0.1862142 0.1017783,-0.015403 0.1975876,0.00111 0.3009266,0.051788 0.053296,0.026151 0.073593,0.041082 0.1218746,0.089673 0.064996,0.065415 0.095574,0.1126911 0.1230061,0.1902093 0.047742,0.1349164 0.037988,0.2717766 -0.028483,0.39959 -0.061992,0.1191827 -0.162733,0.2045633 -0.2938878,0.2490659 l -0.054171,0.018377 -1.3304651,0.00129 c -0.8686181,8.572e-4 -1.33627122,-0.00103 -1.34719021,-0.0054 z m -0.0036,-0.5809099 C 0.56933625,1.6788442 0.54358804,1.6475249 0.53268534,1.5987675 0.51842268,1.5349462 0.54823369,1.4733232 0.60914141,1.440732 L 0.63686101,1.425895 1.331173,1.422555 C 1.9766791,1.419385 2.0267501,1.418355 2.0434975,1.407367 2.1412505,1.343298 2.1397525,1.2051897 2.0407575,1.155864 1.9772955,1.124245 1.9199809,1.132987 1.8644449,1.182752 1.7729859,1.264719 1.6271508,1.200486 1.6263485,1.0778848 c -3.42e-4,-0.052182 0.019157,-0.086592 0.075316,-0.13291482 0.083185,-0.0686127 0.1597083,-0.0947103 0.2758058,-0.0940581 0.061936,3.4885e-4 0.08375,0.003514 0.1295288,0.0186253 0.068099,0.0225252 0.1449571,0.0718697 0.1873122,0.12026549 0.03726,0.042573 0.079585,0.12071283 0.096874,0.17884963 0.016174,0.054402 0.016466,0.1609094 5.906e-4,0.2195607 -0.045651,0.1686878 -0.1856006,0.2951194 -0.352166,0.3181589 -0.035117,0.00489 -0.2792026,0.00729 -0.724477,0.0072 C 0.67516534,1.7134265 0.64234408,1.7128291 0.6165333,1.7008405 Z"
       id="path1526" /></g></svg>
