<?xml version="1.0" encoding="UTF-8" standalone="no"?>
<!-- Generator: Adobe Illustrator 19.0.0, SVG Export Plug-In . SVG Version: 6.00 Build 0)  -->

<svg
   version="1.1"
   id="Layer_1"
   x="0px"
   y="0px"
   viewBox="0 0 512 512"
   style="enable-background:new 0 0 512 512;"
   xml:space="preserve"
   sodipodi:docname="04d.svg"
   inkscape:version="1.2 (dc2aedaf03, 2022-05-15)"
   xmlns:inkscape="http://www.inkscape.org/namespaces/inkscape"
   xmlns:sodipodi="http://sodipodi.sourceforge.net/DTD/sodipodi-0.dtd"
   xmlns="http://www.w3.org/2000/svg"
   xmlns:svg="http://www.w3.org/2000/svg"><defs
   id="defs12" /><sodipodi:namedview
   id="namedview10"
   pagecolor="#ffffff"
   bordercolor="#666666"
   borderopacity="1.0"
   inkscape:showpageshadow="2"
   inkscape:pageopacity="0.0"
   inkscape:pagecheckerboard="0"
   inkscape:deskcolor="#d1d1d1"
   showgrid="false"
   inkscape:zoom="0.4609375"
   inkscape:cx="254.91525"
   inkscape:cy="-1.0847458"
   inkscape:window-width="1918"
   inkscape:window-height="1018"
   inkscape:window-x="0"
   inkscape:window-y="0"
   inkscape:window-maximized="1"
   inkscape:current-layer="Layer_1" />
<style
   type="text/css"
   id="style2">
	.st0{fill:#BEC6D2;}
	.st1{opacity:5.000000e-002;fill:#A7A9AC;enable-background:new    ;}
	.st2{fill:#D3DEE2;}
</style>
<g
   id="XMLID_78_-3"
   transform="matrix(0.66280042,0,0,0.66280042,170.62299,4.029599)">
	<path
   id="XMLID_637_-6"
   class="st0"
   d="m 416.7,177.4 c -12,0 -23.5,2.5 -34,6.8 C 359.1,138 311.5,106 256,106 c -55.5,0 -103.1,32 -126.7,78.2 -10.5,-4.3 -21.9,-6.8 -34,-6.8 C 46,177.4 6,217.4 6,266.7 6,316 46,356 95.3,356 c 19.1,0 36.8,-6.1 51.3,-16.4 26.2,31.6 65.2,52.1 109.4,52.1 44.2,0 83.2,-20.5 109.4,-52.1 14.5,10.2 32.2,16.4 51.3,16.4 49.3,0 89.3,-40 89.3,-89.3 0,-49.3 -40,-89.3 -89.3,-89.3 z"
   style="fill:#bbbbbc" />
	<path
   id="XMLID_636_-7"
   class="st1"
   d="m 267.8,254.6 c -96.2,-9.7 -186.3,3.7 -257.5,33.7 8.9,40 44.5,69.9 87.1,69.9 19.1,0 36.8,-6.1 51.3,-16.4 26.2,31.6 65.2,52.1 109.4,52.1 44.2,0 83.2,-20.5 109.4,-52.1 14.5,10.2 32.2,16.4 51.3,16.4 28.6,0 54,-13.5 70.4,-34.5 -60.6,-35.4 -136.9,-60.6 -221.4,-69.1 z"
   style="opacity:0.05;fill:#a7a9ac;enable-background:new" />
	<path
   id="XMLID_635_-5"
   class="st2"
   d="m 416.7,191.7 c -12,0 -23.5,2.5 -34,6.8 C 359,152.3 311.5,120.3 256,120.3 c -55.5,0 -103.1,32 -126.7,78.2 -10.5,-4.3 -21.9,-6.8 -34,-6.8 C 46,191.7 6,231.7 6,281 c 0,49.3 40,89.3 89.3,89.3 19.1,0 36.8,-6.1 51.3,-16.4 26.2,31.6 65.2,52.1 109.4,52.1 44.2,0 83.2,-20.5 109.4,-52.1 14.5,10.2 32.2,16.4 51.3,16.4 49.3,0 89.3,-40 89.3,-89.3 0,-49.3 -40,-89.3 -89.3,-89.3 z"
   style="fill:#999999" />
	<path
   id="XMLID_541_-3"
   class="st0"
   d="m 156.2,247.5 c 7.5,0 14.5,1.5 21,4.2 14.6,-28.6 44,-48.3 78.3,-48.3 34.3,0 63.7,19.8 78.3,48.3 6.5,-2.7 13.6,-4.2 21,-4.2 27.9,0 50.9,20.7 54.6,47.6 0.3,-2.5 0.6,-5 0.6,-7.5 0,-30.5 -24.7,-55.2 -55.2,-55.2 -7.4,0 -14.5,1.5 -21,4.2 -14.6,-28.6 -44,-48.3 -78.3,-48.3 -34.3,0 -63.7,19.8 -78.3,48.3 -6.5,-2.7 -13.5,-4.2 -21,-4.2 -30.5,0 -55.2,24.7 -55.2,55.2 0,2.6 0.2,5.1 0.6,7.5 3.6,-26.9 26.6,-47.6 54.6,-47.6 z"
   style="fill:#bbbbbc" />
</g><g
   id="XMLID_78_"
   transform="matrix(0.85114974,0,0,0.85114974,0.89310134,33.187448)">
	<path
   id="XMLID_637_"
   class="st0"
   d="m 416.7,177.4 c -12,0 -23.5,2.5 -34,6.8 C 359.1,138 311.5,106 256,106 c -55.5,0 -103.1,32 -126.7,78.2 -10.5,-4.3 -21.9,-6.8 -34,-6.8 C 46,177.4 6,217.4 6,266.7 6,316 46,356 95.3,356 c 19.1,0 36.8,-6.1 51.3,-16.4 26.2,31.6 65.2,52.1 109.4,52.1 44.2,0 83.2,-20.5 109.4,-52.1 14.5,10.2 32.2,16.4 51.3,16.4 49.3,0 89.3,-40 89.3,-89.3 0,-49.3 -40,-89.3 -89.3,-89.3 z" />
	<path
   id="XMLID_636_"
   class="st1"
   d="m 267.8,254.6 c -96.2,-9.7 -186.3,3.7 -257.5,33.7 8.9,40 44.5,69.9 87.1,69.9 19.1,0 36.8,-6.1 51.3,-16.4 26.2,31.6 65.2,52.1 109.4,52.1 44.2,0 83.2,-20.5 109.4,-52.1 14.5,10.2 32.2,16.4 51.3,16.4 28.6,0 54,-13.5 70.4,-34.5 -60.6,-35.4 -136.9,-60.6 -221.4,-69.1 z" />
	<path
   id="XMLID_635_"
   class="st2"
   d="m 416.7,191.7 c -12,0 -23.5,2.5 -34,6.8 C 359,152.3 311.5,120.3 256,120.3 c -55.5,0 -103.1,32 -126.7,78.2 -10.5,-4.3 -21.9,-6.8 -34,-6.8 C 46,191.7 6,231.7 6,281 c 0,49.3 40,89.3 89.3,89.3 19.1,0 36.8,-6.1 51.3,-16.4 26.2,31.6 65.2,52.1 109.4,52.1 44.2,0 83.2,-20.5 109.4,-52.1 14.5,10.2 32.2,16.4 51.3,16.4 49.3,0 89.3,-40 89.3,-89.3 0,-49.3 -40,-89.3 -89.3,-89.3 z" />
	<path
   id="XMLID_541_"
   class="st0"
   d="m 156.2,247.5 c 7.5,0 14.5,1.5 21,4.2 14.6,-28.6 44,-48.3 78.3,-48.3 34.3,0 63.7,19.8 78.3,48.3 6.5,-2.7 13.6,-4.2 21,-4.2 27.9,0 50.9,20.7 54.6,47.6 0.3,-2.5 0.6,-5 0.6,-7.5 0,-30.5 -24.7,-55.2 -55.2,-55.2 -7.4,0 -14.5,1.5 -21,4.2 -14.6,-28.6 -44,-48.3 -78.3,-48.3 -34.3,0 -63.7,19.8 -78.3,48.3 -6.5,-2.7 -13.5,-4.2 -21,-4.2 -30.5,0 -55.2,24.7 -55.2,55.2 0,2.6 0.2,5.1 0.6,7.5 3.6,-26.9 26.6,-47.6 54.6,-47.6 z" />
</g>
</svg>
